/* XPM */
static char *result[] = {
/* columns rows colors chars-per-pixel */
"64 64 217 2 ",
"   c #020202",
".  c #0A0303",
"X  c #040902",
"o  c #0C0A04",
"O  c #03030A",
"+  c #0A040B",
"@  c #040A0B",
"#  c #0B0A0A",
"$  c #120806",
"%  c #120F0D",
"&  c #0D110E",
"*  c #030412",
"=  c #090311",
"-  c #020915",
";  c #0B0C12",
":  c #04051B",
">  c #030C1C",
",  c #0F091F",
"<  c #110514",
"1  c #041314",
"2  c #091214",
"3  c #0C161D",
"4  c #14171C",
"5  c #121C1D",
"6  c #020423",
"7  c #090121",
"8  c #030B23",
"9  c #040D2B",
"0  c #090C2A",
"q  c #0B1426",
"w  c #0E132C",
"e  c #141F21",
"r  c #071436",
"t  c #0B1233",
"y  c #0C123B",
"u  c #111A36",
"i  c #19262A",
"p  c #1F2E36",
"a  c #23292C",
"s  c #272E34",
"d  c #283536",
"f  c #0A1847",
"g  c #101742",
"h  c #141A43",
"j  c #151B4C",
"k  c #0E1957",
"l  c #151B52",
"z  c #191E53",
"x  c #141B58",
"c  c #0F2148",
"v  c #1A234B",
"b  c #172557",
"n  c #1A2254",
"m  c #1D2A5D",
"M  c #252A56",
"N  c #0E1E64",
"B  c #131F60",
"V  c #192566",
"C  c #172865",
"Z  c #1C326E",
"A  c #182975",
"S  c #1C3172",
"D  c #1F3279",
"F  c #232C64",
"G  c #283269",
"H  c #2A336C",
"J  c #282D73",
"K  c #252E7D",
"L  c #253474",
"P  c #2A3473",
"I  c #26317B",
"U  c #2B347C",
"Y  c #36494B",
"T  c #3A494E",
"R  c #374D53",
"E  c #3C5255",
"W  c #3F555B",
"Q  c #3D595C",
"!  c #3A4C61",
"~  c #3E5760",
"^  c #3D5C62",
"/  c #3C6161",
"(  c #48565B",
")  c #425B5D",
"_  c #54575A",
"`  c #435D63",
"'  c #465A65",
"]  c #446264",
"[  c #486065",
"{  c #456469",
"}  c #54676C",
"|  c #4B6A73",
" . c #566B70",
".. c #597073",
"X. c #666C72",
"o. c #6D7074",
"O. c #1F2782",
"+. c #1A3084",
"@. c #252D81",
"#. c #253283",
"$. c #2E3486",
"%. c #24318B",
"&. c #2C3989",
"*. c #333C8A",
"=. c #272E92",
"-. c #253092",
";. c #233993",
":. c #2C3F95",
">. c #2E3F9C",
",. c #323E93",
"<. c #333E9D",
"1. c #253BA5",
"2. c #2D3EA2",
"3. c #2C3CA9",
"4. c #323EA4",
"5. c #333DAB",
"6. c #323AB4",
"7. c #34438B",
"8. c #3D448B",
"9. c #2E4197",
"0. c #2E429D",
"q. c #324394",
"w. c #32429D",
"e. c #35469D",
"r. c #2E42A2",
"t. c #2E44AB",
"y. c #3242A3",
"u. c #3945A3",
"i. c #3448A6",
"p. c #3949A2",
"a. c #3443AA",
"s. c #3A45AB",
"d. c #2F47B6",
"f. c #3345B2",
"g. c #3946B4",
"h. c #3349B2",
"j. c #3345B8",
"k. c #324DBB",
"l. c #3B49B9",
"z. c #3A52B7",
"x. c #5D7B84",
"c. c #2D49C0",
"v. c #344BC4",
"b. c #344ECC",
"n. c #384ECD",
"m. c #2E53CD",
"M. c #3452C3",
"N. c #3951C4",
"B. c #3454CD",
"V. c #3B53CC",
"C. c #3559CD",
"Z. c #3C59CA",
"A. c #2F4FD1",
"S. c #344ED3",
"D. c #344DDC",
"F. c #3C4ED9",
"G. c #3553D3",
"H. c #3954D4",
"J. c #3B59D4",
"K. c #3653DA",
"L. c #3B53DB",
"P. c #3A59D8",
"I. c #3E4FE6",
"U. c #3452E2",
"Y. c #3B54E4",
"T. c #3A58E6",
"R. c #3353EB",
"E. c #3E53EB",
"W. c #404CCC",
"Q. c #4354C6",
"!. c #424AD4",
"~. c #4453D3",
"^. c #4358D9",
"/. c #4254E4",
"(. c #4250EA",
"). c #5F8186",
"_. c #6B8A8F",
"`. c #678993",
"'. c #6D919B",
"]. c #71959E",
"[. c #70999F",
"{. c #7495A2",
"}. c #7FA5B4",
"|. c #82A9B5",
" X c #94ACB3",
".X c #A2B8BF",
"XX c #8AB7C5",
"oX c #8EBDC5",
"OX c #94BBC5",
"+X c #93BFCD",
"@X c #A0BEC3",
"#X c #8FC0CC",
"$X c #94C3CE",
"%X c #9CC4CD",
"&X c #95C3D3",
"*X c #9AC5D5",
"=X c #96CAD3",
"-X c #98C8D4",
";X c #9BC3D8",
":X c #97C9DC",
">X c #9ECCDA",
",X c #A2C2CD",
"<X c #A6C9D4",
"1X c #B5CCD6",
"2X c #AED6DC",
"3X c #AED7E4",
"4X c #DDE8ED",
"5X c #DAF0F5",
"6X c #EDECEE",
"7X c #F2ECF3",
"8X c #F8EBF9",
"9X c #EEF2F2",
"0X c #ECF4FA",
"qX c #F2F3F4",
"wX c #F3F4F9",
"eX c #F8F0F8",
"rX c none",
/* pixels */
"rXrXrXrXrXrXrXrXrXrXrXrXrXrXrXrXrXrXrXrXrXrXrXrXrXrXrXrXrXrXrXrXrXrXrXrXrXrXrXrXrXrXrXrXrXrXrXrXrXrXrXrXrXrXrXrXrXrXrXrXrXrXrXrX",
"rXrXrXrXrXrXrXrXrXrXrXrXrXrXrXrXrXrXrXrXrXrXrXrXrXrXrXrXrXrXrXrXrXrXrXrXrXrXrXrXrXrXrXrXrXrXrXrXrXrXrXrXrXrXrXrXrXrXrXrXrXrXrXrX",
"rXrXrXrXrXrXrXrXrXrXrXrXrXrXrXrXrXrXrXrXrXrXrXrXrXrXrXrXrXrXrXrXrXrXrXrXrXrXrXrXrXrXrXrXrXrXrXrXrXrXrXrXrXrXrXrXrXrXrXrXrXrXrXrX",
"rXrXrXrXrXrXrXrXrXrXrXrXrXrXrXrXrXrXrXrXrXrXrXrXrXrXrXrXrXrXrXrXrXrXrXrXrXrXrXrXrXrXrXrXrXrXrXrXrXrXrXrXrXrXrXrXrXrXrXrXrXrXrXrX",
"rXrXrXrXrXrXrXrXrXrXrXrXrXrXrXrXrXrXrXrXrXrXrXrX,     @ O . .     . + . . . O O : O   rXrXrXrXrXrXrXrXrXrXrXrXrXrXrXrXrXrXrXrXrX",
"rXrXrXrXrXrXrXrXrXrXrXrXrXrXrXrXrXrXrXrXrXrX  O O   + O - > > > > > > > > 8 ;                 rXrXrXrXrXrXrXrXrXrXrXrXrXrXrXrXrX",
"rXrXrXrXrXrXrXrXrXrXrXrXrXrXrXrXrXrXrXrXrX  @   O > c ;.L.E.E.E.E.E.T.Y.I.(.^.1.K j 0 : ; O   ; $ rXrXrXrXrXrXrXrXrXrXrXrXrXrXrX",
"rXrXrXrXrXrXrXrXrXrXrXrXrXrXrXrXrXrXrXrX  . # 9 A b.Y.G.G.G.A.A.A.G.G.G.C.b.S.B.E.S.~.n.$.c   O ; O rXrXrXrXrXrXrXrXrXrXrXrXrXrX",
"rXrXrXrXrXrXrXrXrXrXrXrXrXrXrXrXrXrXrX  = = N k.P.S.b.H.G.G.B.B.J.K.K.F.S.G.J.G.G.G.K.K.K.~.&.  7 + o rXrXrXrXrXrXrXrXrXrXrXrXrX",
"rXrXrXrXrXrXrXrXrXrXrXrXrXrXrXrXrXrXrX  O > ;.B.J.S.G.H.H.S.G.G.G.G.m.C.G.K.U.L.H.P.G.P.K.D.K.1.1   = % rXrXrXrXrXrXrXrXrXrXrXrX",
"rXrXrXrXrXrXrXrXrXrXrXrXrXrXrXrXrX  .     V H.K.S.H.G.B.G.P.B.B.P.U.R.c.z.Q.y.k V B C b A z.Z.^.j.V : + O rXrXrXrXrXrXrXrXrXrXrX",
"rXrXrXrXrXrXrXrXrXrXrXrXrXrXrXrXrXO   * y B.F.S.K.H.G.B.G.K.D.N.+.C m 8 - : * X   +     O : : * h x : X O rXrXrXrXrXrXrXrXrXrXrX",
"rXrXrXrXrXrXrXrXrXrXrXrXrXrXrXrXrXO   y N.A.G.K.H.S.H.K.U.V.S t O < O O   . @ O   O O .   o * *   O O O   % rXrXrXrXrXrXrXrXrXrX",
"rXrXrXrXrXrXrXrXrXrXrXrXrXrXrXrXrX  O r F.C.J.K.F.M.R.B.l.k               (  . .)..XOX[.{ ..} 3       . o .   % rXrXrXrXrXrXrXrX",
"rXrXrXrXrXrXrXrXrXrXrXrXrXrXrXrXrX    f b.B.B.G.H.H.P.F.G       - d  .`.|.<X>X>X=X&X<X3X2X2X2X@X.X XX.o._ . . #     rXrXrXrXrXrX",
"rXrXrXrXrXrXrXrXrXrXrXrXrXrXrXrXrX  O #.F.G.H.G.H.K.v.W.O . . O T ) oX<XoX&X#X=X<X0X8X8XqXwXqXwXqXwXwXqXeX_.        . rXrXrXrXrX",
"rXrXrXrXrXrXrXrXrXrXrXrXrXrXrXrXrX  : 5.L.A.C.K.K.m.K.F   O   d W ^ $X&X*X*X*X$X%X5X0X0X9XwXeX7XqX6XqX9X4X<X}.| @   . rXrXrXrXrX",
"rXrXrXrXrXrXrXrXrXrXrXrXrXrXrXrX:   f H.K.C.G.G.G.G./.8 X .   Y ] ~ XX=X+X&X&X&X&X$X%X1X5X0XwXwXeXwX9X6X<X*X&X3XR       rXrXrXrX",
"rXrXrXrXrXrXrXrXrXrXrXrXrXrXrXrX    V J.A.V.K.B.P.m.E.9     d Q / ) |.>X&X&X&X&X&X-X&X$X,X,X&X$X$X&X$X$X#X:X&XoXOXp     rXrXrXrX",
"rXrXrXrXrXrXrXrXrXrX  O   # O O     x N.G.S.P.S.G.m./.9     s ] / Q |.*X&X:X&X:X&X&X&X&X&X;X*X*X*X;X;X&X&X&X=XoX Xp     rXrXrXrX",
"rXrXrXrXrXrX  .     O . X   X O * 0 *.t.S.K.H.G.G.m./.9     a ) ] ] ^ `.$X*X&X&X*X+X&X&X&X&X$X&X=X$X$X$X+XOXOX| ` 2     rXrXrXrX",
"rXrXrXrXrX%   . O + : L l.g.b   . y e.t.H.D.B.B.K.B./.9   .   i Q ` ` ~ x.`.*X$X*X*X*X*X+X$X&X&X&X$X&X$X`.`.{ ` a       rXrXrXrX",
"rXrXrXrXrX@ = O j c.P.G.d.s.l     y e.a.n.P.G.G.C.K.N.D 8 ;   # ' ] ] ` ` ^ Q _.'.{.'.].].].{.{.'.{.x.( ( ^ ] E 4 X   rXrXrXrXrX",
"rXrXrXrX  * O 1 ~.U.B.G.t.s.l     y y.t.v.K.B.B.B.K.U.L.U O +   5 ! ' ` ^ { ' ~ ) ) ` ) ` ) ` Q ` ) ) [ ` ' Y s     ; rXrXrXrXrX",
"rXrXrXrX    O n K.m.G.v.r.y.z     y u.2.h.G.K.G.B.C.A.K.2.9   O   s ) ` ] ^ { { ) ] ` ^ / ] Q ` ) ] ) Q d 2   .   + rXrXrXrXrXrX",
"rXrXrXrX  .   F.m.G.H.h.w.s.z     y s.2.y.B.G.G.G.G.B.G.b.z.y O #   5 e 5 i R ( E E E } W W Y i 5 i 5 @   O     o rXrXrXrXrXrXrX",
"rXrXrXrX  O   !.z.t.y.y.0.a.l     w u.r.w.v.G.G.G.H.H.G.R.G.q.-   O     O           O i ;       .         O . & rXrXrXrXrXrXrXrX",
"rXrXrX        6.y.w.<.4.0.a.l     w y.t.w.v.G.G.G.G.G.G.B.J.H.6.*.> O         O   .     .         X     : *   - rXrXrXrXrXrXrXrX",
"rXrXrX      u 4.r.y.<.4.w.s.l     w a.r.w.v.K.G.G.G.G.G.V.S.Y.J.B.Z.^.f.#.#.-.-.v = X o O y -.%.t.~.^.F.^.D     rXrXrXrXrXrXrXrX",
"rXrXrX    O J a.t.t.5.4.0.a.z     w u.r.<.v.G.G.H.G.G.G.G.B.V.G.K.A.K.K.B.c.b.C.Y./.L.H.L.H.C.M.C.m.A.K.J.A   @ rXrXrXrXrXrXrXrX",
"rXrXrX      $.w.0.w.e.4.r.a.l     w y.r.w.v.G.G.G.G.G.G.K.G.G.B.P.b.V.H.F.L.K.G.G.B.K.K.G.K.G.G.J.b.n.H.P.K .   rXrXrXrXrXrXrXrX",
"rXrXrX      K 2.w.y.y.y.0.i.n     y u.w.4.f.M.G.G.G.H.G.G.G.G.G.G.H.G.G.G.G.H.G.G.G.G.G.G.G.G.G.H.G.G.G.T.Z     rXrXrXrXrXrXrXrX",
"rXrXrX      K t.y.y.y.y.t.5.l     y u.r.2.a.k.G.G.G.G.G.G.G.H.G.G.G.G.G.G.G.G.G.G.G.G.G.G.G.G.G.G.G.G.B.T.Z   X rXrXrXrXrXrXrXrX",
"rXrXrX      K y.w.4.y.w.0.s.l     y u.r.w.r.a.n.G.K.S.B.H.G.G.G.G.H.G.G.H.G.H.G.G.G.H.G.H.G.G.H.H.G.G.G.T.S   . rXrXrXrXrXrXrXrX",
"rXrXrX      I t.y.y.i.4.e.&.t   O y y.y.4.y.r.h.v.G.G.G.B.G.G.G.G.G.G.H.H.G.G.G.G.G.G.G.G.G.G.G.G.H.H.G.T.S   X rXrXrXrXrXrXrXrX",
"rXrXrX      O.y.w.4.0.y.h.m       y u.0.4.a.w.r.t.k.B.G.G.B.G.G.K.F.G.B.G.G.G.H.G.V.G.G.G.G.C.G.G.B.G.B.L.Z   X rXrXrXrXrXrXrXrX",
"rXrXrX      @.y.<.5.i.w.g.C       y y.r.y.5.w.y.0.r.d.M.K.K.K.B.G.G.G.S.S.S.S.V.G.H.B.H.B.G.G.G.G.H.G.G.T.S     rXrXrXrXrXrXrXrX",
"rXrXrX      G 5.w.y.w.w.t.I :     y u.r.y.4.y.r.i.0.2.a.f.v.b.H.G.K.G.G.H.H.G.H.G.G.G.G.G.G.G.G.F.G.K.G.T.S   X rXrXrXrXrXrXrXrX",
"rXrXrX      q 3.e.4.y.y.r.u.h   O y y.r.w.a.y.y.<.i.u.r.0.w.a.f.v.S.G.G.H.H.G.S.G.K.G.K.G.H.G.G.K.H.V.N.n.C O   rXrXrXrXrXrXrXrX",
"rXrXrX    .   5.,.y.r.y.r.s.j   O y y.r.y.5.w.y.y.>.t.y.2.y.y.y.y.w.k.v.b.S.K.L.H.G.G.G.G.G.A.J.G.v.f.t.f.b .   rXrXrXrXrXrXrXrX",
"rXrXrXrX      J y.<.y.4.0.a.b     y i.r.y.a.y.y.y.y.y.y.y.y.y.y.y.y.0.>.y.r.y.a.r.y.t.y.r.a.y.y.y.r.r.r.a.M     rXrXrXrXrXrXrXrX",
"rXrXrXrX  . O X ,.s.0.a.r.a.j     y y.r.r.y.w.y.y.y.<.y.y.y.y.y.y.y.y.r.r.r.t.>.y.r.y.r.y.r.0.r.y.y.r.y.<.h   # rXrXrXrXrXrXrXrX",
"rXrXrXrXrXO . O j 6.9.<.0.i.l     y u.r.4.a.y.y.w.y.y.y.w.y.4.y.y.y.y.y.r.y.r.y.y.y.y.y.y.y.r.y.y.y.r.y.@.:   O rXrXrXrXrXrXrXrX",
"rXrXrXrXrXrX    O h 8.*.q.a.l     y y.r.y.y.w.y.y.y.4.w.y.y.y.w.y.y.y.t.y.r.y.w.y.y.y.y.y.y.r.r.0.r.r.t.U = O o rXrXrXrXrXrXrXrX",
"rXrXrXrXrXrX  O     6 6 f U M   . w *.t.t.u.4.y.w.y.y.y.y.q.3.2.4.y.y.2.t.1.a.e.i.g.g.u.y.r.r.u.0.y.2.u.n . O # rXrXrXrXrXrXrXrX",
"rXrXrXrXrXrXrXrX# O O O .   * O O O b a.y.:.4.y.4.y.y.y.4.9.h.q.J G H G P P F y     X   9 L 4.y.y.w.2.w.u X @ . rXrXrXrXrXrXrXrX",
"rXrXrXrXrXrXrXrXrXrXrX    O .   O   > #.r.q.y.y.y.y.y.y.s.w.2.n O   O O   O =   . O O . . h s.r.y.y.y.q.t     rXrXrXrXrXrXrXrXrX",
"rXrXrXrXrXrXrXrXrXrXrXrXrXrXrXrX    = K y.i.>.y.y.y.y.4.>.r.s.n     O   o   .   X q u y k $.y.<.u.0.e.A       rXrXrXrXrXrXrXrXrX",
"rXrXrXrXrXrXrXrXrXrXrXrXrXrXrXrX< . = U 4.r.y.y.y.y.y.y.i.>.a.b     rXrXrXrX    O U a.y.p.:.y.y.y.r.p.N . X rXrXrXrXrXrXrXrXrXrX",
"rXrXrXrXrXrXrXrXrXrXrXrXrXrXrXrXo O @ @.y.0.y.y.y.y.y.y.w.r.y.z     rXrXrXrX      =.q.0.5.w.y.w.a.f.q.j     rXrXrXrXrXrXrXrXrXrX",
"rXrXrXrXrXrXrXrXrXrXrXrXrXrXrXrXo O O @.i.w.y.y.y.y.y.4.4.0.y.n O   rXrXrXrX      U y.w.a.w.w.e.r.r.P *   O rXrXrXrXrXrXrXrXrXrX",
"rXrXrXrXrXrXrXrXrXrXrXrXrXrXrXrXo O - K y.w.y.y.y.w.y.y.y.y.a.z     rXrXrXrX    O v 5.0.a.<.r.y.3.u.G O   % rXrXrXrXrXrXrXrXrXrX",
"rXrXrXrXrXrXrXrXrXrXrXrXrXrXrXrXo O = I i.y.y.y.y.y.y.y.y.0.y.n     rXrXrXrX        5.q.3.w.y.y.t.:.r .   rXrXrXrXrXrXrXrXrXrXrX",
"rXrXrXrXrXrXrXrXrXrXrXrXrXrXrXrX. X - I f.3.y.>.y.q.w.e.i.y.&.8   O rXrXrXrXrX    X 7.a.f.2.t.h.w.P 8 .   rXrXrXrXrXrXrXrXrXrXrX",
"rXrXrXrXrXrXrXrXrXrXrXrXrXrXrXrX$ . O j w.>.e.4.a.a.5.a.t.q.z + O   rXrXrXrXrX  . O : M M M M n t O . O   rXrXrXrXrXrXrXrXrXrXrX",
"rXrXrXrXrXrXrXrXrXrXrXrXrXrXrXrX.   . 9 7.a.y.w.0.w.>.0.<.G   @ O   rXrXrXrXrXrX+   X   O O O         O rXrXrXrXrXrXrXrXrXrXrXrX",
"rXrXrXrXrXrXrXrXrXrXrXrXrXrXrXrXrX    6 L w.4.f.4.i.w.#.l * X     rXrXrXrXrXrXrXrX  X o . + $   o . rXrXrXrXrXrXrXrXrXrXrXrXrXrX",
"rXrXrXrXrXrXrXrXrXrXrXrXrXrXrXrXrX  . . O w f H g 0 q O       . rXrXrXrXrXrXrXrXrXrXrXrXrXrXrXrXrXrXrXrXrXrXrXrXrXrXrXrXrXrXrXrX",
"rXrXrXrXrXrXrXrXrXrXrXrXrXrXrXrXrXrX  O +               O     rXrXrXrXrXrXrXrXrXrXrXrXrXrXrXrXrXrXrXrXrXrXrXrXrXrXrXrXrXrXrXrXrX",
"rXrXrXrXrXrXrXrXrXrXrXrXrXrXrXrXrXrXrXrXrX=   +     rXrXrXrXrXrXrXrXrXrXrXrXrXrXrXrXrXrXrXrXrXrXrXrXrXrXrXrXrXrXrXrXrXrXrXrXrXrX",
"rXrXrXrXrXrXrXrXrXrXrXrXrXrXrXrXrXrXrXrXrXrXrXrXrXrXrXrXrXrXrXrXrXrXrXrXrXrXrXrXrXrXrXrXrXrXrXrXrXrXrXrXrXrXrXrXrXrXrXrXrXrXrXrX",
"rXrXrXrXrXrXrXrXrXrXrXrXrXrXrXrXrXrXrXrXrXrXrXrXrXrXrXrXrXrXrXrXrXrXrXrXrXrXrXrXrXrXrXrXrXrXrXrXrXrXrXrXrXrXrXrXrXrXrXrXrXrXrXrX",
"rXrXrXrXrXrXrXrXrXrXrXrXrXrXrXrXrXrXrXrXrXrXrXrXrXrXrXrXrXrXrXrXrXrXrXrXrXrXrXrXrXrXrXrXrXrXrXrXrXrXrXrXrXrXrXrXrXrXrXrXrXrXrXrX",
"rXrXrXrXrXrXrXrXrXrXrXrXrXrXrXrXrXrXrXrXrXrXrXrXrXrXrXrXrXrXrXrXrXrXrXrXrXrXrXrXrXrXrXrXrXrXrXrXrXrXrXrXrXrXrXrXrXrXrXrXrXrXrXrX"
};
