/* XPM */
static char *result[] = {
/* columns rows colors chars-per-pixel */
"64 64 34 1 ",
"  c #060606",
". c #070606",
"X c #060706",
"o c #070706",
"O c #060607",
"+ c #070607",
"@ c #060707",
"# c #070707",
"$ c #323232",
"% c #333232",
"& c #323332",
"* c #333332",
"= c #323233",
"- c #333233",
"; c #323333",
": c gray20",
"> c #565656",
", c #575656",
"< c #565756",
"1 c #575756",
"2 c #565657",
"3 c #575657",
"4 c #565757",
"5 c gray34",
"6 c #636262",
"7 c #636263",
"8 c gray59",
"9 c #979696",
"0 c #969796",
"q c #979796",
"w c #969697",
"e c #979697",
"r c #969797",
"t c #979797",
/* pixels */
"1;$%&<eq#q<*;-%53;%*&1e0#q4*;-%53;%*&1e0@q4*;--53;%*&1e0#q4*;--5",
"139et0te%qrw+55-439etrte*qtw+55-538etrte&qtw+55-539etrte&qtw+55-",
"<O:*+:=;e:455e2><O:*+:;=e:555e3><O:*+:==e:555e3><O:*+:==e*555e3>",
"3e,5,.1t43:-:-*15e,53.1t45:-:-*55e,53.1t45:-:%*55t,53.<t45;-:-*5",
"5re;::-:*:eert0@5te;-:-:*:eett0@5te;::-:*:eetq0@5te;::::*:eett0@",
"-:335:*:5#54;*o3-:531:::5#54:*#5-:531:::5#54:*o5-:531:::5#54:*o5",
"0r274*rt5545eeq#0r374*re5545weq#0r374*re5545weq#0r374*re5545weq#",
"455:::*&*O***&51455:::*&*+*-:;51435*::*&*+*::;51455::;*&*+**:;51",
"20r+w:<55reqwrtt4rr+e:<55rtqwrtt4rr+e:<55rtqwrtt4rr+e:<55wtqwrtt",
"2:::*;:5@45-;:t52:::*;:5@55-;:t52:::*;:4@55-;*t52:::*;:4@55-;:t5",
"5<t:=tt:o*qtr43451t:;tq:o-ttt43451t:;tq:o:ttt43451t:;tq:o:ttt234",
"@,55-333tt1,,tto@,55-533tt1,,tto@,55-533tt1,,tto@,55-533tt1,,tt#",
"3::--%&*tt;::**33&::-%&*tt;:-::53*::-%&*tt;:-::53*::-%&*tt;::::5",
"<e*t#43*&:#:45tt4t*t#45*&:#-55tt4t*t#45*&:#-53tq4t*t#44*&:#:55tt",
"145;::::<5te5-:1155;::-*<5tt5-:5155;::-:<5tt5-:5155;::=:<5tt5-:5",
"-=:*+ee5153=:&34-=:*+tt5153=:*34-=:*+et5153-:*34-=:*+et5153=:*34",
"3;%*&1e0#q4*;--53;%*&1e0#q<*;--53;%*&1e0#t4*;--53;%*&1e0#q4*;=-5",
"539etwte*qtw+35-5,9etrtw*qtw+55-539etrre*qtw+55-53e9trte*qtw+55-",
"<O:*+:==e:555e3<< :*+:;=e:554e3><O:*+:==e:555e3><O:*+:==e:555e3>",
"5e,53.1t45:-:-*55e,53.1t45-::-*55e,13.1t45:-:-*55e,53.1t45:-:-*5",
"5te;::-:*;eett0@5te=::-:*:eett0@5te;::-:*:eett0@5tt;::%:*:eett0@",
"-:531-::5#54:*o5-;535:::5#54:*o5-:531::;5#54:*o5-:531:::5#5<:&o5",
"0r364:re5545weq#0r374*re5545wwq#0r374*re5545weq#0r374*re5545wwq#",
"255:::*&*+:::;51455:::*&*+*::;51455:::*&*+*::;51455::-***+*::;51",
"4rr+e:<55rtqrrtt4rr+e:<55rtqwwtt4rr+e:<55rtqwrtt4rr+e:<55wtqwrtt",
"2;::*;:4@55-;:t52:::*;:4@55-;:t52:::*;*<@55-;:t52:::*;;4@45-;:t5",
"51t:=tq:o:tte43451t:;tq:o:ttr43451t:;tq:o:ttq43441t:;tq:o:ttt434",
"@155-533et1,,rto@,55-4,3tt<3,qto@,55%533tr1,,rto@,55=533et1,,qto",
"5*::-%&*tt;:-::53*::-%&*tt;:-::53*::-*&*tt;:-::53*::-%&*tt;:-::5",
"4t*t#45*&:#:55tt4t*t#45*&:#:55tt4t*t#45*&:#:13tt4t*t#45*&:#:55tt",
"155;::::<5tt5%:5155;::-:<5qt5-:5155&::-:<5tq5-:5145;::%:<5tt5-:5",
"-=:*+ee5153=:*34-=-*+er1153=:*34-=:*+et5153=-*34-=:*+et5153=:*3<",
"1;%*&1e0#q4*;--53;%*&1e0#q4*;--53;%*&1e0#q4*;--53;%**1e0#q4*;--5",
"539eerte*qt8+55-539etrte*qtw+55-529etrte*qtw+55-539etree&qtw+55-",
"<O:*+:==t:555e3><O:*+:==e:555e3><O;*+:==e:555e3<<O:*+:==e:555e3>",
"5e,53.1t45:-*-*55e,53.1t45:-:=*55e,53.1t45:-:-*55e,53.1t45:-::*5",
"5te;::-:*:eett0@5te;::-:*:eett0@5te;-:-:*:ettt0@5te;::-:*:9ett0@",
"-:531:::5#54:*o5-:531;::5#54:*o5-:531:::5#54:*o5::531:::5#54:*o5",
"0r374*re5545weq#0r,74*re5545we9#0r374*re5545w9q#0r374:0e5545weq#",
"455::**;*+*::;51555:::*&*+*;:;51455:::*&*+*::;51455:::*&*+*::;51",
"4rr+e:<55rtqwrtt4r0+e:<55rtqwrtt4rr+e:<55rt9wrtt4rr+e:<55rtqwrtt",
"2:::*;:4X55%;:r52:::*;:4@55-;:t52:::*;:4@55-;-t52-::*;:4@55-;:t5",
"51t:;tq:o:ttt43451t:;tq:o:tet43451q:;tq:.:wtt43451t:;tq:o:ttt434",
"@,35-533tt1,,tro@,55-533tt1,,tro@,55-533tt1,,tto@,55-533tt1,,tto",
"3*::-%$:rt;--::53*::-%&*tt;:-::55*::-%&*tt;:-::53*::-%&*tt;:-::5",
"4t*t#45*&*#:55qt4t*t#44**:#:55tt5t*to44*&*@:51tt4t&t#41*&:o:15tt",
"155;::-:<5tt5-:5555;::-:<5tt5-:5155;::-:<5tt5-:5155;-:-:<5tt5-:5",
"-=:*+et5153=:*34-=:*+et5153;:*34-$:*+et5133$:*32-=:*+et5153=:*3<",
"3;%*&1e0#q4*;--53;%*&1e0#q4*;--53;%*&1e0#q4*;--55;%*&1e0#q4::--5",
"539etrtt*qtw+55-539etrte&qtw+55-539etrte*qtw+35-539etrte*qtw+55-",
"<O:&+:==e:555e3><O:*+*=$e:555e3><O:*+:==e:555e3><O:*+:==e:555e3>",
"5e,53.1t45:-;-*55e,53.,t45:-:-*55e,53.1t45:-:=*55e,43.1t55:-:-*5",
"5te;::-:::eett0@5te;::-:*:eett0@5te;::-:*:eett0@5te;::-:*:eett0@",
"-:531:::5#54::o5-:531:::5o52:*o5--531:::5#54:%o5-:531:::5#54::o5",
"0r364*re5545wet#rr374*re5545weq#0w374*rt5545eeq#0r374:we5543weqo",
"455:::*&*+*::;51451:::*&*+%::;51455:::*&*+*::;51455:::*&*+&::;51",
"4rr+e:<55rtqwrtt4rr+e:<51rtqwrtt4rr+e:<55rtqwrtt4rr+e:455rtqw0tt",
"2:::*;:4@55-;:t52:::*;:4@55-;:t12:::*;:4@55%;:t52:::*;:4@55-;:t5",
"51t:;qq:o:ttt45451t:;tq:o:ttt43451t:;t9:o:ttt43451t:;tq-o:ttt434",
"@,55-533tt1,,tto@,55-533tt13,tto@,55-533tt1,,tto@,55-533tt1,,tto",
"3*::-%&*tt;::::33*::-%&*tt;:-::53*::-%&*tt;:-::53*::-%&*tt;:-:*5",
"4t*t#45*&:#:55tt4t*q#43*&:#:55tt4t*t#45*&:#:53tt4t*t#45*&:#:55tt",
"155;::-;<5tt5-:5155;::-:<5tt5-:3155;::-:<5tt5-:5155;::-:<5tt5-:5",
"-=:*+et5153=:*34-=:*Oet5553=:*34-=:*+et3153=:*34-=:*+et5153=-*34"
};
