/* XPM */
static char *result[] = {
/* columns rows colors chars-per-pixel */
"64 64 206 2 ",
"   c #020203",
".  c #090403",
"X  c #030903",
"o  c #0C0A05",
"O  c #03020B",
"+  c #0B060B",
"@  c #050A0C",
"#  c #0A0A0B",
"$  c #130C05",
"%  c #110D0A",
"&  c #190C06",
"*  c #04120E",
"=  c #1C1202",
"-  c #13100D",
";  c #020213",
":  c #040A14",
">  c #03061A",
",  c #040B1C",
"<  c #090C1D",
"1  c #0A0813",
"2  c #051412",
"3  c #071B14",
"4  c #0B1C16",
"5  c #0C1D1A",
"6  c #0A1312",
"7  c #141413",
"8  c #1A1412",
"9  c #1F171B",
"0  c #1D1A1A",
"q  c #121E1D",
"w  c #261C14",
"e  c #22170D",
"r  c #0E201A",
"t  c #14221D",
"y  c #020423",
"u  c #0A0C23",
"i  c #060C27",
"p  c #0A1225",
"a  c #0A132B",
"s  c #07112D",
"d  c #10152E",
"f  c #060E35",
"g  c #0B1233",
"h  c #0B133E",
"j  c #0E1A37",
"k  c #121B3C",
"l  c #111933",
"z  c #0C2621",
"x  c #122523",
"c  c #152B29",
"v  c #13352E",
"b  c #1C332F",
"n  c #0F3C31",
"m  c #143C35",
"M  c #1B3B35",
"N  c #143C3C",
"B  c #1C3E38",
"V  c #2B2828",
"C  c #272524",
"Z  c #322C2A",
"A  c #243C38",
"S  c #283936",
"D  c #393635",
"F  c #1B4039",
"G  c #174238",
"H  c #0E1841",
"J  c #0F1B4E",
"K  c #0D1743",
"L  c #121B43",
"P  c #141B4B",
"I  c #171A46",
"U  c #0E1453",
"Y  c #1A1F57",
"T  c #141D59",
"R  c #171E58",
"E  c #1B244E",
"W  c #1B2454",
"Q  c #1B245A",
"!  c #1D2B5C",
"~  c #21245E",
"^  c #252E5B",
"/  c #1C2660",
"(  c #1D2B67",
")  c #1C2A71",
"_  c #242A65",
"`  c #232A6A",
"'  c #252669",
"]  c #273268",
"[  c #242C76",
"{  c #2A3374",
"}  c #283477",
"|  c #303776",
" . c #4D4A4B",
".. c #494543",
"X. c #514D4D",
"o. c #5B5655",
"O. c #595657",
"+. c #676363",
"@. c #746F6F",
"#. c #7C7475",
"$. c #847D7B",
"%. c #1D2A85",
"&. c #252D81",
"*. c #2B3485",
"=. c #2C3A84",
"-. c #2C368D",
";. c #2D3A8C",
":. c #253489",
">. c #313B85",
",. c #333D8D",
"<. c #2E3794",
"1. c #2D3B94",
"2. c #2D3D9D",
"3. c #273390",
"4. c #333A92",
"5. c #323E9B",
"6. c #353A9A",
"7. c #2D3CA4",
"8. c #2D3DAB",
"9. c #333EA3",
"0. c #3A3EA7",
"q. c #323DAB",
"w. c #333EB2",
"e. c #39428E",
"r. c #2C4295",
"t. c #2D429C",
"y. c #2D499A",
"u. c #344293",
"i. c #384493",
"p. c #33439B",
"a. c #3A459C",
"s. c #37499D",
"d. c #2D42A3",
"f. c #2C44AB",
"g. c #3343A4",
"h. c #3843A6",
"j. c #3A49A4",
"k. c #3444AB",
"l. c #3B46AB",
"z. c #3A49AB",
"x. c #374BA5",
"c. c #2E48B9",
"v. c #3444B2",
"b. c #3B45B5",
"n. c #334CBC",
"m. c #3648BA",
"M. c #404D9E",
"N. c #444A8C",
"B. c #4048BC",
"V. c #344DCC",
"C. c #384AC6",
"Z. c #3453C6",
"A. c #3553CC",
"S. c #395ACD",
"D. c #3956CC",
"F. c #354ED2",
"G. c #3C4ED2",
"H. c #324EDC",
"J. c #2E56D1",
"K. c #3653D3",
"L. c #3952D5",
"P. c #3659D3",
"I. c #3553DC",
"U. c #3952DC",
"Y. c #395AD5",
"T. c #3C53E4",
"R. c #3956E9",
"E. c #4258DD",
"W. c #847F84",
"Q. c #8B8585",
"!. c #918C8B",
"~. c #97918F",
"^. c #9C9997",
"/. c #9F9998",
"(. c #999394",
"). c #A69F9D",
"_. c #A79FA0",
"`. c #A9A5A5",
"'. c #BDB5B5",
"]. c #BCBAB4",
"[. c #B6ADB1",
"{. c #C4BDBB",
"}. c #C9BEBC",
"|. c #CAC0BE",
" X c #C6C1BA",
".X c #CABFC0",
"XX c #CDC4C3",
"oX c #C9C5C2",
"OX c #D1C5C5",
"+X c #D2C9C7",
"@X c #D3CAC9",
"#X c #D1C7C8",
"$X c #D8D1CE",
"%X c #D0CBD0",
"&X c #D5D2D0",
"*X c #DCD4D4",
"=X c #DFDBDA",
"-X c #E0DBDB",
";X c #E8E2E1",
":X c #F0EFEE",
">X c #F6F3EF",
",X c #F5F5F1",
"<X c #F9F7F4",
"1X c #F9F9F7",
"2X c #FCFDFA",
"3X c None",
/* pixels */
"3X3X3X3X3X3X3X3X3X3X3X3X3X3X3X3X3X3X3X3X3X3X3X3X3X3X3X3X3X3X3X3X3X3X3X3X3X3X3X3X3X3X3X3X3X3X3X3X3X3X3X3X3X3X3X3X3X3X3X3X3X3X3X3X",
"3X3X3X3X3X3X3X3X3X3X3X3X3X3X3X3X3X3X3X3X3X3X3X3X3X3X3X3X3X3X3X3X3X3X3X3X3X3X3X3X3X3X3X3X3X3X3X3X3X3X3X3X3X3X3X3X3X3X3X3X3X3X3X3X",
"3X3X3X3X3X3X3X3X3X3X3X3X3X3X3X3X3X3X3X3X3X3X3X3X3X3X3X3X3X3X3X3X3X3X3X3X3X3X3X3X3X3X3X3X3X3X3X3X3X3X3X3X3X3X3X3X3X3X3X3X3X3X3X3X",
"3X3X3X3X3X3X3X3X3X3X3X3X3X3X3X3X3X3X3X3X3X3X3X3X3X3X3X3X3X3X3X3X3X3X3X3X3X3X3X3X3X3X3X3X3X3X3X3X3X3X3X3X3X3X3X3X3X3X3X3X3X3X3X3X",
"3X3X3X3X3X3X3X3X3X3X3X3X3X3X3X3X3X3X3X3X3X3X3X3X3X3X3X3X3X3X3X3X3X3X3X3X3X3X3X3X3X3X3X3X3X3X3X3X3X3X3X3X3X3X3X3X3X3X3X3X3X3X3X3X",
"3X3X3X3X3X3X3X3X3X3X3X3X3X3X3X3X3X3X3X3X3X3X3X3X3X3X3X3X3X3X3X3X3X3X3X3X3X3X3X3X3X3X3X3X3X3X3X3X3X3X3X3X3X3X3X3X3X3X3X3X3X3X3X3X",
"3X3X3X3X3X3X3X3X3X3X3X3X3X3X3X3X3X3X3X3X3X3X3X3X3X3X3X3X3X3X3X3X3X3X3X3X3X3X3X3X3X3X3X3X3X3X3X3X3X3X3X3X3X3X3X3X3X3X3X3X3X3X3X3X",
"3X3X3X3X3X3X3X3X3X3X3X3X3X3X3X3X3X3X3X3X3X3X3X3X3X3X3X3X3X3X3X3X3X3X3X3X3X3X3X3X3X3X3X3X3X3X3X3X3X3X3X3X3X3X3X3X3X3X3X3X3X3X3X3X",
"3X3X3X3X3X3X3X3X3X3X3X3X3X3X3X3X3X3X3X3X3X3X3X3X3X3X3X3X3X3X3X3X3X3X3X3X3X3X3X3X3X3X3X3X3X3X3X3X3X3X3X3X3X3X3X3X3X3X3X3X3X3X3X3X",
"3X3X3X3X3X3X3X3X3X3X3X3X3X3X3X3X3X3X3X3X3X3X3X3X3X3X3X3X3X3X3X3X3X3X3X3X3X3X3X3X3X3X3X3X3X3X3X3X3X3X3X3X3X3X3X3X3X3X3X3X3X3X3X3X",
"3X3X3X3X3X3X3X3X3X3X3X3X3X3X3X3X3X3X3X3X3X3X3X3X3X3X3X3X3X3X3X3X3X3X3X3X3X3X3X3X3X3X3X3X3X3X3X3X3X3X3X3X3X3X3X3X3X3X3X3X3X3X3X3X",
"3X3X3X3X3X3X3X3X3X3X3X3X3X3X3X3X3X3X3X3X3X3X3X3X3X3X3X3X3X3X3X3X3X3X3X3X3X3X3X3X3X3X3X3X3X3X3X3X3X3X3X3X3X3X3X3X3X3X3X3X3X3X3X3X",
"3X3X3X3X3X3X3X3X3X3X3X3X3X3X3X3X3X3X3X3X3X3X3X3X3X3X3X3X3X3X3X3X3X3X3X3X3X3X3X3X3X3X3X3X3X3X3X3X3X3X3X3X3X3X3X3X3X3X3X3X3X3X3X3X",
"3X3X3X3X3X3X3X3X3X3X3X3X3X3X3X3X3X3X3X3X3X3X3X3X3X3X3X3X3X3X3X3X3X3X3X3X3X3X3X3X3X3X3X3X3X3X3X3X3X3X3X3X3X3X3X3X3X3X3X3X3X3X3X3X",
"3X3X3X3X3X3X3X3X3X3X3X3X3X3X3X3X3X3X3X3X3X3X3X3X3X3X3X3X3X3X3X3X3X3X3X3X3X3X3X3X3X3X3X3X3X3X3X3X3X3X3X3X3X3X3X3X3X3X3X3X3X3X3X3X",
"3X3X3X3X3X3X3X3X3X3X3X3X3X3X3X3X3X3X3X3X3X3X3X3X3X3X3X3X3X3X3X3X3X3X3X3X3X3X3X3X3X3X3X3X3X3X3X3X3X3X3X3X3X3X3X3X3X3X3X3X3X3X3X3X",
"3X3X3X3X3X3X3X3X3X3X3X3X3X3X3X3X3X3X3X3X3X3X3X3X3X3X3X3X3X3X3X3X3X3X3X3X3X3X3X3X3X3X3X3X3X3X3X3X3X3X3X3X3X3X3X3X3X3X3X3X3X3X3X3X",
"3X3X3X3X3X3X3X3X3X3X3X3X3X3X3X3X3X3X3X3X3X3X3X3X3X3X3X3X3X3X3X3X3X3X3X3X3X3X3X3X3X3X3X3X3X3X3X3X3X3X3X3X3X3X3X3X3X3X3X3X3X3X3X3X",
"3X3X3X3X3X3X3X3X3X3X3X3X3X3X3X3X3X3X3X3X3X3X3X3X3X3X3X3X3X3X3X3X3X3X3X3X3X3X3X3X3X3X3X3X3X3X3X3X3X3X3X3X3X3X3X3X3X3X3X3X3X3X3X3X",
"3X3X3X3X3X3X3X3X3X3X3X3X3X3X3X3X3X3X3X3X3X3X3X3X3X3X3X3X3X3X3X3X3X3X3X3X3X3X3X3X3X3X3X3X3X3X3X3X3X3X3X3X3X3X3X3X3X3X3X3X3X3X3X3X",
"3X3X3X3X3X3X3X3X3X3X3X3X3X3X3X3X3X3X3X3X3X3X3X3X3X3X3X3X3X3X3X3X3X3X3X3X3X3X3X3X3X3X3X3X3X3X3X3X3X3X3X3X3X3X3X3X3X3X3X3X3X3X3X3X",
"3X3X3X3X3X3X3X3X3X3X3X3X3X3X3X3X3X3X3X3X3Xw >   X     .   X           O       O   & 3X3X3X3X3X3X3X3X3X3X3X3X3X3X3X3X3X3X3X3X3X3X",
"3X3X3X3X3X3X3X3X3X3X3X3X3X3X3X3X3X3X            +   .                         O @ . X O   3X3X3X3X3X3X3X3X3X3X3X3X3X3X3X3X3X3X3X",
"3X3X3X3X3X3X3X3X3X3X3X3X3X3X3X3X3X      .     ^ &.:.f.S.P.A.P.U.U.U.U.I.I.v.3./     O   O @ 3X3X3X3X3X3X3X3X3X3X3X3X3X3X3X3X3X3X",
"3X3X3X3X3X3X3X3X3X3X3X3X3X3X3XO O O . g Y ) c.L.F.K.K.K.K.L.K.K.K.K.K.K.F.D.A.H.U.x.E u     . - 3X3X3X3X3X3X3X3X3X3X3X3X3X3X3X3X",
"3X3X3X3X3X3X3X3X3X3X3X3X3X3X;     : J v.T.T.H.I.K.P.K.K.K.K.K.K.K.K.K.K.K.H.F.Z.C.q.l.4.j       1 3X3X3X3X3X3X3X3X3X3X3X3X3X3X3X",
"3X3X3X3X3X3X3X3X3X3X3X3X3X@     h C.G.A.P.D.Z.Z.V.K.K.K.K.K.K.K.K.K.K.K.K.P.K.I.K.c.d.g.p.W O @ +   3X3X3X3X3X3X3X3X3X3X3X3X3X3X",
"3X3X3X3X3X3X3X3X3X3X3X= O     Q C.R.T.K.U.F.L.G.L.L.K.K.K.K.K.A.K.K.K.K.K.A.Z.A.G.n.r.t.2.l._       3X3X3X3X3X3X3X3X3X3X3X3X3X3X",
"3X3X3X3X3X3X3X3X3X3X3X#     R E.K.J.A.K.K.K.K.I.K.K.P.P.K.K.P.L.L.K.A.V.Z.F.c.d.d.d.k.g.q.u.h ,     3X3X3X3X3X3X3X3X3X3X3X3X3X3X",
"3X3X3X3X3X3X3X3X3X3X3XO   P C.T.Z.P.K.A.V.A.K.Y.P.I.U.K.F.V.V.c.f.f.d.d.2.u.s.g.g.9.7.2.k.h.H   O O         . w 3X3X3X3X3X3X3X3X",
"3X3X3X3X3X3X3X3X3X3X3X.   =.P.I.U.I.T.F.V.c.f.f.f.f.g.g.p.g.t.g.g.g.g.0.g.v.q.9.2.t.p.g.-.Y @   ;   ; O O   ;     w 3X3X3X3X3X3X",
"3X3X3X3X3X3X3X3X3X3X3X    3.R.Z.n.f.x.d.g.a.;.:.<.-.1.-.-.-.-.Q P L P P P =.=.;.1.g.m.` :           p { 4.Y   O     3X3X3X3X3X3X",
"3X3X3X3X3X3X3X3X3X3X;     *.n.r.b.0.4.<.~ H ;                                   ; h Y u         ~ -.k.k.r.h.,.O   # 8 3X3X3X3X3X",
"3X3X3X3X3X3X3X3X3X3X    g *.v.*._ K > ; ; O                   O             O       O O   O / h.d.5.7.k.d.d.f.*.O   O 3X3X3X3X3X",
"3X3X3X3X3X3X3X3X3X3XO > | l.^ >     .             O O O   O O     ; ; O . o               O a { x.g.g.t.p.p.2.k.`   @   3X3X3X3X",
"3X3X3X3X3X3X3X3X3X3X  o O s   O +         O ; s k k H H K K K L J { >.Y L U k > O O   . O     > _ g.d.7.t.g.h.q.0.X   ; w 3X3X3X",
"3X3X3X3X3X3X3X3X3X3X  .   .       O , s k ] =.5.l.k.k.k.k.k.g.p.s.d.d.g.p.h.i.;.4.{ a           O P 4.g.d.g.p.7.h.f       3X3X3X",
"3X3X3X3X3X3X3X3X3X& : O   O ; , K ) 1.B.0.k.2.1.t.5.9.5.9.9.9.9.7.5.d.7.9.8.g.d.d.k.2.{ f O O O     f <.d.p.p.k.t.{   @   3X3X3X",
"3X3X3X3X3X3X3X3X3Xo       , Q | p.x.) E a ; O O ; O O O O O O O O O O O O O j ) M.h.8.h.,.k O O   O : } k.d.g.t.e.> + O   3X3X3X",
"3X3X3X3X3X3X3X3X. O O   a ,.v.p.[ P ;               O O O   O             O     y T p.p.q.a.l O       K p.d.k.l.f       3X3X3X3X",
"3X3X3X3X3X3X3X3Xo     a ,.q.p.W           X * q 5 5 3 3 3 3 3 r 5 4 r 4 @ X O     f 0.p.k.k.P X .   . < =.k.7.>.1   O Z 3X3X3X3X",
"3X3X3X3X3X3X3XO   X @ P 4.1.d     . O * c v v G F F N N N N N v F F M M m c @ +   O Q v.r.v.,.< O       T z.k./ . O @ 3X3X3X3X3X",
"3X3X3X3X3X3X3XO     > } b.P       X r F G m M 5 6 @ X           t M n G M N n @ .   : { k.2.p.Q O       y =.-.<   O 3X3X3X3X3X3X",
"3X3X3X3X3X3X3XO O   > } z.J O   # S A m M S 2 @ V Z D ~././.~.X.  3 m m M m m 3       j 2.d.l._ O O       p >     . 3X3X3X3X3X3X",
"3X3X3X3X3X3X  O O   E z.9.4.@   @ # @ O   .   @. XXX}.+XOX@X@X'.9   A m M m F c :     : 6.f.v.` O     O           3X3X3X3X3X3X3X",
"3X3X3X3X3X3X        Y m.;.' 6       X.!.Q.V ~.+XXX|.@X}.OXOXXX'.7   M n M M m B 5     1 5.d.k.` O             % 3X3X3X3X3X3X3X3X",
"3X3X3X3X3X3X        P -.a #  .^.&X{.XX@X+X}.XX XXXXX|.@X}.oX}.`.- O v F m B m F 5   O > 6.t.k.` O             3X3X3X3X3X3X3X3X3X",
"3X3X3X3X3X3X3XO     O     Q.<X1X2X1X#XoX}.XXXXXX+XOX}.XX{...C .   2 v F G m m B z   O u u.d.f._ O O           3X3X3X3X3X3X3X3X3X",
"3X3X3X3X3X3X3X:   #      .-X1X,X=X@X#XXXOX.XOX@XXX{.OXOX[.D     q b v m G m m M x     : 6.f.z.` O   O   - 3X3X3X3X3X3X3X3X3X3X3X",
"3X3X3X3X3X3X3X3X. o     O.;X:X%XXXXX*X#...'.@X-X;XXXOX.X#XXX). .  4 A M m B b 4 O     : 9.g.j.Q :       3X3X3X3X3X3X3X3X3X3X3X3X",
"3X3X3X3X3X3X3X3X3X      o.$XXX#XXX*XO.     X1X2X1X*XXXXXoXXXXX.X0   c b x x 6         P q.a.! u         3X3X3X3X3X3X3X3X3X3X3X3X",
"3X3X3X3X3X3X3X3X3X3XO   ..}.OXOX X|.X.  Q.<X2X,X@XXXXXOXXX+XXX].7   .   O X       y _ m.i.I           3X3X3X3X3X3X3X3X3X3X3X3X3X",
"3X3X3X3X3X3X3X3X3X3X3X    W.@X@X].!.- 7 !.,X1X@X+XXXXXXXXX X@X X8     X @ 1 . . u ] j.5.k O @ O     o 3X3X3X3X3X3X3X3X3X3X3X3X3X",
"3X3X3X3X3X3X3X3X3X3X3X3X  +  .+.7     O.+XoX@XOXXX|.@XXXXXXX@X[.7   N.<.} v.-.i.0.,.L I ;       . o 3X3X3X3X3X3X3X3X3X3X3X3X3X3X",
"3X3X3X3X3X3X3X3X3X3X3X3X3X3X    .     D /.+XOX}.XXXX|.oX+X@X).C O ] 1.7.x.y.d.3.Q y 1 X O X   o 3X3X3X3X3X3X3X3X3X3X3X3X3X3X3X3X",
"3X3X3X3X3X3X3X3X3X3X3X3X3X3X3X3X3X      +.{.OX#X+X+X|.|.oX$.  X W g.p.u.%.[ _ p   .       O ; 3X3X3X3X3X3X3X3X3X3X3X3X3X3X3X3X3X",
"3X3X3X3X3X3X3X3X3X3X3X3X3X3X3X3X3X3X3X=   7 o.(.`.+.0 0 0   #   O : , 1 O   X   + O O % . $ 3X3X3X3X3X3X3X3X3X3X3X3X3X3X3X3X3X3X",
"3X3X3X3X3X3X3X3X3X3X3X3X3X3X3X3X3X3X3X3X3Xe o o     O . @ @ . .     X       . o . $ 3X3X3X3X3X3X3X3X3X3X3X3X3X3X3X3X3X3X3X3X3X3X",
"3X3X3X3X3X3X3X3X3X3X3X3X3X3X3X3X3X3X3X3X3X3X3X3X3X3X3X3X3X3X3X3X3X3X3X3X3X3X3X3X3X3X3X3X3X3X3X3X3X3X3X3X3X3X3X3X3X3X3X3X3X3X3X3X",
"3X3X3X3X3X3X3X3X3X3X3X3X3X3X3X3X3X3X3X3X3X3X3X3X3X3X3X3X3X3X3X3X3X3X3X3X3X3X3X3X3X3X3X3X3X3X3X3X3X3X3X3X3X3X3X3X3X3X3X3X3X3X3X3X",
"3X3X3X3X3X3X3X3X3X3X3X3X3X3X3X3X3X3X3X3X3X3X3X3X3X3X3X3X3X3X3X3X3X3X3X3X3X3X3X3X3X3X3X3X3X3X3X3X3X3X3X3X3X3X3X3X3X3X3X3X3X3X3X3X",
"3X3X3X3X3X3X3X3X3X3X3X3X3X3X3X3X3X3X3X3X3X3X3X3X3X3X3X3X3X3X3X3X3X3X3X3X3X3X3X3X3X3X3X3X3X3X3X3X3X3X3X3X3X3X3X3X3X3X3X3X3X3X3X3X",
"3X3X3X3X3X3X3X3X3X3X3X3X3X3X3X3X3X3X3X3X3X3X3X3X3X3X3X3X3X3X3X3X3X3X3X3X3X3X3X3X3X3X3X3X3X3X3X3X3X3X3X3X3X3X3X3X3X3X3X3X3X3X3X3X",
"3X3X3X3X3X3X3X3X3X3X3X3X3X3X3X3X3X3X3X3X3X3X3X3X3X3X3X3X3X3X3X3X3X3X3X3X3X3X3X3X3X3X3X3X3X3X3X3X3X3X3X3X3X3X3X3X3X3X3X3X3X3X3X3X"
};
