/* XPM */
static char *result[] = {
/* columns rows colors chars-per-pixel */
"64 64 161 2 ",
"   c #020202",
".  c #0A0503",
"X  c #070806",
"o  c #0B0A06",
"O  c #03040A",
"+  c #09050B",
"@  c #050A0B",
"#  c #0A0A0C",
"$  c #150A01",
"%  c #120F0E",
"&  c #05120F",
"*  c #13100F",
"=  c #1A150F",
"-  c #070D10",
";  c #0A0C12",
":  c #0E0F19",
">  c #051311",
",  c #0D1115",
"<  c #0C1915",
"1  c #0E1118",
"2  c #031C1A",
"3  c #0C1D19",
"4  c #151313",
"5  c #191514",
"6  c #1E1C15",
"7  c #13151A",
"8  c #16191D",
"9  c #1F1E1E",
"0  c #2C1E07",
"q  c #21180E",
"w  c #2A1C09",
"e  c #201D1E",
"r  c #0A231E",
"t  c #11221F",
"y  c #2C291E",
"u  c #161D23",
"i  c #1A1C22",
"p  c #132622",
"a  c #1D2225",
"s  c #132A25",
"d  c #1E2329",
"f  c #152B28",
"g  c #1A2929",
"h  c #0B3A2D",
"j  c #15342D",
"k  c #1A332E",
"l  c #15382F",
"z  c #0F3C32",
"x  c #133730",
"c  c #1C3531",
"v  c #143C34",
"b  c #1B3B35",
"n  c #1A3F38",
"m  c #212224",
"M  c #22252B",
"N  c #25292E",
"B  c #2D2B2B",
"V  c #31312D",
"C  c #272C35",
"Z  c #2A2E35",
"A  c #292F3A",
"S  c #233533",
"D  c #2C3136",
"F  c #243935",
"G  c #2E343B",
"H  c #223E39",
"J  c #283B38",
"K  c #3A3435",
"L  c #32353B",
"P  c #35393F",
"I  c #3F3F3F",
"U  c #403D3E",
"Y  c #114135",
"T  c #194237",
"R  c #164239",
"E  c #23443D",
"W  c #2C3940",
"Q  c #313741",
"!  c #353B43",
"~  c #393D44",
"^  c #3A3D4A",
"/  c #3C4347",
"(  c #3C434B",
")  c #3E4654",
"_  c #3F4955",
"`  c #3F5157",
"'  c #494445",
"]  c #4E4A47",
"[  c #41464E",
"{  c #41484F",
"}  c #4C4A4A",
"|  c #414652",
" . c #434A55",
".. c #484A53",
"X. c #444D5A",
"o. c #494E5A",
"O. c #46515A",
"+. c #4A525C",
"@. c #52575F",
"#. c #5D5A5B",
"$. c #635D5D",
"%. c #65615E",
"&. c #4D5662",
"*. c #515A64",
"=. c #545E6A",
"-. c #585E6C",
";. c #57616D",
":. c #5B646E",
">. c #576675",
",. c #5C6572",
"<. c #5E6874",
"1. c #6A6462",
"2. c #656A6F",
"3. c #6B6968",
"4. c #616775",
"5. c #616A76",
"6. c #616C7A",
"7. c #677076",
"8. c #7F7676",
"9. c #7F7C7C",
"0. c #86817F",
"q. c #8B8684",
"w. c #8D8887",
"e. c #878589",
"r. c #948C8C",
"t. c #9D9696",
"y. c #9F989A",
"u. c #A09A97",
"i. c #A39B9C",
"p. c #A2A2A2",
"a. c #ACA4A5",
"s. c #ABA8A7",
"d. c #B3ABA6",
"f. c #B6AFB0",
"g. c #BEB5B4",
"h. c #BFBAB9",
"j. c #C2B7B7",
"k. c #C4BCBB",
"l. c #C8BDBD",
"z. c #CAC1BF",
"x. c #D8C8BE",
"c. c #C6C5C1",
"v. c #CDC3C2",
"b. c #CFCAC7",
"n. c #CEC6C8",
"m. c #D1C6C5",
"M. c #D2C9C7",
"N. c #D1C6C8",
"B. c #D4CBCA",
"V. c #D8CCCC",
"C. c #D8D2CF",
"Z. c #DDD6D3",
"A. c #DCDBD7",
"S. c gainsboro",
"D. c #E4E3E1",
"F. c #EDEBEA",
"G. c #F7F4F4",
"H. c #FAF7F6",
"J. c #FAF8F5",
"K. c #FDFDFB",
"L. c None",
/* pixels */
"L.L.L.L.L.L.L.L.L.L.L.L.L.L.L.L.L.L.L.L.L.L.L.L.L.L.L.L.L.L.L.L.L.L.L.L.L.L.L.L.L.L.L.L.L.L.L.L.L.L.L.L.L.L.L.L.L.L.L.L.L.L.L.L.",
"L.L.L.L.L.L.L.L.L.L.L.L.L.L.L.L.L.L.L.L.L.L.L.L.L.L.L.L.L.L.L.L.L.L.L.L.L.L.L.L.L.L.L.L.L.L.L.L.L.L.L.L.L.L.L.L.L.L.L.L.L.L.L.L.",
"L.L.L.L.L.L.L.L.L.L.L.L.L.L.L.L.L.L.L.L.L.L.L.L.L.L.L.L.L.L.L.L.L.L.L.L.L.L.L.L.L.L.L.L.L.L.L.L.L.L.L.L.L.L.L.L.L.L.L.L.L.L.L.L.",
"L.L.L.L.L.L.L.L.L.L.L.L.L.L.L.L.L.L.L.L.L.L.L.L.L.L.L.L.L.L.L.L.L.L.L.L.L.L.L.L.L.L.L.L.L.L.L.L.L.L.L.L.L.L.L.L.L.L.L.L.L.L.L.L.",
"L.L.L.L.L.L.L.L.L.L.L.L.L.L.L.L.L.L.L.L.L.L.L.L.L.L.L.L.L.L.L.L.L.L.L.L.L.L.L.L.L.L.L.L.L.L.L.L.L.L.L.L.L.L.L.L.L.L.L.L.L.L.L.L.",
"L.L.L.L.L.L.L.L.L.L.L.L.L.L.L.L.L.L.L.L.L.L.L.L.L.L.L.L.L.L.L.L.L.L.L.L.L.L.L.L.L.L.L.L.L.L.L.L.L.L.L.L.L.L.L.L.L.L.L.L.L.L.L.L.",
"L.L.L.L.L.L.L.L.L.L.L.L.L.L.L.L.L.L.L.L.L.L.L.L.L.L.L.L.L.L.L.L.L.L.L.L.L.L.L.L.L.L.L.L.L.L.L.L.L.L.L.L.L.L.L.L.L.L.L.L.L.L.L.L.",
"L.L.L.L.L.L.L.L.L.L.L.L.L.L.L.L.L.L.L.L.L.L.L.L.L.L.L.L.L.L.L.L.L.L.L.L.L.L.L.L.L.L.L.L.L.L.L.L.L.L.L.L.L.L.L.L.L.L.L.L.L.L.L.L.",
"L.L.L.L.L.L.L.L.L.L.L.L.L.L.L.L.L.L.L.L.L.L.L.L.L.L.L.L.L.L.L.L.L.L.L.L.L.L.L.L.L.L.L.L.L.L.L.L.L.L.L.L.L.L.L.L.L.L.L.L.L.L.L.L.",
"L.L.L.L.L.L.L.L.L.L.L.L.L.L.L.L.L.L.L.L.L.L.L.L.L.L.L.L.L.L.L.L.L.L.L.L.L.L.L.L.L.L.L.L.L.L.L.L.L.L.L.L.L.L.L.L.L.L.L.L.L.L.L.L.",
"L.L.L.L.L.L.L.L.L.L.L.L.L.L.L.L.L.L.L.L.L.L.L.L.L.L.L.L.L.L.L.L.L.L.L.L.L.L.L.L.L.L.L.L.L.L.L.L.L.L.L.L.L.L.L.L.L.L.L.L.L.L.L.L.",
"L.L.L.L.L.L.L.L.L.L.L.L.L.L.L.L.L.L.L.L.L.L.L.L.L.L.L.L.L.L.L.L.L.L.L.L.L.L.L.L.L.L.L.L.L.L.L.L.L.L.L.L.L.L.L.L.L.L.L.L.L.L.L.L.",
"L.L.L.L.L.L.L.L.L.L.L.L.L.L.L.L.L.L.L.L.L.L.L.L.L.L.L.L.L.L.L.L.L.L.L.L.L.L.L.L.L.L.L.L.L.L.L.L.L.L.L.L.L.L.L.L.L.L.L.L.L.L.L.L.",
"L.L.L.L.L.L.L.L.L.L.L.L.L.L.L.L.L.L.L.L.L.L.L.L.L.L.L.L.L.L.L.L.L.L.L.L.L.L.L.L.L.L.L.L.L.L.L.L.L.L.L.L.L.L.L.L.L.L.L.L.L.L.L.L.",
"L.L.L.L.L.L.L.L.L.L.L.L.L.L.L.L.L.L.L.L.L.L.L.L.L.L.L.L.L.L.L.L.L.L.L.L.L.L.L.L.L.L.L.L.L.L.L.L.L.L.L.L.L.L.L.L.L.L.L.L.L.L.L.L.",
"L.L.L.L.L.L.L.L.L.L.L.L.L.L.L.L.L.L.L.L.L.L.L.L.L.L.L.L.L.L.L.L.L.L.L.L.L.L.L.L.L.L.L.L.L.L.L.L.L.L.L.L.L.L.L.L.L.L.L.L.L.L.L.L.",
"L.L.L.L.L.L.L.L.L.L.L.L.L.L.L.L.L.L.L.L.L.L.L.L.L.L.L.L.L.L.L.L.L.L.L.L.L.L.L.L.L.L.L.L.L.L.L.L.L.L.L.L.L.L.L.L.L.L.L.L.L.L.L.L.",
"L.L.L.L.L.L.L.L.L.L.L.L.L.L.L.L.L.L.L.L.L.L.L.L.L.L.L.L.L.L.L.L.L.L.L.L.L.L.L.L.L.L.L.L.L.L.L.L.L.L.L.L.L.L.L.L.L.L.L.L.L.L.L.L.",
"L.L.L.L.L.L.L.L.L.L.L.L.L.L.L.L.L.L.L.L.L.L.L.L.L.L.L.L.L.L.L.L.L.L.L.L.L.L.L.L.L.L.L.L.L.L.L.L.L.L.L.L.L.L.L.L.L.L.L.L.L.L.L.L.",
"L.L.L.L.L.L.L.L.L.L.L.L.L.L.L.L.L.L.L.L.L.L.L.L.L.L.L.L.L.L.L.L.L.L.L.L.L.L.L.L.L.L.L.L.L.L.L.L.L.L.L.L.L.L.L.L.L.L.L.L.L.L.L.L.",
"L.L.L.L.L.L.L.L.L.L.L.L.L.L.L.L.L.L.L.L.L.L.L.L.L.L.L.L.L.L.L.L.L.L.L.L.L.L.L.L.L.L.L.L.L.L.L.L.L.L.L.L.L.L.L.L.L.L.L.L.L.L.L.L.",
"L.L.L.L.L.L.L.L.L.L.L.L.L.L.L.L.L.L.L.L.L.L.L.L.O         O                 . L.L.L.L.L.L.L.L.L.L.L.L.L.L.L.L.L.L.L.L.L.L.L.L.L.",
"L.L.L.L.L.L.L.L.L.L.L.L.L.L.L.L.L.L.L.L.      O                           #   O O O   $ L.L.L.L.L.L.L.L.L.L.L.L.L.L.L.L.L.L.L.L.",
"L.L.L.L.L.L.L.L.L.L.L.L.L.L.L.L.L.  O O   O       O Z ^ ~ ^ ^ ~ ! ^ ^ ! / a     X     4   q L.L.L.L.L.L.L.L.L.L.L.L.L.L.L.L.L.L.",
"L.L.L.L.L.L.L.L.L.L.L.L.L.L.L.L.. O   .   X N @.7.:.:.7.<.<.<.,.,.,.<.<.>.6.6.*.D d O O O     L.L.L.L.L.L.L.L.L.L.L.L.L.L.L.L.L.",
"L.L.L.L.L.L.L.L.L.L.L.L.L.L.L.O O     B 2.,.<.5.4.<.<.<.<.<.<.<.<.<.<.5.6.<.<.,.,.+.X.N         L.L.L.L.L.L.L.L.L.L.L.L.L.L.L.L.",
"L.L.L.L.L.L.L.L.L.L.L.L.L.L..     Q -.-.6.6.,.<.<.<.<.<.<.<.<.<.<.<.<.<.>.<.<.5.;.+.(  .L O   O X L.L.L.L.L.L.L.L.L.L.L.L.L.L.L.",
"L.L.L.L.L.L.L.L.L.L.L.L.L.      | <.>.6.>.<.>.<.<.<.<.<.<.<.<.<.<.<.<.<.4.<.,.<.,.+.O._  .! 7 X     L.L.L.L.L.L.L.L.L.L.L.L.L.L.",
"L.L.L.L.L.L.L.L.L.L.L.L.#   1 &.,.4.<.,.,.4.<.,.<.<.<.<.5.<.<.<.<.<.>.<.<.<.<.=.=.*.)  .o.o.L X O   L.L.L.L.L.L.L.L.L.L.L.L.L.L.",
"L.L.L.L.L.L.L.L.L.L.L.  X + G 4.<.4.,.,.4.,.<.<.<.:.:.<.:.5.,.<.;.=.;.&. . . . .X._ O.X.|  .8       5 L.L.L.L.L.L.L.L.L.L.L.L.L.",
"L.L.L.L.L.L.L.L.L.L.L.X   ~ 5.5.,.,.<.;.4.;.,.;.=.;.:.;.*.X.X.O._ ) _ ` X.X. .X.O. . .X.X.( ;             .   # L.L.L.L.L.L.L.L.",
"L.L.L.L.L.L.L.L.L.L.L.    [ 7.<.<.,.,.&.&._  .X.O.X. .X.O.O.o.( ( ) ( ^ ( X.+.X.X. .X.( a 4     .     + 7 . X O -   L.L.L.L.L.L.",
"L.L.L.L.L.L.L.L.L.L.%     [ ,.*.O.X. .X.( [ Z M M d M M M d m @         @ i M N Z ( | M   X     O 8 ! o.O.^ Z   O X L.L.L.L.L.L.",
"L.L.L.L.L.L.L.L.L.L.    O ^ +.X.X.( Z N   #   . O                                   O       : N ( o.) ) _  .( i     @ L.L.L.L.L.",
"L.L.L.L.L.L.L.L.L.L.  O Z o.[ i # +                                                       O D +.)  .( X. . ._  .,   X L.L.L.L.L.",
"L.L.L.L.L.L.L.L.L.L.O   M G 7 X                             O     7 7                         M  ... . .X. .X._ (       L.L.L.L.",
"L.L.L.L.L.L.L.L.L.L.      X               : u C ( ( ( ( ( ( ^ / /  .{ ~ ~ ~ ~ i 7 7 X           4 / { X. . .X. .(     X L.L.L.L.",
"L.L.L.L.L.L.L.L.L.L.-             % N ! W X.o.&. .` X._ ` O._ X. .X.X.O. .X.X.X.o. .M ;     O     O P  .X.X. .` X.N     L.L.L.L.",
"L.L.L.L.L.L.L.L.L.+         - i J ` X.X.Q d d d d d d d d m m m a a a i a i ~  .X.| &. .Z O         @ ^  . .X.|  .8   O   L.L.L.",
"L.L.L.L.L.L.L.L.*     o O i | | &./ 7 @ O                                   O 7 C  . .X.O.G     O   O C  .X. . .C       m L.L.L.",
"L.L.L.L.L.L.L.L.+     @ A X.o./ 7 O               .                               8  .) | o.i O       i ..X. .@.;       L.L.L.L.",
"L.L.L.L.L.L.L.9 O   . 4  .X.~ @ X       @ > r l h h l l l l S k k j l l r &       # [  .X.| ^ ;         C o.{ Z   X   L.L.L.L.L.",
"L.L.L.L.L.L.L.O     + Z +.C         & s b T T z S t & # % ; > 2 j n v v T b 3 O     i +.X.| ^ 7   .   X N o. .M     o L.L.L.L.L.",
"L.L.L.L.L.L.L.      O Q o.M       , E j v c k &     o B B B B * - s j E v R x ;     X Z  . .o.Z           ~ d @   X L.L.L.L.L.L.",
"L.L.L.L.L.L.L.      i ( &.M     & g r t 3 t   * 0.w.0.V.z.m.M.r.# O H l n v b 3       1 (  .o.Z                 .   L.L.L.L.L.L.",
"L.L.L.L.L.L.        N +.| ..8 O             K f.B.B.V.z.m.z.m.j.5   H v T v n l >     ; |  .o.A             X X L.L.L.L.L.L.L.L.",
"L.L.L.L.L.L.    .   N +.C O   V 1.$.t.k.z.8.k.v.v.v.M.z.m.z.z.k.5   b v v F v T p     ; | | X.A             X   L.L.L.L.L.L.L.L.",
"L.L.L.L.L.L.        O ; O I p.S.K.F.B.z.B.z.M.v.v.N.z.M.z.z.e.B +   H v v b n R r     - |  .o.A           O   L.L.L.L.L.L.L.L.L.",
"L.L.L.L.L.L.L.          X p.J.K.K.F.N.v.v.V.l.l.z.M.M.M.w.*     O p v R c n z Y r     ; ..) X.Z       +   O L.L.L.L.L.L.L.L.L.L.",
"L.L.L.L.L.L.L.L.O       #.F.K.F.M.n.v.j.a.v.v.v.v.z.v.M.z.t.    , F n R z v T k <     -  .| o.Z         L.L.L.L.L.L.L.L.L.L.L.L.",
"L.L.L.L.L.L.L.L.%       %.Z.Z.v.N.N.a..   a.D.G.J.C.v.z.M.m.v.r.4   J c v T f         : [  ._ M   O O   L.L.L.L.L.L.L.L.L.L.L.L.",
"L.L.L.L.L.L.L.L.L.  -   %.B.z.v.N.B.$.  } D.K.K.F.v.B.l.z.m.M.g.5     O   X         : L o.^ u X         L.L.L.L.L.L.L.L.L.L.L.L.",
"L.L.L.L.L.L.L.L.L.L..   5 r.m.m.v.u.e   9.J.K.A.z.z.N.m.v.z.v.h.4   #   O         p ( +.G #   X   O # L.L.L.L.L.L.L.L.L.L.L.L.L.",
"L.L.L.L.L.L.L.L.L.L.L.. O ' a.N.3.] . #.j.C.F.M.N.v.v.v.v.v.v.h.4   ; @ + O O O D  .o.~ 1   o O   X L.L.L.L.L.L.L.L.L.L.L.L.L.L.",
"L.L.L.L.L.L.L.L.L.L.L.L.L.          + #.z.c.l.m.z.m.v.v.m.m.v.9.#   o. .X.X.o.o.) C         X O L.L.L.L.L.L.L.L.L.L.L.L.L.L.L.L.",
"L.L.L.L.L.L.L.L.L.L.L.L.L.L.L.          e.B.m.v.m.v.v.M.m.g.3.  9  . .X.)  . .N                 L.L.L.L.L.L.L.L.L.L.L.L.L.L.L.L.",
"L.L.L.L.L.L.L.L.L.L.L.L.L.L.L.L.L.. . X + e.d.x.v.g.t.u.y.B     7 L ~ L 8 # X X     X   O   L.L.L.L.L.L.L.L.L.L.L.L.L.L.L.L.L.L.",
"L.L.L.L.L.L.L.L.L.L.L.L.L.L.L.L.L.L.L.L.B + M ~ U N # O O O                     O   + = L.L.L.L.L.L.L.L.L.L.L.L.L.L.L.L.L.L.L.L.",
"L.L.L.L.L.L.L.L.L.L.L.L.L.L.L.L.L.L.L.L.L.L.0 w 6   . X   O               #   L.L.L.L.L.L.L.L.L.L.L.L.L.L.L.L.L.L.L.L.L.L.L.L.L.",
"L.L.L.L.L.L.L.L.L.L.L.L.L.L.L.L.L.L.L.L.L.L.L.L.L.L.L.L.L.L.L.L.L.L.L.L.L.L.L.L.L.L.L.L.L.L.L.L.L.L.L.L.L.L.L.L.L.L.L.L.L.L.L.L.",
"L.L.L.L.L.L.L.L.L.L.L.L.L.L.L.L.L.L.L.L.L.L.L.L.L.L.L.L.L.L.L.L.L.L.L.L.L.L.L.L.L.L.L.L.L.L.L.L.L.L.L.L.L.L.L.L.L.L.L.L.L.L.L.L.",
"L.L.L.L.L.L.L.L.L.L.L.L.L.L.L.L.L.L.L.L.L.L.L.L.L.L.L.L.L.L.L.L.L.L.L.L.L.L.L.L.L.L.L.L.L.L.L.L.L.L.L.L.L.L.L.L.L.L.L.L.L.L.L.L.",
"L.L.L.L.L.L.L.L.L.L.L.L.L.L.L.L.L.L.L.L.L.L.L.L.L.L.L.L.L.L.L.L.L.L.L.L.L.L.L.L.L.L.L.L.L.L.L.L.L.L.L.L.L.L.L.L.L.L.L.L.L.L.L.L.",
"L.L.L.L.L.L.L.L.L.L.L.L.L.L.L.L.L.L.L.L.L.L.L.L.L.L.L.L.L.L.L.L.L.L.L.L.L.L.L.L.L.L.L.L.L.L.L.L.L.L.L.L.L.L.L.L.L.L.L.L.L.L.L.L."
};
