/* XPM */
static char *result[] = {
/* columns rows colors chars-per-pixel */
"64 64 220 2 ",
"   c #020202",
".  c #0A0303",
"X  c #030A03",
"o  c #0B0904",
"O  c #04040A",
"+  c #0A030A",
"@  c #040B0B",
"#  c #0A0A0B",
"$  c #130305",
"%  c #130D06",
"&  c #14020A",
"*  c #120B0B",
"=  c #1A0808",
"-  c #05100E",
";  c #19130E",
":  c #030211",
">  c #030C13",
",  c #0B0C13",
"<  c #0A0113",
"1  c #140A17",
"2  c #021413",
"3  c #051B15",
"4  c #051B1B",
"5  c #0B1B1A",
"6  c #081518",
"7  c #141314",
"8  c #1B1613",
"9  c #131B1C",
"0  c #1C1B1A",
"q  c #291C1A",
"w  c #0A201B",
"e  c #10211D",
"r  c #2E271B",
"t  c #031B23",
"y  c #0A1D2A",
"u  c #061925",
"i  c #011E30",
"p  c #151B20",
"a  c #0C2422",
"s  c #08282B",
"d  c #162624",
"f  c #14362E",
"g  c #1B322D",
"h  c #072A34",
"j  c #112739",
"k  c #0B3837",
"l  c #153C34",
"z  c #193C35",
"x  c #1B3D3A",
"c  c #153835",
"v  c #242221",
"b  c #302E2D",
"n  c #322B22",
"m  c #312F31",
"M  c #2F3938",
"N  c #403B3A",
"B  c #154339",
"V  c #1B423B",
"C  c #164137",
"Z  c #20463E",
"A  c #053C4B",
"S  c #0A3D4C",
"D  c #133A47",
"F  c #163D55",
"G  c #064145",
"H  c #094649",
"J  c #0A4657",
"K  c #174B54",
"L  c #0D555A",
"P  c #175659",
"I  c #1D504A",
"U  c #234843",
"Y  c #27535A",
"T  c #16755F",
"R  c #194F60",
"E  c #0D5C66",
"W  c #185768",
"Q  c #0D4C62",
"!  c #166269",
"~  c #136C79",
"^  c #0F767D",
"/  c #137B7E",
"(  c #197879",
")  c #20676D",
"_  c #217361",
"`  c #306E70",
"'  c #53504F",
"]  c #5A5656",
"[  c #534E4C",
"{  c #625F5D",
"}  c #425F66",
"|  c #635F60",
" . c #6A6364",
".. c #6A6667",
"X. c #7E7979",
"o. c #706B6A",
"O. c #847D7C",
"+. c #1A887B",
"@. c #147383",
"#. c #197486",
"$. c #247A88",
"%. c #28768E",
"&. c #18848A",
"*. c #178894",
"=. c #179598",
"-. c #098A86",
";. c #2B9F81",
":. c #278996",
">. c #24939B",
",. c #2F8793",
"<. c #15A39D",
"1. c #16A48E",
"2. c #28A495",
"3. c #188BA4",
"4. c #1C94A4",
"5. c #1A97A5",
"6. c #1D9EB3",
"7. c #2195A3",
"8. c #2395AB",
"9. c #249CAC",
"0. c #2A9AA4",
"q. c #239CB4",
"w. c #249DBB",
"e. c #259BB4",
"r. c #319EB3",
"t. c #2D8FA5",
"y. c #18A4A9",
"u. c #1CA4B2",
"i. c #1BAAB3",
"p. c #15A5BC",
"a. c #1DA4BA",
"s. c #1DABBD",
"d. c #14AAB6",
"f. c #1BB4BC",
"g. c #14B2BF",
"h. c #28A3AC",
"j. c #23A3B4",
"k. c #2AA5B5",
"l. c #24A3BC",
"z. c #2AA5BD",
"x. c #23A9BD",
"c. c #28AAB6",
"v. c #2DB1BB",
"b. c #34AEAB",
"n. c #42A6B4",
"m. c #1ED4B4",
"M. c #19C5BC",
"N. c #34D5BC",
"B. c #1F9DC1",
"V. c #269EC1",
"C. c #1EA4C1",
"Z. c #1CADC1",
"A. c #19A7C6",
"S. c #1FB2C1",
"D. c #19B5C5",
"F. c #25A4C2",
"G. c #2AA4C3",
"H. c #23AAC2",
"J. c #2AAAC4",
"K. c #26AACB",
"L. c #23B2C4",
"P. c #27B6CA",
"I. c #31AFC7",
"U. c #2ECEC2",
"Y. c #29DCCA",
"T. c #38D0D0",
"R. c #37E3CB",
"E. c #31EDD3",
"W. c #36E6D9",
"Q. c #2DFADA",
"!. c #2BF7D9",
"~. c #34F6D5",
"^. c #3BF5D2",
"/. c #34FAD6",
"(. c #3BFAD4",
"). c #35F5DA",
"_. c #36FCD9",
"`. c #3AFBDC",
"'. c #3BF2DE",
"]. c #2DE4CF",
"[. c #35FEE2",
"{. c #3BFDE2",
"}. c #3BF7E1",
"|. c #2BFDE0",
" X c #42D5CC",
".X c #44E8D6",
"XX c #47F8DD",
"oX c #858181",
"OX c #96908F",
"+X c #968F90",
"@X c #9D9798",
"#X c #A39D9E",
"$X c #A6A3A3",
"%X c #ABA5A4",
"&X c #AAA9AA",
"*X c #B4ADAD",
"=X c #B8B2B3",
"-X c #C4BCBB",
";X c #C6BCBB",
":X c #CAC1BF",
">X c #C6C1BF",
",X c #D3C4BF",
"<X c #CABFC0",
"1X c #C6C2C2",
"2X c #CDC3C2",
"3X c #CFC8C8",
"4X c #D1C5C5",
"5X c #D2C7C8",
"6X c #D4CBCA",
"7X c #DCCFCC",
"8X c #D2D2CF",
"9X c #DBD5D4",
"0X c #D7D5D6",
"qX c #E2DBD9",
"wX c #EBEAE8",
"eX c #F9F6F3",
"rX c #FCFBFA",
"tX c #F9F8F6",
"yX c #F0ECEC",
"uX c None",
/* pixels */
"uXuXuXuXuXuXuXuXuXuXuXuXuXuXuXuXuXuXuXuXuXuXuXuXuXuXuXuXuXuXuXuXuXuXuXuXuXuXuXuXuXuXuXuXuXuXuXuXuXuXuXuXuXuXuXuXuXuXuXuXuXuXuXuX",
"uXuXuXuXuXuXuXuXuXuXuXuXuXuXuXuXuXuXuXuXuXuXuXuXuXuXuXuXuXuXuXuXuXuXuXuXuXuXuXuXuXuXuXuXuXuXuXuXuXuXuXuXuXuXuXuXuXuXuXuXuXuXuXuX",
"uXuXuXuXuXuXuXuXuXuXuXuXuXuXuXuXuXuXuXuXuXuXuXuXuXuXuXuXuXuXuXuXuXuXuXuXuXuXuXuXuXuXuXuXuXuXuXuXuXuXuXuXuXuXuXuXuXuXuXuXuXuXuXuX",
"uXuXuXuXuXuXuXuXuXuXuXuXuXuXuXuXuXuXuXuXuXuXuXuXuXuXuXuXuXuXuXuXuXuXuXuXuXuXuXuXuXuXuXuXuXuXuXuXuXuXuXuXuXuXuXuXuXuXuXuXuXuXuXuX",
"uXuXuXuXuXuXuXuXuXuXuXuXuXuXuXuXuXuXuXuXuXuXuXuXuXuXuXuXuXuXuXuXuXuXuXuXuXuXuXuXuXuXuXuXuXuXuXuXuXuXuXuXuXuXuXuXuXuXuXuXuXuXuXuX",
"uXuXuXuXuXuXuXuXuXuXuXuXuXuXuXuXuXuXuXuXuXuXuXuXuXuXuXuXuXuXuXuXuXuXuXuXuXuXuXuXuXuXuXuXuXuXuXuXuXuXuXuXuXuXuXuXuXuXuXuXuXuXuXuX",
"uXuXuXuXuXuXuXuXuXuXuXuXuXuXuXuXuXuXuXuXuXuXuXuXuXuXuXuXuXuXuXuXuXuXuXuXuXuXuXuXuXuXuXuXuXuXuXuXuXuXuXuXuXuXuXuXuXuXuXuXuXuXuXuX",
"uXuXuXuXuXuXuXuXuXuXuXuXuXuXuXuXuXuXuXuXuXuXuXuXuXuXuXuXuXuXuXuXuXuXuXuXuXuXuXuXuXuXuXuXuXuXuXuXuXuXuXuXuXuXuXuXuXuXuXuXuXuXuXuX",
"uXuXuXuXuXuXuXuXuXuXuXuXuXuXuXuXuXuXuXuXuXuXuXuXuXuXuXuXuXuXuXuXuXuXuXuXuXuXuXuXuXuXuXuXuXuXuXuXuXuXuXuXuXuXuXuXuXuXuXuXuXuXuXuX",
"uXuXuXuXuXuXuXuXuXuXuXuXuXuXuXuXuXuXuXuXuXuXuXuXuXuXuXuXuXuXuXuXuXuXuXuXuXuXuXuXuXuXuXuXuXuXuXuXuXuXuXuXuXuXuXuXuXuXuXuXuXuXuXuX",
"uXuXuXuXuXuXuXuXuXuXuXuXuXuXuXuXuXuXuXuXuXuXuXuXuXuXuXuXuXuXuXuXuXuXuXuXuXuXuXuXuXuXuXuXuXuXuXuXuXuXuXuXuXuXuXuXuXuXuXuXuXuXuXuX",
"uXuXuXuXuXuXuXuXuXuXuXuXuXuXuXuXuXuXuXuXuXuXuXuXuXuXuXuXuXuXuXuXuXuXuXuXuXuXuXuXuXuXuXuXuXuXuXuXuXuXuXuXuXuXuXuXuXuXuXuXuXuXuXuX",
"uXuXuXuXuXuXuXuXuXuXuXuXuXuXuXuXuXuXuXuXuXuXuXuXuXuXuXuXuXuXuXuXuXuXuXuXuXuXuXuXuXuXuXuXuXuXuXuXuXuXuXuXuXuXuXuXuXuXuXuXuXuXuXuX",
"uXuXuXuXuXuXuXuXuXuXuXuXuXuXuXuXuXuXuXuXuXuXuXuXuXuXuXuXuXuXuXuXuXuXuXuXuXuXuXuXuXuXuXuXuXuXuXuXuXuXuXuXuXuXuXuXuXuXuXuXuXuXuXuX",
"uXuXuXuXuXuXuXuXuXuXuXuXuXuXuXuXuXuXuXuXuXuXuXuXuXuXuXuXuXuXuXuXuXuXuXuXuXuXuXuXuXuXuXuXuXuXuXuXuXuXuXuXuXuXuXuXuXuXuXuXuXuXuXuX",
"uXuXuXuXuXuXuXuXuXuXuXuXuXuXuXuXuXuXuXuXuXuXuXuXuXuXuXuXuXuXuXuXuXuXuXuXuXuXuXuXuXuXuXuXuXuXuXuXuXuXuXuXuXuXuXuXuXuXuXuXuXuXuXuX",
"uXuXuXuXuXuXuXuXuXuXuXuXuXuXuXuXuXuXuXuXuXuXuXuXuXuXuXuXuXuXuXuXuXuXuXuXuXuXuXuXuXuXuXuXuXuXuXuXuXuXuXuXuXuXuXuXuXuXuXuXuXuXuXuX",
"uXuXuXuXuXuXuXuXuXuXuXuXuXuXuXuXuXuXuXuXuXuXuXuXuXuXuXuXuXuXuXuXuXuXuXuXuXuXuXuXuXuXuXuXuXuXuXuXuXuXuXuXuXuXuXuXuXuXuXuXuXuXuXuX",
"uXuXuXuXuXuXuXuXuXuXuXuXuXuXuXuXuXuXuXuXuXuXuXuXuXuXuXuXuXuXuXuXuXuXuXuXuXuXuXuXuXuXuXuXuXuXuXuXuXuXuXuXuXuXuXuXuXuXuXuXuXuXuXuX",
"uXuXuXuXuXuXuXuXuXuXuXuXuXuXuXuXuXuXuXuXuXuXuXuXuXuXuXuXuXuXuXuXuXuXuXuXuXuXuXuXuXuXuXuXuXuXuXuXuXuXuXuXuXuXuXuXuXuXuXuXuXuXuXuX",
"uXuXuXuXuXuXuXuXuXuXuXuXuXuXuXuXuXuXuXuXuXuXuXuXuXuXuXuXuXuXuXuXuXuXuXuXuXuXuXuXuXuXuXuXuXuXuXuXuXuXuXuXuXuXuXuXuXuXuXuXuXuXuXuX",
"uXuXuXuXuXuXuXuXuXuXuXuXuXuXuXuXuXuXuXuXuX    # . X             $ . . . . X     uXuXuXuXuXuXuXuXuXuXuXuXuXuXuXuXuXuXuXuXuXuXuXuX",
"uXuXuXuXuXuXuXuXuXuXuXuXuXuXuXuXuX    O O   . . . .               . .   X X   . $   O   uXuXuXuXuXuXuXuXuXuXuXuXuXuXuXuXuXuXuXuX",
"uXuXuXuXuXuXuXuXuXuXuXuXuXuXuXuXO O   O .   T ;.1.].`.{.`.`.{.`.}.`.[.~.b.+.`   .   # + O uXuXuXuXuXuXuXuXuXuXuXuXuXuXuXuXuXuXuX",
"uXuXuXuXuXuXuXuXuXuXuXuXuXuXO ,   X e _ +.^.(././.(._._.`._._._./._._._._.~..XQ. XK 2 . O     uXuXuXuXuXuXuXuXuXuXuXuXuXuXuXuXuX",
"uXuXuXuXuXuXuXuXuXuXuXuXuX  . . w H R.`.`.XX~.{./._.`._._._._._._._._._._._.[.N.k.6.n.y . . * * uXuXuXuXuXuXuXuXuXuXuXuXuXuXuXuX",
"uXuXuXuXuXuXuXuXuXuXuX    . $ k R.{._.(./.Q.`._.`._._._._._._._._._._._./._.!._.i.F.p.k.L O # @   uXuXuXuXuXuXuXuXuXuXuXuXuXuXuX",
"uXuXuXuXuXuXuXuXuXuXq . * 2 +..X)._.`.(._./._._./._._._._._._._._./._._._.`.'.{.T.l.s.l.v.P . .   uXuXuXuXuXuXuXuXuXuXuXuXuXuXuX",
"uXuXuXuXuXuXuXuXuX  O O . ! XXQ.^.(._.!.{.`._.Q.`._._.`._._.`.)._.).E.Y.Y.Y.d.5.z.p.p.j.9.s X O   uXuXuXuXuXuXuXuXuXuXuXuXuXuXuX",
"uXuXuXuXuXuXuXuXuX    . P  X[._._._.(.^.^.~.^.(.(.^.!.!.Y.W. Xi.j.c.z.a.Z.g.s.i.u.F.w.G.k.s     @ . . & X X q uXuXuXuXuXuXuXuXuX",
"uXuXuXuXuXuXuXuXuX    . N.Q._.`.`.`.W.W.U.s.Z.s.s.S.x.l.V.G.F.D.D.g.H.K.F.a.w.z.a.l.l.=.W O . X . $ . X O o O + n uXuXuXuXuXuXuX",
"uXuXuXuXuXuXuXuXuX  o . m.~..XR.M.D.p.H.l.5.4.8.8.5.7.4.4.>.E H K K K E >.5.8.3.K.S.W $ .   . O > D ,.=.A 1 X > + uXuXuXuXuXuXuX",
"uXuXuXuXuXuXuXuX;     . m.I.s.H.6.r.:.E l O   .             . .   . O           P L a . X O 5 ( t.L.j.F.P.&.. .   % uXuXuXuXuXuX",
"uXuXuXuXuXuXuXuX8 O + H 8.z.3.W D > +   X     . O O       O     O X       O           . o ~ K.l.z.d.l.F.Z.v.%.t $ . uXuXuXuXuXuX",
"uXuXuXuXuXuXuXuX8 . u *.x.! + .             O   X X O O O O O O @ @ X o           O . . . k 0.u.a.F.a.F.F.a.8.L O . ; uXuXuXuXuX",
"uXuXuXuXuXuXuXuX;   O u j @ X O     . O O O h H A S G G G A G G >.:.L A J A     O . X     o u -.S.k.s.F.F.a.S.:.> . X uXuXuXuXuX",
"uXuXuXuXuXuXuXuX8 X X X . X X   O d h G *.=.y.L.Z.K.H.H.H.H.x.H.V.w.G.J.z.H.5.>.,.t . $     o . W h.x.a.x.z.J.3.i . O uXuXuXuXuX",
"uXuXuXuXuXuXuXuX. . . + O O t S #.x.P.P.w.q.w.w.j.u.l.l.w.a.l.l.a.i.y.u.6.x.B.A.J.5./ j . .       J q.x.G.6.z.P.)     uXuXuXuXuX",
"uXuXuXuXuXuXuX  O $ X * u ` =.x.y.@.R h 2 > > > @ 2 > > 2 > > @ , > 2 > > D $.v.q.z.H.0.H O   O   @ j.g.F.f.P.%.>   # uXuXuXuXuX",
"uXuXuXuXuXuXuX  .   o A j.a.K.^ K ,                               X X O X   # t ~ a.l.s.k.s X     . S c.V.w.e.A # O # uXuXuXuXuX",
"uXuXuXuXuXuX    . $ s h.D.k.Q       o   O @ 4 4 3 5 5 4 5 5 5 6 5 5 9 O X . X . K c.Z.V.l.K . .     a 5.Z.l.*.a   X n uXuXuXuXuX",
"uXuXuXuXuXuXO O . . L c.4.t     X O 4 d g z V B c g g x l l c V B V x k e     X O &.f.F.J.2.  +   O . @.F.G.E   +   uXuXuXuXuXuX",
"uXuXuXuXuXuXO   X   r.d.W O + . @ a V z l z e - o X           d z C l l c c o X : , <.K.a.l.~       , i h.( <     q uXuXuXuXuXuX",
"uXuXuXuXuXuX  O o o I.z.E = O 2 g f Z V g 2 O b b M *XOX@X#Xb   3 l l z x z X   O   L V.a.G.@..     X o k 6 .   + uXuXuXuXuXuXuX",
"uXuXuXuXuX.       :.q.F.&.6 O O 9 O X   o o X.4X:X2X4X7X5X2X=X8 - z l B B k f .   o h x.a.G.@.    : O   . &   . uXuXuXuXuXuXuXuX",
"uXuXuXuXuXO O   . *.u.e.( 9        .oXO.q %X5X2X;X5X:X:X2X2X*X7 - z l l x z C w +   s s.a.G.@.        X $ O $ uXuXuXuXuXuXuXuXuX",
"uXuXuXuXuXO     . ^ *.< . ] $X8X1X3X5X6X;X5X2X2X;X5X4X4X6X*X@X# - g B z c x z 3 &   h a.j.K.@.      .   + o uXuXuXuXuXuXuXuXuXuX",
"uXuXuXuXuX* O +   + 6   &XrXrXrXyX6X<X6X;X6X2X6X4X2X4X;XM 8 . X 5 x c z V c V w O   s p.z.F./ . X +   X O * uXuXuXuXuXuXuXuXuXuX",
"uXuXuXuXuXuX      O # o.wXrXrX0X1X6X6X<X3X2X:X2X2X2X:X%Xv +   9 z l C V f V x 5 . O h x.H.a.^   X +   uXuXuXuXuXuXuXuXuXuXuXuXuX",
"uXuXuXuXuXuXuXo   + O oX9XrX3X2X6X-X] ] 1X1XqXqX2X:X2X6X=X$Xv O e C l V V l 7 . . + s G.a.c.( . . X . uXuXuXuXuXuXuXuXuXuXuXuXuX",
"uXuXuXuXuXuXuXuXO     X.2X2X4X4X2X|   , 8XrXrXeX6X4X4X:X2X5X*X8 # d d d d @ $ o X   Y A.l.`   X & + o uXuXuXuXuXuXuXuXuXuXuXuXuX",
"uXuXuXuXuXuXuXuXuX. . o.1X1X2X5X<X' o OXtXrXwX3X2X:X2X6X1X1X*X7 . O     O : X O u &.l.9.U O . o   O uXuXuXuXuXuXuXuXuXuXuXuXuXuX",
"uXuXuXuXuXuXuXuXuXuXO   %X7X,X-XX.  0 #XtXeX9X2X4X4X5X2X6X;X=X; 2 < < O O     h a.P.y.y   + .   O   uXuXuXuXuXuXuXuXuXuXuXuXuXuX",
"uXuXuXuXuXuXuXuXuXuXuX@ O { ' 0     ' 9X2X6X:X:X4X2X2X<X:X2X%X# c :.5.q.8.e.4.y.<.F I . o       uXuXuXuXuXuXuXuXuXuXuXuXuXuXuXuX",
"uXuXuXuXuXuXuXuXuXuXuXuXuXo O .     b %X2X2X:X2X2X2X6X2X6XOX  O #.z.A.l.G.A.:.) . $   O   +   uXuXuXuXuXuXuXuXuXuXuXuXuXuXuXuXuX",
"uXuXuXuXuXuXuXuXuXuXuXuXuXuXuXuXo   X ..:X2X,X5X2X;X;X2X .*   } H.6.k.^ / / . $ . +   . . . uXuXuXuXuXuXuXuXuXuXuXuXuXuXuXuXuXuX",
"uXuXuXuXuXuXuXuXuXuXuXuXuXuXuXuXuXuX8 . 0 ] $X#X[ 0 0 8 .   O @ u 6 5   X O     @ .   .   uXuXuXuXuXuXuXuXuXuXuXuXuXuXuXuXuXuXuX",
"uXuXuXuXuXuXuXuXuXuXuXuXuXuXuXuXuXuXuXuX% o X .   O +           X X   o . & . uXuXuXuXuXuXuXuXuXuXuXuXuXuXuXuXuXuXuXuXuXuXuXuXuX",
"uXuXuXuXuXuXuXuXuXuXuXuXuXuXuXuXuXuXuXuXuXuXuXuXuXuXuXuXuXuXuXuXuXuXuXuXuXuXuXuXuXuXuXuXuXuXuXuXuXuXuXuXuXuXuXuXuXuXuXuXuXuXuXuX",
"uXuXuXuXuXuXuXuXuXuXuXuXuXuXuXuXuXuXuXuXuXuXuXuXuXuXuXuXuXuXuXuXuXuXuXuXuXuXuXuXuXuXuXuXuXuXuXuXuXuXuXuXuXuXuXuXuXuXuXuXuXuXuXuX",
"uXuXuXuXuXuXuXuXuXuXuXuXuXuXuXuXuXuXuXuXuXuXuXuXuXuXuXuXuXuXuXuXuXuXuXuXuXuXuXuXuXuXuXuXuXuXuXuXuXuXuXuXuXuXuXuXuXuXuXuXuXuXuXuX",
"uXuXuXuXuXuXuXuXuXuXuXuXuXuXuXuXuXuXuXuXuXuXuXuXuXuXuXuXuXuXuXuXuXuXuXuXuXuXuXuXuXuXuXuXuXuXuXuXuXuXuXuXuXuXuXuXuXuXuXuXuXuXuXuX",
"uXuXuXuXuXuXuXuXuXuXuXuXuXuXuXuXuXuXuXuXuXuXuXuXuXuXuXuXuXuXuXuXuXuXuXuXuXuXuXuXuXuXuXuXuXuXuXuXuXuXuXuXuXuXuXuXuXuXuXuXuXuXuXuX",
"uXuXuXuXuXuXuXuXuXuXuXuXuXuXuXuXuXuXuXuXuXuXuXuXuXuXuXuXuXuXuXuXuXuXuXuXuXuXuXuXuXuXuXuXuXuXuXuXuXuXuXuXuXuXuXuXuXuXuXuXuXuXuXuX"
};
