/* XPM */
static char *result[] = {
/* columns rows colors chars-per-pixel */
"64 64 197 2 ",
"   c #020202",
".  c #0A0404",
"X  c #050805",
"o  c #0B0A06",
"O  c #040509",
"+  c #0C050A",
"@  c #060B0C",
"#  c #0C0C0B",
"$  c #120505",
"%  c #130A06",
"&  c #13070B",
"*  c #130B0B",
"=  c #1A0E0D",
"-  c #02120F",
";  c #0F110D",
":  c #141306",
">  c #1A1007",
",  c #15100C",
"<  c #1B130C",
"1  c #171B0F",
"2  c #070F13",
"3  c #130F10",
"4  c #061412",
"5  c #091414",
"6  c #061916",
"7  c #0A1916",
"8  c #0B1C1A",
"9  c #101012",
"0  c #1C1311",
"q  c #121816",
"w  c #1D1914",
"e  c #1A1918",
"r  c #201300",
"t  c #24130F",
"y  c #261C0B",
"u  c #231513",
"i  c #2A1717",
"p  c #241A16",
"a  c #2B1917",
"s  c #241A19",
"d  c #2C1E1B",
"f  c #311F1C",
"g  c #07201C",
"h  c #0B221E",
"j  c #292013",
"k  c #2E271D",
"l  c #27221D",
"z  c #33211D",
"x  c #092B23",
"c  c #132926",
"v  c #152E2B",
"b  c #172825",
"n  c #0E382D",
"m  c #0D322B",
"M  c #14352E",
"N  c #18332D",
"B  c #0D3A30",
"V  c #153631",
"C  c #1C3531",
"Z  c #153C34",
"A  c #1B3B35",
"S  c #1A3E39",
"D  c #242322",
"F  c #2F2121",
"G  c #2F2B2C",
"H  c #2A272A",
"J  c #342422",
"K  c #3A2525",
"L  c #362926",
"P  c #3A2A24",
"I  c #3C2728",
"U  c #312F2F",
"Y  c #3D2E2C",
"T  c #3E312B",
"R  c #3C3023",
"E  c #213B36",
"W  c #223F39",
"Q  c #353331",
"!  c #3C3636",
"~  c #3F3B3D",
"^  c #432C2B",
"/  c #42312D",
"(  c #4A3532",
")  c #403D3D",
"_  c #493A37",
"`  c #543D33",
"'  c #543D3A",
"]  c #593E3E",
"[  c #573A33",
"{  c #144137",
"}  c #154138",
"|  c #1A4239",
" . c #20403B",
".. c #46432E",
"X. c #494835",
"o. c #544236",
"O. c #594637",
"+. c #54403B",
"@. c #5D413C",
"#. c #51493C",
"$. c #4D4A49",
"%. c #5D4642",
"&. c #5C4944",
"*. c #534343",
"=. c #545252",
"-. c #5E5758",
";. c #5C5C5A",
":. c #624643",
">. c #644A45",
",. c #6D4D44",
"<. c #644C49",
"1. c #6C4D49",
"2. c #6B4742",
"3. c #704744",
"4. c #724D45",
"5. c #744E49",
"6. c #6D5145",
"7. c #6C524C",
"8. c #675F49",
"9. c #6B5A4D",
"0. c #745146",
"q. c #74524B",
"w. c #79534C",
"e. c #7B5C4D",
"r. c #7B4D50",
"t. c #665958",
"y. c #755551",
"u. c #795654",
"i. c #7C5A54",
"p. c #7B5D58",
"a. c #795856",
"s. c #6F634F",
"d. c #756447",
"f. c #72644E",
"g. c #7D644E",
"h. c #7E6B4E",
"j. c #62605F",
"k. c #7E6451",
"l. c #7D6B52",
"z. c #7C615B",
"x. c #626262",
"c. c #6E6A6B",
"v. c #706A6A",
"b. c #75706F",
"n. c #7D7877",
"m. c #787575",
"M. c #805F4F",
"N. c #805854",
"B. c #81634B",
"V. c #816C4E",
"C. c #88654B",
"Z. c #836653",
"A. c #816B51",
"S. c #866C59",
"D. c #8B775E",
"F. c #827863",
"G. c #847D7D",
"H. c #8B8785",
"J. c #958D8D",
"K. c #97968C",
"L. c #9F9A9A",
"P. c #9B9294",
"I. c #A39B9C",
"U. c #A4969C",
"Y. c #AAA5A5",
"T. c #ADA9A6",
"R. c #B2ADAC",
"E. c #B4A8A2",
"W. c #B8B5AC",
"Q. c #BCB5B2",
"!. c #C4BEBC",
"~. c #CBBEBD",
"^. c #C4C0BE",
"/. c #CAC1BF",
"(. c #CDC3C2",
"). c #CEC8C7",
"_. c #D1C5C4",
"`. c #D3C8C7",
"'. c #D1C6C9",
"]. c #D3CBC9",
"[. c #D8CECE",
"{. c #D7D1CF",
"}. c #DCD6D4",
"|. c #DCDBDA",
" X c #E0D6D7",
".X c #E3DCDB",
"XX c #E6E3E1",
"oX c #E8E2E0",
"OX c #E6E8E6",
"+X c #EFEEEC",
"@X c #F1EAE8",
"#X c #F1F0EE",
"$X c #F4F4F2",
"%X c #F9F5F4",
"&X c #FBF9F5",
"*X c #FDFDFB",
"=X c None",
/* pixels */
"=X=X=X=X=X=X=X=X=X=X=X=X=X=X=X=X=X=X=X=X=X=X=X=X=X=X=X=X=X=X=X=X=X=X=X=X=X=X=X=X=X=X=X=X=X=X=X=X=X=X=X=X=X=X=X=X=X=X=X=X=X=X=X=X",
"=X=X=X=X=X=X=X=X=X=X=X=X=X=X=X=X=X=X=X=X=X=X=X=X=X=X=X=X=X=X=X=X=X=X=X=X=X=X=X=X=X=X=X=X=X=X=X=X=X=X=X=X=X=X=X=X=X=X=X=X=X=X=X=X",
"=X=X=X=X=X=X=X=X=X=X=X=X=X=X=X=X=X=X=X=X=X=X=X=X=X=X=X=X=X=X=X=X=X=X=X=X=X=X=X=X=X=X=X=X=X=X=X=X=X=X=X=X=X=X=X=X=X=X=X=X=X=X=X=X",
"=X=X=X=X=X=X=X=X=X=X=X=X=X=X=X=X=X=X=X=X=X=X=X=X=X=X=X=X=X=X=X=X=X=X=X=X=X=X=X=X=X=X=X=X=X=X=X=X=X=X=X=X=X=X=X=X=X=X=X=X=X=X=X=X",
"=X=X=X=X=X=X=X=X=X=X=X=X=X=X=X=X=X=X=X=X=X=X=X=X=X=X=X=X=X=X=X=X=X=X=X=X=X=X=X=X=X=X=X=X=X=X=X=X=X=X=X=X=X=X=X=X=X=X=X=X=X=X=X=X",
"=X=X=X=X=X=X=X=X=X=X=X=X=X=X=X=X=X=X=X=X=X=X=X=X=X=X=X=X=X=X=X=X=X=X=X=X=X=X=X=X=X=X=X=X=X=X=X=X=X=X=X=X=X=X=X=X=X=X=X=X=X=X=X=X",
"=X=X=X=X=X=X=X=X=X=X=X=X=X=X=X=X=X=X=X=X=X=X=X=X=X=X=X=X=X=X=X=X=X=X=X=X=X=X=X=X=X=X=X=X=X=X=X=X=X=X=X=X=X=X=X=X=X=X=X=X=X=X=X=X",
"=X=X=X=X=X=X=X=X=X=X=X=X=X=X=X=X=X=X=X=X=X=X=X=X=X=X=X=X=X=X=X=X=X=X=X=X=X=X=X=X=X=X=X=X=X=X=X=X=X=X=X=X=X=X=X=X=X=X=X=X=X=X=X=X",
"=X=X=X=X=X=X=X=X=X=X=X=X=X=X=X=X=X=X=X=X=X=X=X=X=X=X=X=X=X=X=X=X=X=X=X=X=X=X=X=X=X=X=X=X=X=X=X=X=X=X=X=X=X=X=X=X=X=X=X=X=X=X=X=X",
"=X=X=X=X=X=X=X=X=X=X=X=X=X=X=X=X=X=X=X=X=X=X=X=X=X=X=X=X=X=X=X=X=X=X=X=X=X=X=X=X=X=X=X=X=X=X=X=X=X=X=X=X=X=X=X=X=X=X=X=X=X=X=X=X",
"=X=X=X=X=X=X=X=X=X=X=X=X=X=X=X=X=X=X=X=X=X=X=X=X=X=X=X=X=X=X=X=X=X=X=X=X=X=X=X=X=X=X=X=X=X=X=X=X=X=X=X=X=X=X=X=X=X=X=X=X=X=X=X=X",
"=X=X=X=X=X=X=X=X=X=X=X=X=X=X=X=X=X=X=X=X=X=X=X=X=X=X=X=X=X=X=X=X=X=X=X=X=X=X=X=X=X=X=X=X=X=X=X=X=X=X=X=X=X=X=X=X=X=X=X=X=X=X=X=X",
"=X=X=X=X=X=X=X=X=X=X=X=X=X=X=X=X=X=X=X=X=X=X=X=X=X=X=X=X=X=X=X=X=X=X=X=X=X=X=X=X=X=X=X=X=X=X=X=X=X=X=X=X=X=X=X=X=X=X=X=X=X=X=X=X",
"=X=X=X=X=X=X=X=X=X=X=X=X=X=X=X=X=X=X=X=X=X=X=X=X=X=X=X=X=X=X=X=X=X=X=X=X=X=X=X=X=X=X=X=X=X=X=X=X=X=X=X=X=X=X=X=X=X=X=X=X=X=X=X=X",
"=X=X=X=X=X=X=X=X=X=X=X=X=X=X=X=X=X=X=X=X=X=X=X=X=X=X=X=X=X=X=X=X=X=X=X=X=X=X=X=X=X=X=X=X=X=X=X=X=X=X=X=X=X=X=X=X=X=X=X=X=X=X=X=X",
"=X=X=X=X=X=X=X=X=X=X=X=X=X=X=X=X=X=X=X=X=X=X=X=X=X=X=X=X=X=X=X=X=X=X=X=X=X=X=X=X=X=X=X=X=X=X=X=X=X=X=X=X=X=X=X=X=X=X=X=X=X=X=X=X",
"=X=X=X=X=X=X=X=X=X=X=X=X=X=X=X=X=X=X=X=X=X=X=X=X=X=X=X=X=X=X=X=X=X=X=X=X=X=X=X=X=X=X=X=X=X=X=X=X=X=X=X=X=X=X=X=X=X=X=X=X=X=X=X=X",
"=X=X=X=X=X=X=X=X=X=X=X=X=X=X=X=X=X=X=X=X=X=X=X=X=X=X=X=X=X=X=X=X=X=X=X=X=X=X=X=X=X=X=X=X=X=X=X=X=X=X=X=X=X=X=X=X=X=X=X=X=X=X=X=X",
"=X=X=X=X=X=X=X=X=X=X=X=X=X=X=X=X=X=X=X=X=X=X=X=X=X=X=X=X=X=X=X=X=X=X=X=X=X=X=X=X=X=X=X=X=X=X=X=X=X=X=X=X=X=X=X=X=X=X=X=X=X=X=X=X",
"=X=X=X=X=X=X=X=X=X=X=X=X=X=X=X=X=X=X=X=X=X=X=X=X=X=X=X=X=X=X=X=X=X=X=X=X=X=X=X=X=X=X=X=X=X=X=X=X=X=X=X=X=X=X=X=X=X=X=X=X=X=X=X=X",
"=X=X=X=X=X=X=X=X=X=X=X=X=X=X=X=X=X=X=X=X=X=X=X=X=X=X=X=X=X=X=X=X=X=X=X=X=X=X=X=X=X=X=X=X=X=X=X=X=X=X=X=X=X=X=X=X=X=X=X=X=X=X=X=X",
"=X=X=X=X=X=X=X=X=X=X=X=X=X=X=X=X=X=X=X=X=X=X=X.                   O   O   =X=X=X=X=X=X=X=X=X=X=X=X=X=X=X=X=X=X=X=X=X=X=X=X=X=X=X",
"=X=X=X=X=X=X=X=X=X=X=X=X=X=X=X=X=X=X=X      o X X           X   . O   O   O         =X=X=X=X=X=X=X=X=X=X=X=X=X=X=X=X=X=X=X=X=X=X",
"=X=X=X=X=X=X=X=X=X=X=X=X=X=X=X=X. O O O O       , _ ` o.` ` o.o...X.#...1         O O   r =X=X=X=X=X=X=X=X=X=X=X=X=X=X=X=X=X=X=X",
"=X=X=X=X=X=X=X=X=X=X=X=X=X=Xw   X       y P f.l.d.V.h.h.h.h.h.h.C.C.M.C.Z.S.&.P d   o     < =X=X=X=X=X=X=X=X=X=X=X=X=X=X=X=X=X=X",
"=X=X=X=X=X=X=X=X=X=X=X=X=X#     O . #.F.d.A.A.h.A.l.V.V.A.h.V.A.h.h.h.h.h.h.A.k.,.&.s   X X o =X=X=X=X=X=X=X=X=X=X=X=X=X=X=X=X=X",
"=X=X=X=X=X=X=X=X=X=X=X=X      . #.f.l.A.A.A.h.h.A.h.V.A.A.A.h.A.A.A.l.A.A.V.h.g.0.6.7.^     X . =X=X=X=X=X=X=X=X=X=X=X=X=X=X=X=X",
"=X=X=X=X=X=X=X=X=X=X=X  O . p 9.A.V.B.A.g.l.A.h.A.A.A.h.h.A.A.A.A.A.V.V.V.h.S.Z.,.w.5.5.+.+ O   p =X=X=X=X=X=X=X=X=X=X=X=X=X=X=X",
"=X=X=X=X=X=X=X=X=X=X. O   k f.A.l.V.A.V.V.h.A.A.h.A.V.h.A.A.h.h.A.h.V.A.h.Z.i.e.i.,.w.q.6.T   ; w =X=X=X=X=X=X=X=X=X=X=X=X=X=X=X",
"=X=X=X=X=X=X=X=X=X  O   > O.S.Z.V.A.h.h.h.A.A.A.A.A.h.l.A.A.Z.B.e.g.q.6.q.1.q.q.5.q.q.q.%.% X     =X=X=X=X=X=X=X=X=X=X=X=X=X=X=X",
"=X=X=X=X=X=X=X=X=X  O o 8.D.h.h.h.h.h.A.A.k.k.k.l.h.g.e.4.0.q.>.,.,.4.4.3.w.0.0.w.q.5.u.] + O O   . X @     % =X=X=X=X=X=X=X=X=X",
"=X=X=X=X=X=X=X=X=X    : s.V.A.h.k.g.0.0.0.0.0.0.w.w.w.5.i.y.>.>.1.:.:.1.e.0.u.w.4.6.' z $         + = 0 . @   O =X=X=X=X=X=X=X=X",
"=X=X=X=X=X=X=X=X=X    o l.g.e.w.0.w.1.,.] / ^ ^ ^ Y ^ K Y d .         0 K L Y ^ 9.+.0 .       $ P >.7.q.o.p O     =X=X=X=X=X=X=X",
"=X=X=X=X=X=X=X=X*     > 9.2.q.i.' / p . O                           O       O   % . . O   p ( p.3.3.4.4.0.+.< . O   =X=X=X=X=X=X",
"=X=X=X=X=X=X=X=X9 O 0 %.p.:.u * .       X                       O                   .   . @.q.0.5.q.4.w.,.q.` % . O =X=X=X=X=X=X",
"=X=X=X=X=X=X=X=X* . . Q ( *   X     X         O   . .           d % .         O O       O . ( q.,.w.1.q.q.5.0./   O w =X=X=X=X=X",
"=X=X=X=X=X=X=X=X9                 .     t z +.&.:.:.:.:.:.:.:.:.y.1.:.>.@.' u s = .     O   . L 7.q.q.,.w.1.q.^ . O O =X=X=X=X=X",
"=X=X=X=X=X=X=X=X3 +   O . .     p ( [ @.i.w.5.4.4.0.5.q.0.0.q.0.5.0.0.4.0.4.e.N.>.z #   .       s :.4.q.6.q.5.>.u O O =X=X=X=X=X",
"=X=X=X=X=X=X=Xw   .   O X * P [ N.5.a.^ z L K J K K K K J J J J J J J J I 7.5.y.,.w.y.d .       + t 7.,.4.0.w.] . O O =X=X=X=X=X",
"=X=X=X=X=X=X=X      . . ( z.q.y.' = $ O                                   + k ( a.5.6.7.Y .       $ ' q.0.3.2.k     X =X=X=X=X=X",
"=X=X=X=X=X=X    X   0 ] 0.2.@.= .   @ O . .                       O O           / y.4.q.%.% . O     L i.4.5.<.$   o p =X=X=X=X=X",
"=X=X=X=X=X=X  @     d i.q._           2 7 x n m V N N C A M M M C v v 6 X .   X k 1.q.0.q.Y         % ] 4.7.d       =X=X=X=X=X=X",
"=X=X=X=X=X=XO O . . ,.,.f O       6 v }  .A A N 8 4 @ 4 @ - g E { { { A C - .   . :.1.q.q.' &       + [ q.1.u     0 =X=X=X=X=X=X",
"=X=X=X=X=X=X      < 6.6.i     O h C V Z A N   . X e U G G U O - V { Z A S m     . O >.w.0.6.J       O w ' u   O   =X=X=X=X=X=X=X",
"=X=X=X=X=X,     . ^ 6.6.u     b v h c c 7   ) J.G.T.).~.].'.c.  6 Z } Z S Z 4 .     f 0.5.0.P         . .     O =X=X=X=X=X=X=X=X",
"=X=X=X=X=X+ X   & >.0.y.*.* .   +       . -.(.`.[.(./._.~.(.Y.  5 A Z S | Z N       a u.0.0.L                 =X=X=X=X=X=X=X=X=X",
"=X=X=X=X=XX X   + %.6.z O   =.x.v.R.Q.Q.n.].).`.(._.(.~.'.~.Y.  7 S B S A Z Z 6     u y.5.q.P           X . =X=X=X=X=X=X=X=X=X=X",
"=X=X=X=X=X      + , : O j.Q.OX$XoX`._._.).~.(.(.(.(.(.].(.$.D   6 S S V S S S 5     i w.4.q.K X     o   O j =X=X=X=X=X=X=X=X=X=X",
"=X=X=X=X=X=XO       O Q |.#X*X&X.X(./.(.]./.].^._./.].=.        c A A | A V A 6 O   a w.4.u.K     O       =X=X=X=X=X=X=X=X=X=X=X",
"=X=X=X=X=X=XO     . 5 I.%X*X.X(.(.{.J.R.`././.{././././.;.    q A Z Z Z { | v O   O u i.3.y.Y       % =X=X=X=X=X=X=X=X=X=X=X=X=X",
"=X=X=X=X=X=X=X      : H.}. X~._./.H.* ~ {.XX$X@X_./.]./.(.).b.  6 E A  .A h   .     a w.w.>.s   O   > =X=X=X=X=X=X=X=X=X=X=X=X=X",
"=X=X=X=X=X=X=X=X  X # J._.'._.~._.! 5 n.+X$X&X X/.(._./.(.).L.              . .   l 1.w.' $       O > =X=X=X=X=X=X=X=X=X=X=X=X=X",
"=X=X=X=X=X=X=X=X=X  5 Q (.~.~. Xc.  e R.*X$X}.^._._./._././.L.    O X   O     % ^ q.1.( . X     X   =X=X=X=X=X=X=X=X=X=X=X=X=X=X",
"=X=X=X=X=X=X=X=X=X=X. @ j._.E.v.l   c.[.oX.X(./.(._._./.].).Y.    o $ & $ $ : %.r.3.&.    O   O   =X=X=X=X=X=X=X=X=X=X=X=X=X=X=X",
"=X=X=X=X=X=X=X=X=X=X=X  X       ;   b.].(.(.`.`._._.`.~.].^.j.  z q.,.w.1.u.5.<.J     X O     =X=X=X=X=X=X=X=X=X=X=X=X=X=X=X=X=X",
"=X=X=X=X=X=X=X=X=X=X=X=X=X=X        e L.].`././._.(._.`.T.w   Q q.q.w.1.5.2.J   #       O   =X=X=X=X=X=X=X=X=X=X=X=X=X=X=X=X=X=X",
"=X=X=X=X=X=X=X=X=X=X=X=X=X=X=X=X.   @ Q K.W.{.`.I.U.P.H.. . . ! o.o.T * + .   . O .   O O =X=X=X=X=X=X=X=X=X=X=X=X=X=X=X=X=X=X=X",
"=X=X=X=X=X=X=X=X=X=X=X=X=X=X=X=X=X=X=Xw + H ) ) o       X   X       O   O   O   X . =X=X=X=X=X=X=X=X=X=X=X=X=X=X=X=X=X=X=X=X=X=X",
"=X=X=X=X=X=X=X=X=X=X=X=X=X=X=X=X=X=X=X=X=Xy k 0 .                         * =X=X=X=X=X=X=X=X=X=X=X=X=X=X=X=X=X=X=X=X=X=X=X=X=X=X",
"=X=X=X=X=X=X=X=X=X=X=X=X=X=X=X=X=X=X=X=X=X=X=X=X=X=X=X=X=X=X=X=X=X=X=X=X=X=X=X=X=X=X=X=X=X=X=X=X=X=X=X=X=X=X=X=X=X=X=X=X=X=X=X=X",
"=X=X=X=X=X=X=X=X=X=X=X=X=X=X=X=X=X=X=X=X=X=X=X=X=X=X=X=X=X=X=X=X=X=X=X=X=X=X=X=X=X=X=X=X=X=X=X=X=X=X=X=X=X=X=X=X=X=X=X=X=X=X=X=X",
"=X=X=X=X=X=X=X=X=X=X=X=X=X=X=X=X=X=X=X=X=X=X=X=X=X=X=X=X=X=X=X=X=X=X=X=X=X=X=X=X=X=X=X=X=X=X=X=X=X=X=X=X=X=X=X=X=X=X=X=X=X=X=X=X",
"=X=X=X=X=X=X=X=X=X=X=X=X=X=X=X=X=X=X=X=X=X=X=X=X=X=X=X=X=X=X=X=X=X=X=X=X=X=X=X=X=X=X=X=X=X=X=X=X=X=X=X=X=X=X=X=X=X=X=X=X=X=X=X=X",
"=X=X=X=X=X=X=X=X=X=X=X=X=X=X=X=X=X=X=X=X=X=X=X=X=X=X=X=X=X=X=X=X=X=X=X=X=X=X=X=X=X=X=X=X=X=X=X=X=X=X=X=X=X=X=X=X=X=X=X=X=X=X=X=X"
};
