/* XPM */
static char *result[] = {
/* columns rows colors chars-per-pixel */
"64 64 219 2 ",
"   c #020202",
".  c #090304",
"X  c #030903",
"o  c #080804",
"O  c #040309",
"+  c #0B030A",
"@  c #030B0C",
"#  c #0B0B0B",
"$  c #100204",
"%  c #13050E",
"&  c #120D0C",
"*  c #180A0C",
"=  c #02100E",
"-  c #041A06",
";  c #1A1509",
":  c #0B0212",
">  c #050E11",
",  c #080716",
"<  c #130413",
"1  c #1A0316",
"2  c #140B14",
"3  c #1B041B",
"4  c #170916",
"5  c #041513",
"6  c #0D1C19",
"7  c #091917",
"8  c #151314",
"9  c #1F1A18",
"0  c #211000",
"q  c #23081A",
"w  c #0C231E",
"e  c #2D251A",
"r  c #170425",
"t  c #000523",
"y  c #220323",
"u  c #290121",
"i  c #260828",
"p  c #30132F",
"a  c #320330",
"s  c #340A37",
"d  c #3B113B",
"f  c #3A1438",
"g  c #2C0C33",
"h  c #0B2521",
"j  c #142B29",
"k  c #132821",
"l  c #15342E",
"z  c #1A322C",
"x  c #12382C",
"c  c #0C3A30",
"v  c #163631",
"b  c #143C34",
"n  c #1B3A34",
"m  c #163E39",
"M  c #1A3B37",
"N  c #232223",
"B  c #2D2B2C",
"V  c #282423",
"C  c #223E39",
"Z  c #393839",
"A  c #430A3C",
"S  c #4A3B2C",
"D  c #154137",
"F  c #1C423B",
"G  c #194037",
"H  c #23453E",
"J  c #43403E",
"K  c #3D0141",
"L  c #420C41",
"P  c #4C0D49",
"I  c #460848",
"U  c #510F4D",
"Y  c #451542",
"T  c #4E144B",
"R  c #481648",
"E  c #53134D",
"W  c #56184A",
"Q  c #560C58",
"!  c #5B145C",
"~  c #571957",
"^  c #661A5C",
"/  c #610D56",
"(  c #54224D",
")  c #6B2453",
"_  c #551B63",
"`  c #5E1562",
"'  c #631564",
"]  c #681767",
"[  c #7C1C7A",
"{  c #6E196E",
"}  c #6B236C",
"|  c #71266C",
" . c #6F2170",
".. c #7D2575",
"X. c #7B257A",
"o. c #752676",
"O. c #4E4B4B",
"+. c #454746",
"@. c #585958",
"#. c #635E5E",
"$. c #6C6968",
"%. c #726E6F",
"&. c #7A7475",
"*. c #862779",
"=. c #8A3174",
"-. c #943279",
";. c #863364",
":. c #A73A7C",
">. c #824966",
",. c #837B7B",
"<. c #7E2A83",
"1. c #841C85",
"2. c #8D1891",
"3. c #8C248E",
"4. c #872A8B",
"5. c #8C2B8E",
"6. c #8A2184",
"7. c #932B8E",
"8. c #95248C",
"9. c #8C338D",
"0. c #863589",
"q. c #992499",
"w. c #9C2B9C",
"e. c #942798",
"r. c #9B349B",
"t. c #8D2396",
"y. c #A22F8E",
"u. c #A82A9D",
"i. c #A1319B",
"p. c #A43193",
"a. c #B9289A",
"s. c #A81FAD",
"d. c #9E36A5",
"f. c #9A26A0",
"g. c #A326A6",
"h. c #AB25A4",
"j. c #A52AA4",
"k. c #AB2CA3",
"l. c #AC25AC",
"z. c #A62CAD",
"x. c #AB2BAC",
"c. c #A625AC",
"v. c #B126A5",
"b. c #B326AC",
"n. c #B22CAD",
"m. c #BA2AAB",
"M. c #A534A5",
"N. c #AB33A4",
"B. c #A630AC",
"V. c #AB34AB",
"C. c #A538A7",
"Z. c #B233A7",
"A. c #AC26B2",
"S. c #AC2BB2",
"D. c #A72AB4",
"F. c #B325B3",
"G. c #B824B5",
"H. c #B22BB3",
"J. c #BA2BB2",
"K. c #B42EB9",
"L. c #B827BA",
"P. c #AD33B2",
"I. c #B331B5",
"U. c #BC33B9",
"Y. c #BA35B6",
"T. c #C339B1",
"R. c #C734B2",
"E. c #B14C8E",
"W. c #C74997",
"Q. c #D64290",
"!. c #DB4CB9",
"~. c #D648B8",
"^. c #CF4FAF",
"/. c #EB4EB4",
"(. c #E74EB8",
"). c #E354B4",
"_. c #EA52B6",
"`. c #E452BA",
"'. c #EC53B9",
"]. c #EA59BA",
"[. c #F154BA",
"{. c #F25BBE",
"}. c #F051B6",
"|. c #D365A8",
" X c #DB4BC2",
".X c #EC58C2",
"XX c #F556C4",
"oX c #E24EC3",
"OX c #8B8485",
"+X c #898586",
"@X c #9C9696",
"#X c #968D8E",
"$X c #A69B9C",
"%X c #A6A19E",
"&X c #ACA3A3",
"*X c #A5A0A0",
"=X c #B7ADAA",
"-X c #B4B2B2",
";X c #BDB8B5",
":X c #C6BDBC",
">X c #C9BFBE",
",X c #CAC1BF",
"<X c #C7C1BE",
"1X c #CBBFC0",
"2X c #CDC3C3",
"3X c #CEC9C6",
"4X c #D1C6C6",
"5X c #D2C9C7",
"6X c #D4CBCA",
"7X c #D8CECD",
"8X c #D7CED1",
"9X c #DCD6D6",
"0X c #E0DDDC",
"qX c #E1E0DE",
"wX c #EAE7E6",
"eX c #FBFAF7",
"rX c #FDFCFC",
"tX c #F7F5F4",
"yX c None",
/* pixels */
"yXyXyXyXyXyXyXyXyXyXyXyXyXyXyXyXyXyXyXyXyXyXyXyXyXyXyXyXyXyXyXyXyXyXyXyXyXyXyXyXyXyXyXyXyXyXyXyXyXyXyXyXyXyXyXyXyXyXyXyXyXyXyXyX",
"yXyXyXyXyXyXyXyXyXyXyXyXyXyXyXyXyXyXyXyXyXyXyXyXyXyXyXyXyXyXyXyXyXyXyXyXyXyXyXyXyXyXyXyXyXyXyXyXyXyXyXyXyXyXyXyXyXyXyXyXyXyXyXyX",
"yXyXyXyXyXyXyXyXyXyXyXyXyXyXyXyXyXyXyXyXyXyXyXyXyXyXyXyXyXyXyXyXyXyXyXyXyXyXyXyXyXyXyXyXyXyXyXyXyXyXyXyXyXyXyXyXyXyXyXyXyXyXyXyX",
"yXyXyXyXyXyXyXyXyXyXyXyXyXyXyXyXyXyXyXyXyXyXyXyXyXyXyXyXyXyXyXyXyXyXyXyXyXyXyXyXyXyXyXyXyXyXyXyXyXyXyXyXyXyXyXyXyXyXyXyXyXyXyXyX",
"yXyXyXyXyXyXyXyXyXyXyXyXyXyXyXyXyXyXyXyXyXyXyXyXyXyXyXyXyXyXyXyXyXyXyXyXyXyXyXyXyXyXyXyXyXyXyXyXyXyXyXyXyXyXyXyXyXyXyXyXyXyXyXyX",
"yXyXyXyXyXyXyXyXyXyXyXyXyXyXyXyXyXyXyXyXyXyXyXyXyXyXyXyXyXyXyXyXyXyXyXyXyXyXyXyXyXyXyXyXyXyXyXyXyXyXyXyXyXyXyXyXyXyXyXyXyXyXyXyX",
"yXyXyXyXyXyXyXyXyXyXyXyXyXyXyXyXyXyXyXyXyXyXyXyXyXyXyXyXyXyXyXyXyXyXyXyXyXyXyXyXyXyXyXyXyXyXyXyXyXyXyXyXyXyXyXyXyXyXyXyXyXyXyXyX",
"yXyXyXyXyXyXyXyXyXyXyXyXyXyXyXyXyXyXyXyXyXyXyXyXyXyXyXyXyXyXyXyXyXyXyXyXyXyXyXyXyXyXyXyXyXyXyXyXyXyXyXyXyXyXyXyXyXyXyXyXyXyXyXyX",
"yXyXyXyXyXyXyXyXyXyXyXyXyXyXyXyXyXyXyXyXyXyXyXyXyXyXyXyXyXyXyXyXyXyXyXyXyXyXyXyXyXyXyXyXyXyXyXyXyXyXyXyXyXyXyXyXyXyXyXyXyXyXyXyX",
"yXyXyXyXyXyXyXyXyXyXyXyXyXyXyXyXyXyXyXyXyXyXyXyXyXyXyXyXyXyXyXyXyXyXyXyXyXyXyXyXyXyXyXyXyXyXyXyXyXyXyXyXyXyXyXyXyXyXyXyXyXyXyXyX",
"yXyXyXyXyXyXyXyXyXyXyXyXyXyXyXyXyXyXyXyXyXyXyXyXyXyXyXyXyXyXyXyXyXyXyXyXyXyXyXyXyXyXyXyXyXyXyXyXyXyXyXyXyXyXyXyXyXyXyXyXyXyXyXyX",
"yXyXyXyXyXyXyXyXyXyXyXyXyXyXyXyXyXyXyXyXyXyXyXyXyXyXyXyXyXyXyXyXyXyXyXyXyXyXyXyXyXyXyXyXyXyXyXyXyXyXyXyXyXyXyXyXyXyXyXyXyXyXyXyX",
"yXyXyXyXyXyXyXyXyXyXyXyXyXyXyXyXyXyXyXyXyXyXyXyXyXyXyXyXyXyXyXyXyXyXyXyXyXyXyXyXyXyXyXyXyXyXyXyXyXyXyXyXyXyXyXyXyXyXyXyXyXyXyXyX",
"yXyXyXyXyXyXyXyXyXyXyXyXyXyXyXyXyXyXyXyXyXyXyXyXyXyXyXyXyXyXyXyXyXyXyXyXyXyXyXyXyXyXyXyXyXyXyXyXyXyXyXyXyXyXyXyXyXyXyXyXyXyXyXyX",
"yXyXyXyXyXyXyXyXyXyXyXyXyXyXyXyXyXyXyXyXyXyXyXyXyXyXyXyXyXyXyXyXyXyXyXyXyXyXyXyXyXyXyXyXyXyXyXyXyXyXyXyXyXyXyXyXyXyXyXyXyXyXyXyX",
"yXyXyXyXyXyXyXyXyXyXyXyXyXyXyXyXyXyXyXyXyXyXyXyXyXyXyXyXyXyXyXyXyXyXyXyXyXyXyXyXyXyXyXyXyXyXyXyXyXyXyXyXyXyXyXyXyXyXyXyXyXyXyXyX",
"yXyXyXyXyXyXyXyXyXyXyXyXyXyXyXyXyXyXyXyXyXyXyXyXyXyXyXyXyXyXyXyXyXyXyXyXyXyXyXyXyXyXyXyXyXyXyXyXyXyXyXyXyXyXyXyXyXyXyXyXyXyXyXyX",
"yXyXyXyXyXyXyXyXyXyXyXyXyXyXyXyXyXyXyXyXyXyXyXyXyXyXyXyXyXyXyXyXyXyXyXyXyXyXyXyXyXyXyXyXyXyXyXyXyXyXyXyXyXyXyXyXyXyXyXyXyXyXyXyX",
"yXyXyXyXyXyXyXyXyXyXyXyXyXyXyXyXyXyXyXyXyXyXyXyXyXyXyXyXyXyXyXyXyXyXyXyXyXyXyXyXyXyXyXyXyXyXyXyXyXyXyXyXyXyXyXyXyXyXyXyXyXyXyXyX",
"yXyXyXyXyXyXyXyXyXyXyXyXyXyXyXyXyXyXyXyXyXyXyXyXyXyXyXyXyXyXyXyXyXyXyXyXyXyXyXyXyXyXyXyXyXyXyXyXyXyXyXyXyXyXyXyXyXyXyXyXyXyXyXyX",
"yXyXyXyXyXyXyXyXyXyXyXyXyXyXyXyXyXyXyXyXyXyXyXyXyXyXyXyXyXyXyXyXyXyXyXyXyXyXyXyXyXyXyXyXyXyXyXyXyXyXyXyXyXyXyXyXyXyXyXyXyXyXyXyX",
"yXyXyXyXyXyXyXyXyXyXyXyXyXyXyXyXyXyXyXyXyXyXyXyX                            yXyXyXyXyXyXyXyXyXyXyXyXyXyXyXyXyXyXyXyXyXyXyXyXyXyX",
"yXyXyXyXyXyXyXyXyXyXyXyXyXyXyXyXyXyXyXyX      . .                         .     O     yXyXyXyXyXyXyXyXyXyXyXyXyXyXyXyXyXyXyXyXyX",
"yXyXyXyXyXyXyXyXyXyXyXyXyXyXyXyXyXyX    O   @       =.-.-.-.-.-.=.=.-.-.=.^     X o O . . yXyXyXyXyXyXyXyXyXyXyXyXyXyXyXyXyXyXyX",
"yXyXyXyXyXyXyXyXyXyXyXyXyXyXyXyX  @       q ) |.).`.'._._._._._.}.[.}./.'.).].:.) ( % X O   o yXyXyXyXyXyXyXyXyXyXyXyXyXyXyXyXyX",
"yXyXyXyXyXyXyXyXyXyXyXyXyXyX  + . . % ;.|.W.{._.'.)._.'.'.'._.'./._.'._._.'.`.{.!.P.9.A O   . 8 yXyXyXyXyXyXyXyXyXyXyXyXyXyXyXyX",
"yXyXyXyXyXyXyXyXyXyXyXyXyX      . >.Q.(.`.}.XX/._.'.'.'.'._.'.'.'.'.'.'._._.}.).!.I.A.n.^ : @     yXyXyXyXyXyXyXyXyXyXyXyXyXyXyX",
"yXyXyXyXyXyXyXyXyXyXyXyX  X o   E.'.XX'._.XX`.'.'._._.'.'.'._.'._._._.'.'.'.'.}..Xa.Z.g.V.0.u     8 yXyXyXyXyXyXyXyXyXyXyXyXyXyX",
"yXyXyXyXyXyXyXyXyXyXyXo   # W Q.[./.]./.[.'.[./.'.{.'.'.'._.'._.'.(.).'._._.`.~. X~.g.z.H.u.| # @   yXyXyXyXyXyXyXyXyXyXyXyXyXyX",
"yXyXyXyXyXyXyXyXyXyX&   - q :.].(..X`.[.[._./._.'.`.)._._.'.{._.~.(.!.Y.g.S.D.h.x.S.S.S.x.N.y   . X yXyXyXyXyXyXyXyXyXyXyXyXyXyX",
"yXyXyXyXyXyXyXyXyXyX& +   :.{.XX[._./.[..X`.!.!.!.!.~.~.T.n.n.x.D.A.l.z.V.l.S.j.j.z.V.k.R.3.r   O O .   X X % 2 yXyXyXyXyXyXyXyX",
"yXyXyXyXyXyXyXyXyXyX& .   W.[./.'.(.oXm.R.b.l.n.n.H.J.J.m.Y.Z.w.e.q.q.q.j.U.H.n.J.b.l.e.K r   . .     r i , X O   yXyXyXyXyXyXyX",
"yXyXyXyXyXyXyXyXyXyXo     W.`.T.T.v.B.d.r.4.{ ' ` ' _ ~ ~ ( A 3         3 Y ' ! ' r.7.K X   o X , W *.M.Y.*.(   O # yXyXyXyXyXyX",
"yXyXyXyXyXyXyXyXyX9 O + , y.m.x.S.t.] W 1 +   X   . O . . . .   O O     O . X X . % +   X . K { j.m.A.A.H.j.4.s O O + yXyXyXyXyX",
"yXyXyXyXyXyXyXyXyX* O q X.U.u.P y 2     .         X       O       X @ X     o   X X   O   %  .J.F.j.x.z.x.h.x.d.r . . yXyXyXyXyX",
"yXyXyXyXyXyXyXyXyX; O < ^ <.a     O     X   O + . O X           O K p O       X   + O     : 3 ~ M.A.A.z.N.k.b.b.3.  O yXyXyXyXyX",
"yXyXyXyXyXyXyXyXyX- $ .       . O . O X   p K  .5.4.q.q.w.q.q.q.7.k.h.8.7.8.6.I s y O o O . X   P w.J.G.l.z.S.x.7.X o $ yXyXyXyX",
"yXyXyXyXyXyXyXyXyX& O o O +   X   i } 1.3.V.Y.K.G.J.l.z.z.l.l.x.I.D.D.x.S.D.A.D.U.u.! q         X s [ l.S.B.n.S.i./   o yXyXyXyX",
"yXyXyXyXyXyXyXyXyX  $ O X + q ~ 2.K.x.V.o.T P E E T E E E E E E T E U E T ~ e.J.b.z.z.m.! O . X X + i u.n.z.l.v.e.g +   t yXyXyX",
"yXyXyXyXyXyXyXyXX o     : ! M.H.P.<.a q +       X X O   .   O   X X     X @ 2 K { r.H.F.n. .<   O   < *.h.z.S.b.~     O $ yXyXyX",
"yXyXyXyXyXyXyX; O @   1 X.l.H.3.a 2         .                             . . X O U k.G.c.I.% +   X $ W N.S.j.I.8 O X   yXyXyXyX",
"yXyXyXyXyXyXyX2 O +   U j.V.| %   X O , 5 7 h v v l v n v b n n l l v j 7 @   O . d 9.B.S.k...    . O & 1.H.x.Q O O   yXyXyXyXyX",
"yXyXyXyXyXyXyX  O   < *.I.Q O O X   6 k x F G b M h 5 @ @ = = @ b b b D n C 7 X X O ] J.c.b.8.i   + o X 6.J.j.E <   2 yXyXyXyXyX",
"yXyXyXyXyXyXyX    : 3 3.U.d X     k v b F v z @     + B B B B # 5 j b b b M x X   O 1 ..F.k.J.!     +     X.P   O O yXyXyXyXyXyX",
"yXyXyXyXyXyXyX    : P M.x.A X   6 z w 6 h 7   8 @XOX#X9X2X4X2X,.o = n b m M b 5       I c.u.H.' . O O   X 1 X X   yXyXyXyXyXyXyX",
"yXyXyXyXyXyX  O     6.L.k.w., + # X         O.;X5X5X4X:X5X1X6X&X2 @ C b m b D z X   X L z.Z.H.' . O     O . O   yXyXyXyXyXyXyXyX",
"yXyXyXyXyXyX    . X 1.I.~ q   +.%.#.&X:X;X,.4X>X4X2X3X2X4X:X7X%X& > M b m m M H 5   O P g.j.L.'     X   O   O yXyXyXyXyXyXyXyXyX",
"yXyXyXyXyXyX  > o   1 i % O.-XwXeXwX4X>X2X6X>X2X>X2X4X1X1X5X%.N   = v F G b n G 7 O . d l.v.J./   .     O     yXyXyXyXyXyXyXyXyX",
"yXyXyXyXyXyXyXO           8XrXrXrXwX6X3X3X6X>X1X2X4X4X2X&.+       k M b b m b m 7 .   f A.z.z._ O   > >       yXyXyXyXyXyXyXyXyX",
"yXyXyXyXyXyXyX  @       +XtXrXwX2X2X2X-X-X2X4X4X,X4X5X>X8X$.    7 z G c D c m z #     s F.h.Y.] +       yXyXyXyXyXyXyXyXyXyXyXyX",
"yXyXyXyXyXyXyXyX    X   +X8X9X2X2X3X*X    ;X0XtXtX6X>X4X1X3X2X&.  = M F M C j       O L F.u.8.L     .   yXyXyXyXyXyXyXyXyXyXyXyX",
"yXyXyXyXyXyXyXyXyX      +X8X1X2X5X2XO.  @.tXrXrXqX3X4X,X4X5X6X$X& o     O   O       d 7.G.0.y o     @   yXyXyXyXyXyXyXyXyXyXyXyX",
"yXyXyXyXyXyXyXyXyXyX  o N &X1X1X5X$X&   %XeXeX9X2X:X>X6X>X4X,X$X4   # O     O   # Q B.M.o.3   O . O   yXyXyXyXyXyXyXyXyXyXyXyXyX",
"yXyXyXyXyXyXyXyXyXyXyX  > #.-X3X#.+.  %.,X9XwX5X,X4X4X4X2X5X4X&X8 X 4 4 < < 2 4 [ S.s.q.> o X   &   yXyXyXyXyXyXyXyXyXyXyXyXyXyX",
"yXyXyXyXyXyXyXyXyXyXyXyX              %.5X,X2X>X7X>X4X2X5X<X2X$.O I M.j.l.G.n.L.i.R     . .   O yXyXyXyXyXyXyXyXyXyXyXyXyXyXyXyX",
"yXyXyXyXyXyXyXyXyXyXyXyXyXyXyX    #     $X5X2X2X2X2X4X4X4X:XJ X Y w.L.l.B.x.w.! O       . O yXyXyXyXyXyXyXyXyXyXyXyXyXyXyXyXyXyX",
"yXyXyXyXyXyXyXyXyXyXyXyXyXyXyXyXyX. . O 2 @X;X3X5X=X$X%XOXV .   P X.6.o.g 3 4   O   O O   yXyXyXyXyXyXyXyXyXyXyXyXyXyXyXyXyXyXyX",
"yXyXyXyXyXyXyXyXyXyXyXyXyXyXyXyXyXyXyXyX9   B J Z N o   o       X O O .   O O O >   . yXyXyXyXyXyXyXyXyXyXyXyXyXyXyXyXyXyXyXyXyX",
"yXyXyXyXyXyXyXyXyXyXyXyXyXyXyXyXyXyXyXyXyXS 0 e ; # O     O         X     O O yXyXyXyXyXyXyXyXyXyXyXyXyXyXyXyXyXyXyXyXyXyXyXyXyX",
"yXyXyXyXyXyXyXyXyXyXyXyXyXyXyXyXyXyXyXyXyXyXyXyXyXyXyXyXyXyXyXyXyXyXyXyXyXyXyXyXyXyXyXyXyXyXyXyXyXyXyXyXyXyXyXyXyXyXyXyXyXyXyXyX",
"yXyXyXyXyXyXyXyXyXyXyXyXyXyXyXyXyXyXyXyXyXyXyXyXyXyXyXyXyXyXyXyXyXyXyXyXyXyXyXyXyXyXyXyXyXyXyXyXyXyXyXyXyXyXyXyXyXyXyXyXyXyXyXyX",
"yXyXyXyXyXyXyXyXyXyXyXyXyXyXyXyXyXyXyXyXyXyXyXyXyXyXyXyXyXyXyXyXyXyXyXyXyXyXyXyXyXyXyXyXyXyXyXyXyXyXyXyXyXyXyXyXyXyXyXyXyXyXyXyX",
"yXyXyXyXyXyXyXyXyXyXyXyXyXyXyXyXyXyXyXyXyXyXyXyXyXyXyXyXyXyXyXyXyXyXyXyXyXyXyXyXyXyXyXyXyXyXyXyXyXyXyXyXyXyXyXyXyXyXyXyXyXyXyXyX",
"yXyXyXyXyXyXyXyXyXyXyXyXyXyXyXyXyXyXyXyXyXyXyXyXyXyXyXyXyXyXyXyXyXyXyXyXyXyXyXyXyXyXyXyXyXyXyXyXyXyXyXyXyXyXyXyXyXyXyXyXyXyXyXyX"
};
