/* XPM */
static char *result[] = {
/* columns rows colors chars-per-pixel */
"64 64 201 2 ",
"   c #020202",
".  c #090504",
"X  c #060905",
"o  c #0B0A05",
"O  c #03030A",
"+  c #0A050B",
"@  c #04090B",
"#  c #0A0A0C",
"$  c #130E0B",
"%  c #120A05",
"&  c #03120E",
"*  c #08130D",
"=  c #041707",
"-  c #15110C",
";  c #1D140C",
":  c #040212",
">  c #0A0515",
",  c #0B0913",
"<  c #0B061B",
"1  c #0F0C1D",
"2  c #110F10",
"3  c #120B1D",
"4  c #061312",
"5  c #051914",
"6  c #0B1715",
"7  c #121315",
"8  c #191616",
"9  c #1F1A13",
"0  c #1C1A19",
"q  c #1B161A",
"w  c #291E0D",
"e  c #231B15",
"r  c #0D231D",
"t  c #2E271E",
"y  c #0E0628",
"u  c #130C24",
"i  c #130D29",
"p  c #16112A",
"a  c #1A122C",
"s  c #191524",
"d  c #1B1533",
"f  c #1D1735",
"g  c #221E2F",
"h  c #231C35",
"j  c #251C3D",
"k  c #2D1E3E",
"l  c #221639",
"z  c #0B2621",
"x  c #122522",
"c  c #152D25",
"v  c #15322D",
"b  c #1A322D",
"n  c #193023",
"m  c #0F3A30",
"M  c #153430",
"N  c #1C3531",
"B  c #153C34",
"V  c #1A3B35",
"C  c #1E3B3B",
"Z  c #173E38",
"A  c #2B2624",
"S  c #2E2C2C",
"D  c #252327",
"F  c #312E2E",
"G  c #31312F",
"H  c #26233E",
"J  c #28223E",
"K  c #213E39",
"L  c #223735",
"P  c #3D3A39",
"I  c #333335",
"U  c #423F3E",
"Y  c #144136",
"T  c #1A413A",
"R  c #1A4034",
"E  c #1F1540",
"W  c #241A44",
"Q  c #2A1E44",
"!  c #291E4F",
"~  c #231946",
"^  c #2E1D52",
"/  c #1C3C46",
"(  c #2B2342",
")  c #2C214D",
"_  c #31254C",
"`  c #33294D",
"'  c #322040",
"]  c #2F2253",
"[  c #312653",
"{  c #332954",
"}  c #392C56",
"|  c #362A5D",
" . c #372B5B",
".. c #3C325D",
"X. c #3A2B66",
"o. c #3D3066",
"O. c #3E3069",
"+. c #43385F",
"@. c #42346A",
"#. c #453869",
"$. c #452F75",
"%. c #423373",
"&. c #473B74",
"*. c #4A347A",
"=. c #4B3C7B",
"-. c #4A3975",
";. c #503E7B",
":. c #444142",
">. c #494847",
",. c #4E4177",
"<. c #51437C",
"1. c #56487F",
"2. c #686768",
"3. c #726E6C",
"4. c #776B64",
"5. c #70706B",
"6. c #7A7575",
"7. c #807A7D",
"8. c #4C3C83",
"9. c #4E3D8B",
"0. c #4C3585",
"q. c #513D84",
"w. c #523D8D",
"e. c #543F95",
"r. c #553F9B",
"t. c #544385",
"y. c #55438B",
"u. c #5A468C",
"i. c #5B4A8D",
"p. c #584988",
"a. c #564293",
"s. c #594595",
"d. c #5B4A92",
"f. c #564399",
"g. c #5A449C",
"h. c #5C499C",
"j. c #574890",
"k. c #624C9E",
"l. c #664B9A",
"z. c #63529B",
"x. c #67529A",
"c. c #5B46A3",
"v. c #5C4AA3",
"b. c #5844A5",
"n. c #624CA5",
"m. c #644AA9",
"M. c #694FAC",
"N. c #6D55AA",
"B. c #765BAF",
"V. c #6349B7",
"C. c #6F55B0",
"Z. c #7253B4",
"A. c #7454BB",
"S. c #7A56BF",
"D. c #7A66AF",
"F. c #7653C3",
"G. c #7A56C4",
"H. c #7C59C6",
"J. c #7C55CB",
"K. c #7D5ACA",
"L. c #7755C9",
"P. c #7D59D2",
"I. c #7D55D0",
"U. c #8258BE",
"Y. c #8058CA",
"T. c #8057DA",
"R. c #8161CD",
"E. c #8D8A87",
"W. c #8C8887",
"Q. c #938C8C",
"!. c #9B9697",
"~. c #9E9A9A",
"^. c #949290",
"/. c #A1979A",
"(. c #A8A3A2",
"). c #B3ABAB",
"_. c #B2AEA5",
"`. c #BCB4B4",
"'. c #C5BCBC",
"]. c #CABEBE",
"[. c #C7C0BE",
"{. c #CBC0BF",
"}. c #D4C5BF",
"|. c #CDC4C2",
" X c #CCCAC9",
".X c #CCC7C5",
"XX c #D1C5C5",
"oX c #D2C9C6",
"OX c #D4CCCB",
"+X c #D1C6C8",
"@X c #DACFD1",
"#X c #DED4D4",
"$X c #D6D7D3",
"%X c #EDECEA",
"&X c #E9E6E3",
"*X c #F1EDEA",
"=X c #F5F1EF",
"-X c #FBFAF6",
";X c #FBFBF9",
":X c #F5F3F2",
">X c None",
/* pixels */
">X>X>X>X>X>X>X>X>X>X>X>X>X>X>X>X>X>X>X>X>X>X>X>X>X>X>X>X>X>X>X>X>X>X>X>X>X>X>X>X>X>X>X>X>X>X>X>X>X>X>X>X>X>X>X>X>X>X>X>X>X>X>X>X",
">X>X>X>X>X>X>X>X>X>X>X>X>X>X>X>X>X>X>X>X>X>X>X>X>X>X>X>X>X>X>X>X>X>X>X>X>X>X>X>X>X>X>X>X>X>X>X>X>X>X>X>X>X>X>X>X>X>X>X>X>X>X>X>X",
">X>X>X>X>X>X>X>X>X>X>X>X>X>X>X>X>X>X>X>X>X>X>X>X>X>X>X>X>X>X>X>X>X>X>X>X>X>X>X>X>X>X>X>X>X>X>X>X>X>X>X>X>X>X>X>X>X>X>X>X>X>X>X>X",
">X>X>X>X>X>X>X>X>X>X>X>X>X>X>X>X>X>X>X>X>X>X>X>X>X>X>X>X>X>X>X>X>X>X>X>X>X>X>X>X>X>X>X>X>X>X>X>X>X>X>X>X>X>X>X>X>X>X>X>X>X>X>X>X",
">X>X>X>X>X>X>X>X>X>X>X>X>X>X>X>X>X>X>X>X>X>X>X>X>X>X>X>X>X>X>X>X>X>X>X>X>X>X>X>X>X>X>X>X>X>X>X>X>X>X>X>X>X>X>X>X>X>X>X>X>X>X>X>X",
">X>X>X>X>X>X>X>X>X>X>X>X>X>X>X>X>X>X>X>X>X>X>X>X>X>X>X>X>X>X>X>X>X>X>X>X>X>X>X>X>X>X>X>X>X>X>X>X>X>X>X>X>X>X>X>X>X>X>X>X>X>X>X>X",
">X>X>X>X>X>X>X>X>X>X>X>X>X>X>X>X>X>X>X>X>X>X>X>X>X>X>X>X>X>X>X>X>X>X>X>X>X>X>X>X>X>X>X>X>X>X>X>X>X>X>X>X>X>X>X>X>X>X>X>X>X>X>X>X",
">X>X>X>X>X>X>X>X>X>X>X>X>X>X>X>X>X>X>X>X>X>X>X>X>X>X>X>X>X>X>X>X>X>X>X>X>X>X>X>X>X>X>X>X>X>X>X>X>X>X>X>X>X>X>X>X>X>X>X>X>X>X>X>X",
">X>X>X>X>X>X>X>X>X>X>X>X>X>X>X>X>X>X>X>X>X>X>X>X>X>X>X>X>X>X>X>X>X>X>X>X>X>X>X>X>X>X>X>X>X>X>X>X>X>X>X>X>X>X>X>X>X>X>X>X>X>X>X>X",
">X>X>X>X>X>X>X>X>X>X>X>X>X>X>X>X>X>X>X>X>X>X>X>X>X>X>X>X>X>X>X>X>X>X>X>X>X>X>X>X>X>X>X>X>X>X>X>X>X>X>X>X>X>X>X>X>X>X>X>X>X>X>X>X",
">X>X>X>X>X>X>X>X>X>X>X>X>X>X>X>X>X>X>X>X>X>X>X>X>X>X>X>X>X>X>X>X>X>X>X>X>X>X>X>X>X>X>X>X>X>X>X>X>X>X>X>X>X>X>X>X>X>X>X>X>X>X>X>X",
">X>X>X>X>X>X>X>X>X>X>X>X>X>X>X>X>X>X>X>X>X>X>X>X>X>X>X>X>X>X>X>X>X>X>X>X>X>X>X>X>X>X>X>X>X>X>X>X>X>X>X>X>X>X>X>X>X>X>X>X>X>X>X>X",
">X>X>X>X>X>X>X>X>X>X>X>X>X>X>X>X>X>X>X>X>X>X>X>X>X>X>X>X>X>X>X>X>X>X>X>X>X>X>X>X>X>X>X>X>X>X>X>X>X>X>X>X>X>X>X>X>X>X>X>X>X>X>X>X",
">X>X>X>X>X>X>X>X>X>X>X>X>X>X>X>X>X>X>X>X>X>X>X>X>X>X>X>X>X>X>X>X>X>X>X>X>X>X>X>X>X>X>X>X>X>X>X>X>X>X>X>X>X>X>X>X>X>X>X>X>X>X>X>X",
">X>X>X>X>X>X>X>X>X>X>X>X>X>X>X>X>X>X>X>X>X>X>X>X>X>X>X>X>X>X>X>X>X>X>X>X>X>X>X>X>X>X>X>X>X>X>X>X>X>X>X>X>X>X>X>X>X>X>X>X>X>X>X>X",
">X>X>X>X>X>X>X>X>X>X>X>X>X>X>X>X>X>X>X>X>X>X>X>X>X>X>X>X>X>X>X>X>X>X>X>X>X>X>X>X>X>X>X>X>X>X>X>X>X>X>X>X>X>X>X>X>X>X>X>X>X>X>X>X",
">X>X>X>X>X>X>X>X>X>X>X>X>X>X>X>X>X>X>X>X>X>X>X>X>X>X>X>X>X>X>X>X>X>X>X>X>X>X>X>X>X>X>X>X>X>X>X>X>X>X>X>X>X>X>X>X>X>X>X>X>X>X>X>X",
">X>X>X>X>X>X>X>X>X>X>X>X>X>X>X>X>X>X>X>X>X>X>X>X>X>X>X>X>X>X>X>X>X>X>X>X>X>X>X>X>X>X>X>X>X>X>X>X>X>X>X>X>X>X>X>X>X>X>X>X>X>X>X>X",
">X>X>X>X>X>X>X>X>X>X>X>X>X>X>X>X>X>X>X>X>X>X>X>X>X>X>X>X>X>X>X>X>X>X>X>X>X>X>X>X>X>X>X>X>X>X>X>X>X>X>X>X>X>X>X>X>X>X>X>X>X>X>X>X",
">X>X>X>X>X>X>X>X>X>X>X>X>X>X>X>X>X>X>X>X>X>X>X>X>X>X>X>X>X>X>X>X>X>X>X>X>X>X>X>X>X>X>X>X>X>X>X>X>X>X>X>X>X>X>X>X>X>X>X>X>X>X>X>X",
">X>X>X>X>X>X>X>X>X>X>X>X>X>X>X>X>X>X>X>X>X>X>X>X>X>X>X>X>X>X>X>X>X>X>X>X>X>X>X>X>X>X>X>X>X>X>X>X>X>X>X>X>X>X>X>X>X>X>X>X>X>X>X>X",
">X>X>X>X>X>X>X>X>X>X>X>X>X>X>X>X>X>X>X>X>X>X>X>X-                             >X>X>X>X>X>X>X>X>X>X>X>X>X>X>X>X>X>X>X>X>X>X>X>X>X",
">X>X>X>X>X>X>X>X>X>X>X>X>X>X>X>X>X>X>X>X      2   @ O O           O O O X               >X>X>X>X>X>X>X>X>X>X>X>X>X>X>X>X>X>X>X>X",
">X>X>X>X>X>X>X>X>X>X>X>X>X>X>X>X>X>XX O O O O       X.$.*.*.*.*.*.0.0.8.-._     O O   O O % >X>X>X>X>X>X>X>X>X>X>X>X>X>X>X>X>X>X",
">X>X>X>X>X>X>X>X>X>X>X>X>X>X>X>Xo X       > ! t.D.Z.G.K.H.J.H.H.G.H.F.L.J.K.H.x.X.^ 3         >X>X>X>X>X>X>X>X>X>X>X>X>X>X>X>X>X",
">X>X>X>X>X>X>X>X>X>X>X>X>X>X- X   X O ( D.N.S.Y.K.J.H.H.H.H.H.H.H.H.H.H.H.L.G.H.G.k.t.+.:     X >X>X>X>X>X>X>X>X>X>X>X>X>X>X>X>X",
">X>X>X>X>X>X>X>X>X>X>X>X>X#       _ N.G.K.J.K.H.H.K.K.H.H.H.H.H.H.G.H.H.H.K.H.P.Z.l.r.f.%.>     o >X>X>X>X>X>X>X>X>X>X>X>X>X>X>X",
">X>X>X>X>X>X>X>X>X>X>X>X>XX   . *.B.G.L.Y.Y.H.G.G.H.H.H.H.H.H.G.H.H.H.H.G.G.H.A.P.V.h.i.s.8.j       >X>X>X>X>X>X>X>X>X>X>X>X>X>X",
">X>X>X>X>X>X>X>X>X>X>X+ # X u u.Y.K.F.H.H.H.H.G.K.G.G.K.G.G.H.H.G.G.G.G.G.G.F.A.M.N.e.s.s.g.#.2 O . >X>X>X>X>X>X>X>X>X>X>X>X>X>X",
">X>X>X>X>X>X>X>X>X>X>XO X + X.A.J.J.G.G.H.H.G.G.G.G.G.G.J.T.J.G.A.Z.Z.M.g.h.g.r.s.s.g.g.i.h.j   O O - >X>X>X>X>X>X>X>X>X>X>X>X>X",
">X>X>X>X>X>X>X>X>X>X>XO    .R.G.Y.G.Y.S.H.G.A.A.A.A.A.Z.x.l.g.g.s.e.e.a.d.y.u.f.s.p.d.h.k.q.j   .       X   X . >X>X>X>X>X>X>X>X",
">X>X>X>X>X>X>X>X>X>X>XX   $.T.U.K.F.S.m.k.j.h.c.h.h.g.c.c.v.n.a.8.t.t.0.w.b.v.h.h.b.b.9._ i           u u O         >X>X>X>X>X>X",
">X>X>X>X>X>X>X>X>X>X$     -.Y.n.l.j.s.h.e.s.[ [ [ [ [ [ [ _ Q 1         > ( ] ) ! =.a.! .       : f #.y.u.;.{ O X # e >X>X>X>X>X",
">X>X>X>X>X>X>X>X>X>XO O .  .n.a.b.a.X.( > #                                   X     X     X u ] =.d.e.a.f.f.y.Q O X O >X>X>X>X>X",
">X>X>X>X>X>X>X>X>X>X. + ..g.s.) 3 ,                                           X           . ) d.f.h.y.a.i.s.g.t.l X .   >X>X>X>X",
">X>X>X>X>X>X>X>X>X>X  + E %.~           O   X + O                 d a O                       h 1.a.b.g.s.s.y.h.8.o O   >X>X>X>X",
">X>X>X>X>X>X>X>X>X>XO X         X         # l } ;.t.=.8.9.9.9.9.9.g.j.8.;.=.-.Q g u : .     X   u ,.j.s.f.s.s.h.g.+ O     >X>X>X",
">X>X>X>X>X>X>X>X>X>X  X O         1 _ @.%.y.k.g.e.r.g.g.s.s.s.s.s.s.g.g.s.g.g.s.k.i.| i         O O +.y.c.g.s.a.a.} @     >X>X>X",
">X>X>X>X>X>X>X>X>XO   . O X > l X.d.b.v.&.W H ( j k ( Q k k k k k H H H ( ~ &.i.a.f.y.z.O.< .   O   O @.v.w.s.e.u.h .     >X>X>X",
">X>X>X>X>X>X>X>Xo   O .   a p.s.V.9.f > +                               .   : u [ t.d.s.s.#.p       O ) f.a.u.s.o.  .     >X>X>X",
">X>X>X>X>X>X>X>X    X X [ c.f.y.f O   . . O                                       y d.f.j.c.!       O a y.j.f.z.p       >X>X>X>X",
">X>X>X>X>X>X>X  O     i 9.n.=.u   O O   X = z v B v b b N N B M M B v v z 4       # &.g.f.c.&.3         [ d.a.X.O X   >X>X>X>X>X",
">X>X>X>X>X>X>XO   # @ { n.} + O     X r K / R B B r 5 & 4 & & 5 v T B Y B N x O     f d.a.f.t.l         ~ i.g.|     # >X>X>X>X>X",
">X>X>X>X>X>X>X  X O O O.n.`       5 B V M T b 5 X     A F S S 7 7 x Z B V V V 5     @ { g.s.g.o.  O   O . { } .     >X>X>X>X>X>X",
">X>X>X>X>X>X>X  . . u =.m.[     # c r r x x O # 6.W.W.|.{.XX@X/.* @ N B T B B z       y 8.u.c.@.O O         O   X >X>X>X>X>X>X>X",
">X>X>X>X>X>X        Q k.s.i.h O X #       . A ).XXOXoXXX{.|.|..Xq . L T T B B B 5     : t.y.b.@.      O     O O >X>X>X>X>X>X>X>X",
">X>X>X>X>X>X    X   ! h.@.y   c 3.2.Q.'.'.6.`. X.XXX|.|.XX{.|.OXq   N B B Z V R v     : t.y.c.@.            + + >X>X>X>X>X>X>X>X",
">X>X>X>X>X>X      . + 3 . F ~.$X;X&X.X|.{.XXXX.X].XX|.|..X{.!.S     M C B B Z T c     O u.s.n.%.:   O     O   >X>X>X>X>X>X>X>X>X",
">X>X>X>X>X>X>X  O .       E.-X-X;X%X|.XX'.oXoX|.{.|.{..XQ.8       6 N B Z B B B n     , q.s.g.#.O     , .     >X>X>X>X>X>X>X>X>X",
">X>X>X>X>X>X>X+ O       P =X-X%XXX|.|.'.Q.@X[.|.OX|.XX|..X(.    @ b T m Z m Z C *     O t.r.h.#.O O     >X>X>X>X>X>X>X>X>X>X>X>X",
">X>X>X>X>X>X>X>X    X   :.OX#XXX}.oX).A   ^.&X*X=X#XXX].OX]. X!.7   M K V K v @   X . < w.r.u.) O       >X>X>X>X>X>X>X>X>X>X>X>X",
">X>X>X>X>X>X>X>X>X      P #X'.XXXXOX3.  F  X;X-X*X|.|.{.{.+X.X.X0   O   X     O .   p ..k.y.Q . .     O >X>X>X>X>X>X>X>X>X>X>X>X",
">X>X>X>X>X>X>X>X>X>Xo # 7 U.$X}.OX(.A   2.;X-X&X[.{.XX{.XXXX'.|.D   O O     X     d 0.n.-.3 O     O   >X>X>X>X>X>X>X>X>X>X>X>X>X",
">X>X>X>X>X>X>X>X>X>X>X. O I ~.}.3.>.# P ].OX&XOX{.|.|.|.{.XX}.oX0 X # : 1 O + < _ p.9.<.h O . X     9 >X>X>X>X>X>X>X>X>X>X>X>X>X",
">X>X>X>X>X>X>X>X>X>X>X>X>Xo =       X U '.|.{.|.oX.X|.XXXX{..XE.# O <.h.c.h.g.h.t...<           9 >X>X>X>X>X>X>X>X>X>X>X>X>X>X>X",
">X>X>X>X>X>X>X>X>X>X>X>X>X>X>X-         3.OXXX|.{.|.XXXXXX'.5.  s <.h.g.d.y.y.} < O             >X>X>X>X>X>X>X>X>X>X>X>X>X>X>X>X",
">X>X>X>X>X>X>X>X>X>X>X>X>X>X>X>X>Xe X O # 4._.oX{.`./.!.~.G .   s -.*.O.E < <       +   . O - >X>X>X>X>X>X>X>X>X>X>X>X>X>X>X>X>X",
">X>X>X>X>X>X>X>X>X>X>X>X>X>X>X>X>X>X>X>XA   q :.P S             @         O O     X o . >X>X>X>X>X>X>X>X>X>X>X>X>X>X>X>X>X>X>X>X",
">X>X>X>X>X>X>X>X>X>X>X>X>X>X>X>X>X>X>X>X>X>X>Xw t     O   .     .             >X>X>X>X>X>X>X>X>X>X>X>X>X>X>X>X>X>X>X>X>X>X>X>X>X",
">X>X>X>X>X>X>X>X>X>X>X>X>X>X>X>X>X>X>X>X>X>X>X>X>X>X>X>X>X>X>X>X>X>X>X>X>X>X>X>X>X>X>X>X>X>X>X>X>X>X>X>X>X>X>X>X>X>X>X>X>X>X>X>X",
">X>X>X>X>X>X>X>X>X>X>X>X>X>X>X>X>X>X>X>X>X>X>X>X>X>X>X>X>X>X>X>X>X>X>X>X>X>X>X>X>X>X>X>X>X>X>X>X>X>X>X>X>X>X>X>X>X>X>X>X>X>X>X>X",
">X>X>X>X>X>X>X>X>X>X>X>X>X>X>X>X>X>X>X>X>X>X>X>X>X>X>X>X>X>X>X>X>X>X>X>X>X>X>X>X>X>X>X>X>X>X>X>X>X>X>X>X>X>X>X>X>X>X>X>X>X>X>X>X",
">X>X>X>X>X>X>X>X>X>X>X>X>X>X>X>X>X>X>X>X>X>X>X>X>X>X>X>X>X>X>X>X>X>X>X>X>X>X>X>X>X>X>X>X>X>X>X>X>X>X>X>X>X>X>X>X>X>X>X>X>X>X>X>X",
">X>X>X>X>X>X>X>X>X>X>X>X>X>X>X>X>X>X>X>X>X>X>X>X>X>X>X>X>X>X>X>X>X>X>X>X>X>X>X>X>X>X>X>X>X>X>X>X>X>X>X>X>X>X>X>X>X>X>X>X>X>X>X>X"
};
