/* XPM */
static char *result[] = {
/* columns rows colors chars-per-pixel */
"64 64 162 2 ",
"   c #020202",
".  c #0A0404",
"X  c #050803",
"o  c #0C0A06",
"O  c #04050A",
"+  c #0B040B",
"@  c #06090C",
"#  c #0A0B0C",
"$  c #110B05",
"%  c #080713",
"&  c #070A11",
"*  c #0B0E13",
"=  c #0F0F1A",
"-  c #0C1116",
";  c #0E1319",
":  c #0C1A1E",
">  c #131314",
",  c #191210",
"<  c #13161B",
"1  c #141B1D",
"2  c #191C1D",
"3  c #1C201D",
"4  c #151E21",
"5  c #1B1C24",
"6  c #1A1F2A",
"7  c #162326",
"8  c #1D2125",
"9  c #1C2429",
"0  c #1D2D28",
"q  c #222426",
"w  c #212529",
"e  c #232A2F",
"r  c #282A2D",
"t  c #252533",
"y  c #262B32",
"u  c #2A2E35",
"i  c #2B2C3A",
"p  c #253236",
"a  c #2C3136",
"s  c #2E343B",
"d  c #32353D",
"f  c #33393E",
"g  c #393D3E",
"h  c #2D3C45",
"j  c #333641",
"k  c #353B42",
"l  c #3A3E46",
"z  c #3D3F4C",
"x  c #354247",
"c  c #3C4145",
"v  c #3C424B",
"b  c #344849",
"n  c #3D4B4E",
"m  c #3D4752",
"M  c #3E4953",
"N  c #3E4C5B",
"B  c #3B5155",
"V  c #3D5458",
"C  c #3D595C",
"Z  c #3D5C62",
"A  c #41464E",
"S  c #42494E",
"D  c #414751",
"F  c #434B56",
"G  c #494E55",
"H  c #414759",
"J  c #444D59",
"K  c #494E5B",
"L  c #504F5B",
"P  c #415256",
"I  c #4A5057",
"U  c #45525B",
"Y  c #4B525C",
"T  c #435A5E",
"R  c #4C595F",
"E  c #51565D",
"W  c #40605F",
"Q  c #494F60",
"!  c #435060",
"~  c #4D5663",
"^  c #435D62",
"/  c #4C5B62",
"(  c #535B64",
")  c #545E6A",
"_  c #5A5E69",
"`  c #446164",
"'  c #486365",
"]  c #46646A",
"[  c #4A6469",
"{  c #486A6E",
"}  c #56636D",
"|  c #5B646D",
" . c #57686A",
".. c #5D696F",
"X. c #4D6C72",
"o. c #566270",
"O. c #5C6672",
"+. c #536C73",
"@. c #5E6874",
"#. c #5F6A79",
"$. c #67686A",
"%. c #616772",
"&. c #616B76",
"*. c #686C73",
"=. c #606778",
"-. c #636C79",
";. c #686B7A",
":. c #637077",
">. c #6F7172",
",. c #67717B",
"<. c #6A727A",
"1. c #5D7C84",
"2. c #626B80",
"3. c #667183",
"4. c #6F7580",
"5. c #61818F",
"6. c #6E959D",
"7. c #72949E",
"8. c #7394A3",
"9. c #7EA4AD",
"0. c #919EA5",
"q. c #89A4B0",
"w. c #87ACB5",
"e. c #86AFB9",
"r. c #90AEBA",
"t. c #8CB1BB",
"y. c #9FB3BC",
"u. c #8CB4C2",
"i. c #8EBFCD",
"p. c #94B5C3",
"a. c #94BDCB",
"s. c #94BFD2",
"d. c #A9BBC2",
"f. c #A1BECA",
"g. c #95C4CE",
"h. c #9DC2CF",
"j. c #95C4D2",
"k. c #99C3D3",
"l. c #9ECAD5",
"z. c #95C4D8",
"x. c #98C4D8",
"c. c #9CCBDA",
"v. c #9BD0DF",
"b. c #A5C8D1",
"n. c #A2CEDA",
"m. c #ACCDDB",
"M. c #B4CFD8",
"N. c #B4D2DD",
"B. c #B5D8E2",
"V. c #CBDFE4",
"C. c #CADFE9",
"Z. c #DFEFFB",
"A. c #EBEFF3",
"S. c #F3E9F2",
"D. c #F4EEF8",
"F. c #EDF3F6",
"G. c #E7F7F9",
"H. c #F3F3F5",
"J. c #F5F3FA",
"K. c #F9F5FB",
"L. c #F6FBFC",
"P. c none",
/* pixels */
"P.P.P.P.P.P.P.P.P.P.P.P.P.P.P.P.P.P.P.P.P.P.P.P.P.P.P.P.P.P.P.P.P.P.P.P.P.P.P.P.P.P.P.P.P.P.P.P.P.P.P.P.P.P.P.P.P.P.P.P.P.P.P.P.",
"P.P.P.P.P.P.P.P.P.P.P.P.P.P.P.P.P.P.P.P.P.P.P.P.P.P.P.P.P.P.P.P.P.P.P.P.P.P.P.P.P.P.P.P.P.P.P.P.P.P.P.P.P.P.P.P.P.P.P.P.P.P.P.P.",
"P.P.P.P.P.P.P.P.P.P.P.P.P.P.P.P.P.P.P.P.P.P.P.P.P.P.P.P.P.P.P.P.P.P.P.P.P.P.P.P.P.P.P.P.P.P.P.P.P.P.P.P.P.P.P.P.P.P.P.P.P.P.P.P.",
"P.P.P.P.P.P.P.P.P.P.P.P.P.P.P.P.P.P.P.P.P.P.P.P.P.P.P.P.P.P.P.P.P.P.P.P.P.P.P.P.P.P.P.P.P.P.P.P.P.P.P.P.P.P.P.P.P.P.P.P.P.P.P.P.",
"P.P.P.P.P.P.P.P.P.P.P.P.P.P.P.P.P.P.P.P.P.P.P.P.    . X   X                           P.P.P.P.P.P.P.P.P.P.P.P.P.P.P.P.P.P.P.P.P.",
"P.P.P.P.P.P.P.P.P.P.P.P.P.P.P.P.P.P.P.P.P.P.  O O   . O ; * ; - * - ; - ; * >   .           P.P.P.P.P.P.P.P.P.P.P.P.P.P.P.P.P.P.",
"P.P.P.P.P.P.P.P.P.P.P.P.P.P.P.P.P.P.P.P..   . X   > f ( ;.&.<.*.&.*.&.&.-.*.| c d > % @     O > P.P.P.P.P.P.P.P.P.P.P.P.P.P.P.P.",
"P.P.P.P.P.P.P.P.P.P.P.P.P.P.P.P.P.P.P.$ O   # 5 R 4.O.o.o.@.@.| O.O.O.O.O.O.} @.&.&.-._ u 8 X o   P.P.P.P.P.P.P.P.P.P.P.P.P.P.P.",
"P.P.P.P.P.P.P.P.P.P.P.P.P.P.P.P.P.P.P.X   O z ;.#.o.@.O.@.O.O.@.O.@.@.@.#.O.#.#.O.%.O.#.#.@.s   O X P.P.P.P.P.P.P.P.P.P.P.P.P.P.",
"P.P.P.P.P.P.P.P.P.P.P.P.P.P.P.P.P.P.      9 _ =.O.@...O.-.| @.-.@.O.O.@.O.O.-.&.-.&.&.-.O.@...c @ O   P.P.P.P.P.P.P.P.P.P.P.P.P.",
"P.P.P.P.P.P.P.P.P.P.P.P.P.P.P.P.P.+ . X > R &.%.O.-.@.@.O.-.O.%.O.&.@.o.O.@.j 9 w 9 w w k O.| <.R q O o P.P.P.P.P.P.P.P.P.P.P.P.",
"P.P.P.P.P.P.P.P.P.P.P.P.P.P.P.P.P.*   O v @.O.O.@.O.O.-.| @.%.( i d w & & % X X X   X   X # # @ r q   X   P.P.P.P.P.P.P.P.P.P.P.",
"P.P.P.P.P.P.P.P.P.P.P.P.P.P.P.P.P.O X f 3.o.@.| @.O.@.#.O.( q #           .       O       $   .     .   @ $ P.P.P.P.P.P.P.P.P.P.",
"P.P.P.P.P.P.P.P.P.P.P.P.P.P.P.P.P.    x 2.O.@.@.@.@.@.O.G o     .       w |  .[ 9.u.p.1.{ +.T o     * .       P.P.P.P.P.P.P.P.P.",
"P.P.P.P.P.P.P.P.P.P.P.P.P.P.P.P.o   X f 3.O.@.@.O.O.O...@       : V } 9.e.l.v.c.s.b.m.N.B.N.N.y.d.0.$.>.g   X       P.P.P.P.P.P.",
"P.P.P.P.P.P.P.P.P.P.P.P.P.P.P.P.  # < @.#.@.@.@.@.@.:.s       3 / X.m.j.j.j.j.g.V.K.H.J.K.K.D.K.S.J.K.K.D.&.*   O   P.P.P.P.P.P.",
"P.P.P.P.P.P.P.P.P.P.P.P.P.P.P.      t <.O.@.@.O.O.#./ <     O b ` X.g.z.z.l.c.a.M.G.J.H.A.F.L.F.H.F.H.F.Z.b.q.T O O O P.P.P.P.P.",
"P.P.P.P.P.P.P.P.P.P.P.P.P.P.P.  X @ R @.O.O.@.O.@.O.Y     . ; ^ ` X.a.z.j.g.g.j.g.g.h.N.J.J.H.K.K.K.F.C.a.j.j.n.h   #   P.P.P.P.",
"P.P.P.P.P.P.P.P.P.P.P.P.P.P.P.    ; ( O.@.@.@.O.@.O.Y X     b ` ^ X.l.j.z.g.j.k.j.g.s.z.g.g.g.l.g.g.f.h.j.j.j.g.p.1     P.P.P.P.",
"P.P.P.P.P.P.P.P.P.o     O         & G -.O.@.@.O.@.O.Y O X   n ` ` X.t.x.z.j.j.j.j.j.g.j.z.c.x.x.x.x.c.i.v.j.j.u.r.9 .   P.P.P.P.",
"P.P.P.P.P.P.  # O + . O   o     . y D ) @.@.@.O.@.O.Y .     n ` Z ` Z t.a.x.z.k.j.j.j.j.j.g.j.g.g.l.i.c.i.k.w.{ T -     P.P.P.P.",
"P.P.P.P.P.  X X   @ 4 ( ( c     O d F / :.@.@.O.#.O.Y O   . O f T T W Z 1.9.j.j.s.j.k.j.k.j.k.k.j.j.g.a.5.5.` ' 1       P.P.P.P.",
"P.P.P.P.  +   # L O.@.} R d     X j K ~ &.O.@.@.O.%.} 9   .   e / ' C ` Z ^ Z 7.6.7.7.7.8.6.8.8.8.8.,.Z T T ' B , . X P.P.P.P.P.",
"P.P.P.  .     | %.O.&.~ G d     O d J Y O.O.O.@.&.%.} ,.*   o   p ^ ` Z Z ^ ` C ^ C ^ ^ T T ^ ^ C ^ Z W ' R S 8       P.P.P.P.P.",
"P.P.P.  X   6 ) o.O.O.K F f     O j F F ) #.O.O.@.@.#.3.a     X O x R T [ Z Z ] ^ C Z ` ] ^ ^ ^ ` Z T U p @ . . O   P.P.P.P.P.P.",
"P.P.P.O .   z O.O.} / J P d       j Q J ) O.@.O.@.@.O.&.&.I O     O 1 1 3 x P B V U B W V / b 7 1 7 3 @ #       P.P.P.P.P.P.P.P.",
"P.P.P.      D o.~ J J M J f     O s K M Y O.@.@.O.@.@.#.O.%.y                       1 0 X               X .   P.P.P.P.P.P.P.P.P.",
"P.P.P.      d U M F J F G d     O j K H K @.O.@.O.@.O.-.@.;.} K u                     .         O       O X     P.P.P.P.P.P.P.P.",
"P.P.P.    @ k M U F J M J j     O s J H Q &.O.@.@.-.O.-.%.O.#.O.*.-.<.F c c c l 8   O @   q c k / -.<.-.&.f     P.P.P.P.P.P.P.P.",
"P.P.P.    < G F F F J M K f     O j J F K O.O.&.O.@.O.O.O.O.o.-.,.@.&.| } O.| %.&.&.O.&.$.&.,.o.O.o.O.O.@.a   X P.P.P.P.P.P.P.P.",
"P.P.P.    ; G F J F J N K f     O j J F K O.O.@.O.@.-.O.O.O.#.@.O.#.O.&.&.@.&.&.@.&.-.O.#.+.@.#.@.@.@.| ,.s     P.P.P.P.P.P.P.P.",
"P.P.P.    < G M J F J J P f     O s K M J ) #.O.-.O.@.O.O.=.@.@.@.@.@.O.@.@.O.@.@.@.O.O.#.O.@.O.@.@.@.O.<.u     P.P.P.P.P.P.P.P.",
"P.P.P.    < I M J J M U M f     @ j H J F F o.#.O.@.&.O.@.@.O.O.@.@.@.O.@.@.@.O.@.@.O.@.@.@.@.@.@.@.@.O.,.p   . P.P.P.P.P.P.P.P.",
"P.P.P.    < I M J F J M G j     O j J J J M ) O.O.-.O.&.@.@.@.-.@.@.@.@.@.@.@.@.@.@.@.@.@.O.@.@.@.O.@.@.,.a     P.P.P.P.P.P.P.P.",
"P.P.P.    < I M J F J J F w     O j J J M J J ) O.O.O.O.O.@.%.O.@.@.@.@.@.@.@.@.@.@.@.@.@.@.@.@.@.O.@.O.,.y   . P.P.P.P.P.P.P.P.",
"P.P.P.    < G J M J J J v ;     O j J J M J F F ~ o.-.%.O.-.=.O.O.@.@.O.@.@.@.@.@.&.@.@.&.O.O.O.@.@.@.O.,.u   . P.P.P.P.P.P.P.P.",
"P.P.P.    < G J J F M K c =     O d J F F F F F F K ~ O.=.%.O.%.&.&.@.@.@.@.@.@.@.@.@.@.O.O.O.&.@.O.O.O.-.u     P.P.P.P.P.P.P.P.",
"P.P.P.    < Y F F F F M v 5     O j H F F H F J F F F K ~ | =.O.O.O.O.@.O.O.@.@.@.@.@.@.&.@.@.O.@.O.O.O.,.a     P.P.P.P.P.P.P.P.",
"P.P.P.    O k F J F U m I d     O j K H F F F F J F F F J F K ) O.O.@.@.@.O.O.O.@.@.O.O.O.O.O.O.&.&.&.} ) 9   . P.P.P.P.P.P.P.P.",
"P.P.P.    O p J M F F M G a     O j J K M F F F F F F F H J J J M K ~ ) O.@.&.-.@.-.&.-.@.&.&.&.} ) Y M U 9     P.P.P.P.P.P.P.P.",
"P.P.P.    O q v H F F F J j O   O j K J J F F F J F F F F J F F F F m M F U K G J K F J K J K K F M M F I w     P.P.P.P.P.P.P.P.",
"P.P.P.        A F G F J J l     O d H F J F F F F F F F F F F F J F F F M F F F F F F F F F D F F J J M S 2     P.P.P.P.P.P.P.P.",
"P.P.P.P.  X     E F m m F d     O j J F J J F F F F F F F F F F F F F K K F F F F F F F F J F F F F F K a   . + P.P.P.P.P.P.P.P.",
"P.P.P.P.P.,   X * s U M N u &   O j K F F F F F F F F F F F J F F F F F F M F K F K F J F J J K J F F U s O   P.P.P.P.P.P.P.P.P.",
"P.P.P.P.P.P.          = d f     O d K F F F F F F F F F J J m F M N F J M J F D Y G J K K K K F M D M D q   O P.P.P.P.P.P.P.P.P.",
"P.P.P.P.P.P.P.    X O O     .   X ; D D J F F F F F F K M M U v s d f d s k u &         > l F F Y F ! v + O   P.P.P.P.P.P.P.P.P.",
"P.P.P.P.P.P.P.P.P.P.P.    .     O   t S M F F J J F F F F U D = O         O               s F J F F J c >     P.P.P.P.P.P.P.P.P.",
"P.P.P.P.P.P.P.P.P.P.P.P.P.P.P.P.  @ 4 ~ M F F F F F G G N J D O O O       O .     2 1 < 6 D F F Q M M 4       P.P.P.P.P.P.P.P.P.",
"P.P.P.P.P.P.P.P.P.P.P.P.P.P.P.P.    6 Q H F F F F F M K J M Y       P.P.P.P.    O S F H F F J M F D F 4     P.P.P.P.P.P.P.P.P.P.",
"P.P.P.P.P.P.P.P.P.P.P.P.P.P.P.P.@   5 Q M F F F F F F F F F G       P.P.P.P.      D m F F F F J F F G 3   O P.P.P.P.P.P.P.P.P.P.",
"P.P.P.P.P.P.P.P.P.P.P.P.P.P.P.P.O   5 Q S G F F F F F F F D K       P.P.P.P.      D J F F F F G M Y u   X   P.P.P.P.P.P.P.P.P.P.",
"P.P.P.P.P.P.P.P.P.P.P.P.P.P.P.P.%   5 Q n F F F F F F F F F G       P.P.P.P.      d F F J D F F D K q O   P.P.P.P.P.P.P.P.P.P.P.",
"P.P.P.P.P.P.P.P.P.P.P.P.P.P.P.P.%   5 Q n F F F F F F F F M G       P.P.P.P.      - F J F F F F J x @ O   P.P.P.P.P.P.P.P.P.P.P.",
"P.P.P.P.P.P.P.P.P.P.P.P.P.P.P.P.    5 K M m F K D F F M F Y u   O   P.P.P.P.P.    ; U N U G D G n f X O + P.P.P.P.P.P.P.P.P.P.P.",
"P.P.P.P.P.P.P.P.P.P.P.P.P.P.P.P.  O + l J F J F F F K F K j *       P.P.P.P.P.#     > r e t i t =   O % P.P.P.P.P.P.P.P.P.P.P.P.",
"P.P.P.P.P.P.P.P.P.P.P.P.P.P.P.P.  O   y U J F M U F M H v w       P.P.P.P.P.P.  .   & X             O   P.P.P.P.P.P.P.P.P.P.P.P.",
"P.P.P.P.P.P.P.P.P.P.P.P.P.P.P.P.P.. X 5 G D G G F J v s *         P.P.P.P.P.P.P.P.  o   . . + + + + P.P.P.P.P.P.P.P.P.P.P.P.P.P.",
"P.P.P.P.P.P.P.P.P.P.P.P.P.P.P.P.P.O     * ; y a = > @         P.P.P.P.P.P.P.P.P.P.P.P.P.P.P.P.P.P.P.P.P.P.P.P.P.P.P.P.P.P.P.P.P.",
"P.P.P.P.P.P.P.P.P.P.P.P.P.P.P.P.P.  *               X   O   P.P.P.P.P.P.P.P.P.P.P.P.P.P.P.P.P.P.P.P.P.P.P.P.P.P.P.P.P.P.P.P.P.P.",
"P.P.P.P.P.P.P.P.P.P.P.P.P.P.P.P.P.P.P.P.          P.P.P.P.P.P.P.P.P.P.P.P.P.P.P.P.P.P.P.P.P.P.P.P.P.P.P.P.P.P.P.P.P.P.P.P.P.P.P.",
"P.P.P.P.P.P.P.P.P.P.P.P.P.P.P.P.P.P.P.P.P.P.P.P.P.P.P.P.P.P.P.P.P.P.P.P.P.P.P.P.P.P.P.P.P.P.P.P.P.P.P.P.P.P.P.P.P.P.P.P.P.P.P.P.",
"P.P.P.P.P.P.P.P.P.P.P.P.P.P.P.P.P.P.P.P.P.P.P.P.P.P.P.P.P.P.P.P.P.P.P.P.P.P.P.P.P.P.P.P.P.P.P.P.P.P.P.P.P.P.P.P.P.P.P.P.P.P.P.P.",
"P.P.P.P.P.P.P.P.P.P.P.P.P.P.P.P.P.P.P.P.P.P.P.P.P.P.P.P.P.P.P.P.P.P.P.P.P.P.P.P.P.P.P.P.P.P.P.P.P.P.P.P.P.P.P.P.P.P.P.P.P.P.P.P.",
"P.P.P.P.P.P.P.P.P.P.P.P.P.P.P.P.P.P.P.P.P.P.P.P.P.P.P.P.P.P.P.P.P.P.P.P.P.P.P.P.P.P.P.P.P.P.P.P.P.P.P.P.P.P.P.P.P.P.P.P.P.P.P.P."
};
