/* XPM */
static char *result[] = {
/* columns rows colors chars-per-pixel */
"64 64 230 2 ",
"   c #35662C",
".  c #2C5925",
"X  c #45753B",
"o  c #3F6E31",
"O  c #4D753C",
"+  c #2F5724",
"@  c #3E6D34",
"#  c #37672F",
"$  c #407035",
"%  c #3B662E",
"&  c #326329",
"*  c #426B35",
"=  c #2E5B26",
"-  c #437139",
";  c #426F35",
":  c #3E6B31",
">  c #416E37",
",  c #40723A",
"<  c #3E6A35",
"1  c #4A763C",
"2  c #366B2D",
"3  c #54854B",
"4  c #37682F",
"5  c #2A5A23",
"6  c #3A672D",
"7  c #396A2E",
"8  c #437137",
"9  c #38672E",
"0  c #3C682E",
"q  c #3B6830",
"w  c #437138",
"e  c #396932",
"r  c #42743A",
"t  c #4C7840",
"y  c #417137",
"u  c #4E8244",
"i  c #295F22",
"p  c #4C8141",
"a  c #4B7D3F",
"s  c #315E24",
"d  c #2E6127",
"f  c #2E5E29",
"g  c #37652D",
"h  c #2E6227",
"j  c #4D743E",
"k  c #466F39",
"l  c #30602B",
"z  c #437339",
"x  c #4D7440",
"c  c #47723A",
"v  c #3A6A2F",
"b  c #4D8041",
"n  c #568448",
"m  c #2F5E24",
"M  c #2E5F26",
"N  c #447439",
"B  c #3A632F",
"V  c #2E5D29",
"C  c #36652E",
"Z  c #2D5B25",
"A  c #2E5F27",
"S  c #35682F",
"D  c #3D7134",
"F  c #34612C",
"G  c #4C7440",
"H  c #46793B",
"J  c #426E33",
"K  c #4E753B",
"L  c #326229",
"P  c #305B25",
"I  c #34622B",
"U  c #285422",
"Y  c #33622B",
"T  c #386A30",
"R  c #2C5F26",
"E  c #3F6C33",
"W  c #3D7035",
"Q  c #416E3A",
"!  c #3A692F",
"~  c #406D32",
"^  c #507A3D",
"/  c #316027",
"(  c #3D6A31",
")  c #33622A",
"_  c #37672E",
"`  c #2D5C25",
"'  c #4E7F46",
"]  c #427539",
"[  c #356228",
"{  c #3E6D32",
"}  c #436F3E",
"|  c #47793B",
" . c #5B8A4F",
".. c #53854B",
"X. c #47713C",
"o. c #4E7B41",
"O. c #406A31",
"+. c #46753B",
"@. c #447137",
"#. c #416C34",
"$. c #2F6127",
"%. c #487641",
"&. c #406F34",
"*. c #345F27",
"=. c #487740",
"-. c #376730",
";. c #426E34",
":. c #547C43",
">. c #366C2E",
",. c #4F7A43",
"<. c #467239",
"1. c #4C7B40",
"2. c #2E5F24",
"3. c #32632A",
"4. c #396A31",
"5. c #3A662D",
"6. c #205019",
"7. c #32672A",
"8. c #3A6C33",
"9. c #376A31",
"0. c #46763B",
"q. c #406934",
"w. c #517844",
"e. c #416F35",
"r. c #33672A",
"t. c #4B733C",
"y. c #456D38",
"u. c #305A27",
"i. c #3C6832",
"p. c #38642C",
"a. c #3D6831",
"s. c #2A5A25",
"d. c #275520",
"f. c #34692F",
"g. c #3B6B31",
"h. c #3F7035",
"j. c #426E38",
"k. c #45723C",
"l. c #2C5D23",
"z. c #22551B",
"x. c #325927",
"c. c #32632B",
"v. c #36642E",
"b. c #336228",
"n. c #356129",
"m. c #34612A",
"M. c #315F2A",
"N. c #25541D",
"B. c #3A6C31",
"V. c #416E35",
"C. c #4F7941",
"Z. c #38672C",
"A. c #396631",
"S. c #22591D",
"D. c #21531D",
"F. c #2C5C25",
"G. c #2A5B23",
"H. c #36652B",
"J. c #346229",
"K. c #33672E",
"L. c #3B6E33",
"P. c #23541D",
"I. c #3B682F",
"U. c #35682D",
"Y. c #376830",
"T. c #427137",
"R. c #49733C",
"E. c #3A662F",
"W. c #39632E",
"Q. c #306128",
"!. c #154412",
"~. c #2C5F2A",
"^. c #2C5C24",
"/. c #53864A",
"(. c #3E7035",
"). c #2E5E26",
"_. c #306328",
"`. c #2D5F28",
"'. c #427138",
"]. c #4E7743",
"[. c #49793F",
"{. c #315D25",
"}. c #33662B",
"|. c #235B22",
" X c #285C23",
".X c #3D6C2F",
"XX c #3C6C2F",
"oX c #407336",
"OX c #457739",
"+X c #36662A",
"@X c #3E6E31",
"#X c #2F5E26",
"$X c #508546",
"%X c #2B6326",
"&X c #467C3D",
"*X c #4C7B41",
"=X c #376E32",
"-X c #245B21",
";X c #22581E",
":X c #37642C",
">X c #4F7F43",
",X c #326228",
"<X c #285821",
"1X c #3E6D33",
"2X c #2D5F26",
"3X c #396C31",
"4X c #43763B",
"5X c #4F7E44",
"6X c #3B6F35",
"7X c #345E29",
"8X c #3C6B32",
"9X c #3B6B32",
"0X c #325C29",
"qX c #305E27",
"wX c #326028",
"eX c #376A2F",
"rX c #35602B",
"tX c #39692F",
"yX c #427536",
"uX c #537F43",
"iX c #295821",
"pX c #2B5924",
"aX c #39662D",
"sX c #3D6E35",
"dX c #39662F",
"fX c #2A5322",
"gX c #3F7038",
"hX c #3C6E32",
"jX c #315A24",
"kX c white",
/* pixels */
"        = . . = X X X X o o o J O O O O + + + + 1X@ @ @ # # # # $ $ $ $ I.% % % & & & & * * * q.= = = = - - - - ; ; ; ; : : : : ",
"        = . . = X X X X o o o J O O O O + + + + 1X@ @ @ # # # # $ $ $ $ I.% % % & & & & * * * q.= = = = - - - - ; ; ; ; : : : : ",
"        = . . = X X X X o o o J O O O O + + + + 1X@ @ @ # # # # $ $ $ $ I.% % % & & & & * * * q.= = = = - - - - ; ; ; ; : : : : ",
"        Z . . = X X X X o o o J O O O O + + + + 1X@ @ 1X# # # # $ $ $ $ I.% % % & & & & * * * q.= = = = - - - - ; ; ; ; : : : : ",
"> > > > gXgXgXgX< < < < 1 1 1 +.; ; ; ; 2 2 2 U.$X....' 4 4 4 4 F.F.F.F.aX6 6 6 7 7 7 7 8 8 8 ; g g g g 0 0 0 0 q q q ( w 8 8 8 ",
"> > > > , , , , < < < < 1 1 1 1 ; ; ; ; 2 2 2 2 ..3 3 ..4 4 4 4 5 5 5 5 aX6 6 6 7 7 7 7 8 8 8 ; 9 9 9 9 0 0 0 0 q q q ( w w w w ",
"> > > > , , , , < < < < 1 1 1 1 ; ; ; ; 2 2 2 2 ..3 3 ..4 4 4 4 5 5 5 5 aX6 6 6 7 7 7 7 8 8 8 ; 9 9 9 9 0 0 0 0 q q q ( w w w w ",
"> > > > , , , , < < < < 1 1 1 1 8 8 8 ; 2 2 2 2 ..3 3 ..T T T T G.G.G.G.aX6 6 6 7 7 7 7 ; ; ; e.9 9 9 9 0 0 0 0 ( ( ( ( w w w w ",
"e e e e , r r r t t t t y y y z u u u u i i i i p p p p a a a a o o o o s s s s d d d d f f f f g g g g h h h h t.j j j k k k k ",
"e e e e , r r r t t t t y y y z u u u u i i i i p p p p a a a a o o o o s s s s d d d d f f f f g g g g h h h h t.j j j k k k k ",
"e e e e , r r r t t t t y y y z u u u u i i i i p p p p a a a a o o o o s s s s d d d d f f f f g g g g h h h h t.j j j k k k k ",
"e e e e , r r r t t t t y y y z u u u u i i i i p p p p a a a a o o o o s s s s d d d d f f f f g g g g h h h h t.j j j k k k k ",
"l l l l '.z z z x x x x c c c <.v g.g.g.b b b b n n n uXm s s s M M M M T.N N z B B B B V V V f C C C C Z Z Z Z + + + + A A A A ",
"l l l l '.z z z x x x x c c c <.v v v g.b b b b n n n uXm m m m M M M M z N N z B B B B V V V f C C C C Z Z Z Z + + + + A A A A ",
"l l l l '.z z z x x x x c c c <.v v v g.b b b b n n n uXm m m m M M M M z N N z B B B B V V V f C C C C Z Z Z Z + + + + A A A A ",
"l l l l y z z z t.t.t.t.c c c c g.g.g.g.a a a a n n n uXm m m m M M M ).y w w T.W.B B B V V V V g g g v.= = = = u.u.u.u.A A A A ",
"S S S S D D D D F F F F G G G G H H H H J J J J O K K O L L L L P P P P :Xg g g I I I I U U U U L L L L Y Y Y Y T T T 4 R R R R ",
"S S S S D D D D F F F F G G G G H H H H J J J J O K K O L L L L P P P P :Xg g g I I I I U U U U L L L L Y Y Y Y T T T 4 R R R R ",
"S S S S D D D D F F F F G G G G H H H H J J J J O K K O L L L L P P P P :Xg g g I I I I U U U U L L L L Y Y Y Y T T T 4 R R R R ",
"S S S S D D D D F F F F G G G G H H H H J J J J K K K O L L L L P P P P :Xg g g I I I I U U U U ) ) ) ) Y Y Y Y T T T 4 R 2X2X2X",
"F F F F : E E E W W W W Q Q Q Q ! ! ! ! ~ ~ ~ ~ ^ ^ ^ ^ / / / / ( ( ( ( I ) ) ) _ _ _ _ ` ` ` L ' ' ' ' ] ] ] ] [ [ [ [ { { { { ",
"F F F F : E E E W W W W Q Q Q Q ! ! ! ! ~ ~ ~ ~ ^ ^ ^ ^ / / / / ( ( ( ( I ) ) ) _ _ _ _ ` ` ` L ' ' ' ' ] ] ] ] [ [ [ [ { { { { ",
"F F F F : E E E W W W W Q Q Q Q ! ! ! ! ~ ~ ~ ~ ^ ^ ^ ^ / / / / ( ( ( ( I ) ) ) _ _ _ _ ` ` ` L ' ' ' ' ] ] ] ] [ [ [ [ { { { { ",
"F F F F : E E E W W W W Q Q Q Q ! ! ! ! ~ ~ ~ ~ ^ ^ ^ ^ / / / / ( ( ( ( I ) ) ) _ _ _ _ ` ` ` L ' ' ' ' ] ] ] ] [ [ [ [ { { { { ",
"} } } } H | | |  . . . .........X.X.X.X.1.1.1.1.J O.O.~ X X X X @.@.@.@.Q.M M $.#.#.#.#.$.$.$.c.%.%.%.%.&.&.&.&.n.*.*.n.=.=.=.=.",
"} } } } | | | |  . . . .........X.X.X.X.o.o.o.o.O.O.O.O.+.+.+.+.@.@.@.@.Q.M M $.#.#.#.#.$.$.$.c.%.%.%.%.&.&.&.&.n.*.*.n.=.=.=.=.",
"} } } } | | | |  . . . .........X.X.X.X.o.o.o.o.O.O.O.O.+.+.+.+.@.@.@.@.Q.M M $.#.#.#.#.$.$.$.c.%.%.%.%.&.&.&.&.n.*.*.n.=.=.=.=.",
"} } } } 0.| | |  . . . .......' X.X.X.X.1.1.1.1.#.O.O.#.z z z z 8 8 8 8 L / / Q.#.#.#.#.Q.$.$.c.%.%.%.%.&.&.&.&.n.n.n.n.+.k.k.k.",
"-.-.-.-.#.;.;.; :.:.:.:.>.>.>.3X,.,.,.,.<.<.<.<.1.1.1.[.2.2.2.2.q q q q &.&.&.&.{ { { { 3.3.3.I : : : : 4.4.4.4.5.5.5.p.6.6.6.6.",
"-.-.-.-.#.;.;.; :.:.:.:.>.>.>.B.,.,.,.,.<.<.<.<.1.1.1.[.2.2.2.2.q q q q &.&.&.&.{ { { { 3.3.3.I : : : : 4.4.4.4.5.5.5.p.6.6.6.6.",
"-.-.-.-.#.;.;.; :.:.:.:.>.>.>.B.,.,.,.,.<.<.<.<.1.1.1.[.2.2.2.2.q q q q &.&.&.&.{ { { { 3.3.3.I : : : : 4.4.4.4.5.5.5.p.6.6.6.6.",
"-.-.-.-.#.;.;.; :.:.:.:.>.>.>.B.,.,.,.,.<.<.<.<.1.1.1.[.2.2.2.2.q q q q &.&.&.&.{ { { { 3.3.3.I : : : : 4.4.4.4.5.5.5.p.6.6.6.6.",
"7.7.7.7.3X8.8.8.9.9.9.9.0.0.0.X q.q.q.* w.w.w.w.; e.e.&.r.r.r.r.t.t.t.t.y.y.y.y.u.u.u.u.i.i.i.q p.p.p.p.i.i.i.i.a.a.a.q s.s.s.s.",
"7.7.7.7.3X8.8.8.9.9.9.9.0.0.0.X q.q.q.q.w.w.w.w.; e.e.&.r.r.r.r.t.t.t.t.y.y.y.y.u.u.u.u.i.i.i.i.p.p.p.p.i.i.i.i.a.a.a.q s.s.s.s.",
"7.7.7.7.3X8.8.8.9.9.9.9.0.0.0.X q.q.q.q.w.w.w.w.; e.e.&.r.r.r.r.t.t.t.t.y.y.y.y.u.u.u.u.i.i.i.i.p.p.p.p.i.i.i.i.a.a.a.q s.s.s.s.",
"7.7.7.7.3X8.8.8.9.9.9.9.0.0.0.X q.q.q.q.w.w.w.w.; e.e.&.r.r.r.r.t.t.t.t.k y.y.y.u.u.u.u.i.i.i.i.p.p.p.p.i.i.i.i.a.a.a.q s.s.s.s.",
"<X<X<Xd.S S S S g.g.g.g.h.$ $ $ j.j.j.j.k.k.k.k.M M M 2.z.z.z.;X0X0X0X0XI       v.v.v.v.J.J.J.H.W W W 6Xn.n.n.n.I I I F M.M.M.M.",
"d.d.d.d.K.f.f.f.g.g.g.g.h.h.h.h.j.j.j.j.k.k.k.k.).l.l.l.z.z.z.z.x.x.x.x.Y c.c.c.v.v.v.v.b.b.b.I W W W W n.n.n.n.m.m.m.m.M.M.M.M.",
"d.d.d.d.K.f.f.f.g.g.g.g.h.h.h.h.j.j.j.j.k.k.k.k.).l.l.l.z.z.z.z.x.x.x.x.Y c.c.c.v.v.v.v.b.b.b.I W W W W n.n.n.n.m.m.m.m.M.M.M.M.",
"d.d.d.d.K.f.f.S g.g.g.g.$ $ $ $ j.> > j.k.k.k.k.2.l.l.l.z.z.z.z.x.x.x.x.L c.c.c.v.v.v.v.b.b.b.I W W W 6XI I I I wXwXwXm.M.M.M.M.",
"N.N.N.N.T B.B.B.V.V.V.V.C.C.C.t Z.Z.Z.Z.A.A.A.A.S.S.S.S.D.D.D.D.F.F.F.F.G.G.G.G.H.H.H.H.J.J.J.I K.K.K.K.L.L.L.L.N.P.P.d.I.I.I.I.",
"N.N.N.N.T B.B.B.V.V.V.V.C.C.C.t Z.Z.Z.Z.A.A.A.A.S.S.S.S.D.D.D.D.F.F.F.F.G.G.G.l.H.H.H.H.J.J.J.I K.K.K.K.L.L.L.L.N.P.P.d.I.I.I.I.",
"N.N.N.N.T B.B.B.V.V.V.V.C.C.C.t Z.Z.Z.Z.A.A.A.A.S.S.S.S.D.D.D.D.F.F.F.F.G.G.G.l.H.H.H.H.J.J.J.I K.K.K.K.L.L.L.L.N.P.P.d.I.I.I.I.",
"N.N.N.N.T B.B.B.V.V.V.V.C.C.C.t Z.Z.Z.Z.A.A.A.A.S.S.S.S.D.D.D.D.F.F.F.F.G.G.G.l.H.H.H.H.J.J.J.I K.K.K.K.L.L.L.L.N.P.P.d.I.I.I.I.",
"U.U.U.U.Y.Y.Y.T T.T.T.T.R.R.R.c E.E.E.E.W.W.W.W.Q.Q.Q.A !.!.!.!.~.~.~.~.^.^.^.` c c c c g.g.g.@ ../././.(.(.(.(.A ).).#X% % % % ",
"U.U.U.U.Y.Y.Y.Y.T.T.T.T.R.R.R.c E.E.E.E.W.W.W.W.Q.Q.Q.A !.!.!.!.~.~.~.~.F.^.^.` c c c c g.g.g.(././././.(.(.(.(.A ).).A % % % % ",
"U.U.U.U.Y.Y.Y.Y.T.T.T.T.R.R.R.c E.E.E.E.W.W.W.W.Q.Q.Q.A !.!.!.!.~.~.~.~.F.^.^.` c c c c g.g.g.(././././.(.(.(.(.A ).).A % % % % ",
"        # # # -.T.T.T.T.R.t.t.X.i.i.i.i.W.W.W.W.L Q.Q.$.!.!.!.!.~.~.~.~.).).).qX<.<.<.<.g.g.g.sX$X$X$X$Xh.h.h.h./ M M / % % % % ",
"_._._._.`.`.`.`.'.'.'.'.].].].].[.[.[.[.{.{.{.{.}.}.}.}.|.|.|.|. X X X XXX.X.X.XXXXXXXXXU.U.U.4 oXoXoXoXOXOXOXOXZ.+X+XZ.@X@X@X@X",
"_._._._.`.`.`.`.'.'.'.'.].].].].[.[.[.[.{.{.{.{.}.}.}.}.|.|.|.|. X X X XXX.X.X.XXXXXXXXXU.U.U.4 oXoXoXoXOXOXOXOXZ.+X+XZ.@X@X@X@X",
"_._._._.`.`.`.`.'.'.'.'.].].].].[.[.[.[.{.{.{.{.}.}.}.}.|.|.|.|. X X X XXX.X.X.XXXXXXXXXU.U.U.4 oXoXoXoXOXOXOXOXZ.+X+XZ.@X@X@X@X",
"_._._._.`.`.`.Q.'.'.'.'.].].].].[.[.[.[.{.{.{.{.}.}.}.}.|.|.|.|. X X X Xv .X.X.XXXXXXXXXU.U.U.4 oXoXoXoXOXOXOXOXZ.+X+X+X@X@X@X@X",
"#X#X#X#X# -.-.e $X$X$X$X%X%X%X7.&X&X&X&X*X*X*X*X=X=X=X=X-X-X-X-X;X;X;X;XG.G.G.^.@ @ @ @ :X:X:X! >X>X>X>X,X,X,X,XiX<X<X5 1X1X1X1X",
"#X#X#X#X# -.-.e $X$X$X$X%X%X%X7.&X&X&X&X*X*X*X*X=X=X=X=X-X-X-X-X;X;X;X;XG.G.G.^.@ @ @ @ :X:X:X! >X>X>X>X,X,X,X,XiX<X<X5 1X1X1X1X",
"#X#X#X#X# -.-.e $X$X$X$X%X%X%X7.&X&X&X&X*X*X*X*X=X=X=X=X-X-X-X-X;X;X;X;XG.G.G.^.@ @ @ @ :X:X:X! >X>X>X>X,X,X,X,XiX<X<X5 1X1X1X1X",
"#X#X#X#X# -.-.e $X$X$X$X%X%X%X7.&X&X&X&X*X*X*X*X=X=X=X=X-X-X-X-X;X;X;X;XG.G.G.^.@ @ @ @ :X:X:X! >X>X>X>X,X,X,X,X<X<X<X5 1X1X1X1X",
"-.-.-.-.d A A d 8.8.8.8.r r r 4X5X5X5X>X.X.X.X.X6X6X6XL.2X2X2X2XZ Z Z Z 7X7X7X7X8X8X8X8X9X9X9Xe 7X7X7X7X        qXqXqXqXL L L L ",
"-.-.-.-.d 2X2Xd 3X3X3X3X4X4X4X0.5X5X5X5XXXXXXXXX6X6X6XL.2X2X2X2XZ Z Z Z 7X7X7X7X8X8X8X8X9X9X9Xe 0X0X0X0X        qXqXqXqXwXwXwXwX",
"-.-.-.-.d 2X2Xd 3X3X3X3X4X4X4X0.5X5X5X5XXXXXXXXX6X6X6XL.2X2X2X2XZ Z Z Z 7X7X7X7X8X8X8X8X9X9X9Xe 0X0X0X0X        qXqXqXqXwXwXwXwX",
"-.-.-.-.$.M M d 3X3X3X3X4X4X4X0.5X5X5X5XXXXXXXXX8.8.8.8.).2X2X2X= = = = 7X7X7X7X8X8X8X8X9X9X9Xe u.u.u.0X_ _ _ _ / / / / wXwXwXwX",
"eXeXeXeXrXrXrXrXtXtXtXtXyXyXyXOXuXuXuXuX:X:X:X:XiXiXiXiXpXpXpXpXaXaXaXaXA ).).A sXsXsXsXdXdXdXv.fXfXfXfXgXgXgXgXhXhXhXB.jXjXjXjX",
"eXeXeXeXrXrXrXrXtXtXtXtXyXyXyXOXuXuXuXuX:X:X:X:X5 iXiXiXpXpXpXpXaXaXaXaXA ).).A sXsXsXsXdXdXdXv.fXfXfXfXgXgXgXgXhXhXhXB.jXjXjXjX",
"eXeXeXeXrXrXrXrXtXtXtXtXyXyXyXOXuXuXuXuX:X:X:X:X5 iXiXiXpXpXpXpXaXaXaXaXA ).).A sXsXsXsXdXdXdXv.fXfXfXfXgXgXgXgXhXhXhXB.jXjXjXjX",
"eXeXeXeXrXrXrXrXtXtXtXtXyXyXyXOXuXuXuXuX:X:X:X:X5 iXiXiXpXpXpXpXaXaXaXaXA ).).A sXsXsXsXdXdXdXv.fXfXfXfXgXgXgXgXhXhXhXB.jXjXjXjX"
};
