/* XPM */
static char *result[] = {
/* columns rows colors chars-per-pixel */
"64 64 225 2 ",
"   c #020202",
".  c #0A0302",
"X  c #030903",
"o  c #090B04",
"O  c #03040A",
"+  c #0B020B",
"@  c #030A0A",
"#  c #0A0B0B",
"$  c #120303",
"%  c #150209",
"&  c #140A0B",
"*  c #051309",
"=  c #080712",
"-  c #130214",
";  c #081517",
":  c #0E1D1C",
">  c #13181A",
",  c #08201D",
"<  c #15201F",
"1  c #061F22",
"2  c #0A1D23",
"3  c #151D21",
"4  c #081F31",
"5  c #092525",
"6  c #062823",
"7  c #042A2E",
"8  c #0A2C2F",
"9  c #142726",
"0  c #08362C",
"q  c #052A32",
"w  c #0A2C33",
"e  c #082936",
"r  c #1C2E3A",
"t  c #073537",
"y  c #0D3236",
"u  c #12353A",
"i  c #212929",
"p  c #273639",
"a  c #353B3E",
"s  c #0B4139",
"d  c #11443A",
"f  c #0B513D",
"g  c #063C47",
"h  c #0D3941",
"j  c #08464F",
"k  c #17584A",
"l  c #144A53",
"z  c #0C5D54",
"x  c #1B5954",
"c  c #37474B",
"v  c #3D4A4D",
"b  c #2C515D",
"n  c #3D5254",
"m  c #385758",
"M  c #3D5B5E",
"N  c #0C665E",
"B  c #146459",
"V  c #005969",
"C  c #155568",
"Z  c #125C68",
"A  c #245E6C",
"S  c #3E5C63",
"D  c #156766",
"F  c #0E726F",
"G  c #196577",
"H  c #3D6063",
"J  c #2D7267",
"K  c #26766C",
"L  c #206673",
"P  c #237678",
"I  c #4B4D4D",
"U  c #445456",
"Y  c #45575B",
"T  c #435B5E",
"R  c #435761",
"E  c #435D62",
"W  c #436165",
"Q  c #496165",
"!  c #45656A",
"~  c #4A666B",
"^  c #53646C",
"/  c #4B6E77",
"(  c #556F76",
")  c #597071",
"_  c #55737B",
"`  c #6A6A6E",
"'  c #787979",
"]  c #138976",
"[  c #1C8478",
"{  c #258978",
"}  c #177988",
"|  c #1D7C96",
" . c #1E7D98",
".. c #377589",
"X. c #597783",
"o. c #597A84",
"O. c #0A848A",
"+. c #188385",
"@. c #1A858D",
"#. c #1A9381",
"$. c #148394",
"%. c #1B8293",
"&. c #178198",
"*. c #259787",
"=. c #2F8B94",
"-. c #26B397",
";. c #1E88A2",
":. c #1A9AA8",
">. c #1D9DB2",
",. c #1F9EBD",
"<. c #2294A9",
"1. c #299AA8",
"2. c #289DB5",
"3. c #239ABE",
"4. c #3297B2",
"5. c #1AA1A9",
"6. c #14A6B5",
"7. c #1CA4B4",
"8. c #1CABB5",
"9. c #16A7BA",
"0. c #1EA4BC",
"q. c #1DABBC",
"w. c #18B2B3",
"e. c #1DB2BB",
"r. c #27B7A5",
"t. c #34B4A1",
"y. c #25A1B6",
"u. c #25A8B3",
"i. c #22A5BD",
"p. c #2AA3BA",
"a. c #23AABC",
"s. c #28AABC",
"d. c #34A6B7",
"f. c #25B6BC",
"g. c #6D878D",
"h. c #6E939C",
"j. c #71979D",
"k. c #7699A3",
"l. c #1CC1BA",
"z. c #2ACEAB",
"x. c #30C2AA",
"c. c #35C6A8",
"v. c #37CCB7",
"b. c #3AD8B8",
"n. c #45CEBE",
"m. c #2B9EC7",
"M. c #1CA6C2",
"N. c #18A9C5",
"B. c #1DABC5",
"V. c #1CB2C3",
"C. c #24A4C2",
"Z. c #2BA4C3",
"A. c #23AAC2",
"S. c #28AAC3",
"D. c #28A7C9",
"F. c #34A8C6",
"G. c #23B3C5",
"H. c #2CB2C5",
"J. c #28CBC6",
"K. c #2CD5C9",
"L. c #36DAC8",
"P. c #33D7D4",
"I. c #2EE8CD",
"U. c #31E9CE",
"Y. c #39E9CB",
"T. c #34F3CF",
"R. c #35ECD4",
"E. c #3CE8D7",
"W. c #36ECD8",
"Q. c #28F9D5",
"!. c #2DFBD5",
"~. c #2DFCDC",
"^. c #35F5D5",
"/. c #3AF4D6",
"(. c #34FBD5",
"). c #3AFAD6",
"_. c #35F5DB",
"`. c #3BF5DB",
"'. c #36FCDA",
"]. c #3AFCDB",
"[. c #33F6E1",
"{. c #3DF4E1",
"}. c #31FBE1",
"|. c #3BFBE2",
" X c #3BFDE8",
".X c #46E9D2",
"XX c #43F6DB",
"oX c #44F8D8",
"OX c #43FBDC",
"+X c #42F4E2",
"@X c #43FAE3",
"#X c #49F9E4",
"$X c #88979C",
"%X c #83A9B4",
"&X c #86B4BE",
"*X c #A2B5BC",
"=X c #8DBCC7",
"-X c #93BAC6",
";X c #9DBFD3",
":X c #9BC0C4",
">X c #94C2CE",
",X c #9BC3CC",
"<X c #8EC3D1",
"1X c #8EC8D3",
"2X c #95C4D3",
"3X c #99C4D4",
"4X c #94C9D6",
"5X c #9BC8D5",
"6X c #99CADA",
"7X c #9AD5DC",
"8X c #A2C9D7",
"9X c #A9D1D8",
"0X c #B7D6DD",
"qX c #AFD6E0",
"wX c #D1D2D3",
"eX c #C6DEEA",
"rX c #D0E3E9",
"tX c #EFEFEF",
"yX c #EAEDF2",
"uX c #F7EEF8",
"iX c #EBF4F7",
"pX c #EAF6FB",
"aX c #F6F5F8",
"sX c #F5F4FB",
"dX c none",
/* pixels */
"dXdXdXdXdXdXdXdXdXdXdXdXdXdXdXdXdXdXdXdXdXdXdXdXdXdXdXdXdXdXdXdXdXdXdXdXdXdXdXdXdXdXdXdXdXdXdXdXdXdXdXdXdXdXdXdXdXdXdXdXdXdXdXdX",
"dXdXdXdXdXdXdXdXdXdXdXdXdXdXdXdXdXdXdXdXdXdXdXdXdXdXdXdXdXdXdXdXdXdXdXdXdXdXdXdXdXdXdXdXdXdXdXdXdXdXdXdXdXdXdXdXdXdXdXdXdXdXdXdX",
"dXdXdXdXdXdXdXdXdXdXdXdXdXdXdXdXdXdXdXdXdXdXdXdXdXdXdXdXdXdXdXdXdXdXdXdXdXdXdXdXdXdXdXdXdXdXdXdXdXdXdXdXdXdXdXdXdXdXdXdXdXdXdXdX",
"dXdXdXdXdXdXdXdXdXdXdXdXdXdXdXdXdXdXdXdXdXdXdXdXdXdXdXdXdXdXdXdXdXdXdXdXdXdXdXdXdXdXdXdXdXdXdXdXdXdXdXdXdXdXdXdXdXdXdXdXdXdXdXdX",
"dXdXdXdXdXdXdXdXdXdXdXdXdXdXdXdXdXdXdXdXdXdXdXdX    @   O .     X   X   X X     .     dXdXdXdXdXdXdXdXdXdXdXdXdXdXdXdXdXdXdXdXdX",
"dXdXdXdXdXdXdXdXdXdXdXdXdXdXdXdXdXdXdXdXdXdX  = O     # 6 6 5 5 6 5 5 9 9 6 ,   . o   @     dXdXdXdXdXdXdXdXdXdXdXdXdXdXdXdXdXdX",
"dXdXdXdXdXdXdXdXdXdXdXdXdXdXdXdXdXdXdXdX    o . # 7 { v.OX@X[.'.'._.[.`.@XOXL.{ P 0 5 :     X   dXdXdXdXdXdXdXdXdXdXdXdXdXdXdXdX",
"dXdXdXdXdXdXdXdXdXdXdXdXdXdXdXdXdXdXdX      @ z *..X'.!.#X_.}.'.'.}.'.'.}.}.(.].XXR.T.n.K 5 $   # dXdXdXdXdXdXdXdXdXdXdXdXdXdXdX",
"dXdXdXdXdXdXdXdXdXdXdXdXdXdXdXdXdXdXdX  . . *.XX'.]./.'.(.^.'.!.!.'.(.!.^.'.!.'.Q.~.`._.^.b.B         dXdXdXdXdXdXdXdXdXdXdXdXdX",
"dXdXdXdXdXdXdXdXdXdXdXdXdXdXdXdXdXdX    # d L._.'.'.'.'.(.'.].].`.`.XXXX/.].`.@X].|._.|.~._.Y.[     & dXdXdXdXdXdXdXdXdXdXdXdXdX",
"dXdXdXdXdXdXdXdXdXdXdXdXdXdXdXdXdX  X . . z.!. X].'.].'.'.'.^.(.~.'.R.E.U.L.] D z B B x -.U.E.I.t.0   #   dXdXdXdXdXdXdXdXdXdXdX",
"dXdXdXdXdXdXdXdXdXdXdXdXdXdXdXdXdX    ; { T.`.'.'.'.'.'.^.(.@Xn.F K k ; , :   .   X X   ; , 2 2 J k   +   dXdXdXdXdXdXdXdXdXdXdX",
"dXdXdXdXdXdXdXdXdXdXdXdXdXdXdXdXdX    { T.|._.(.'.^.(.(.(.I.f o   X   %   X   O O X . . o O o   .       O dXdXdXdXdXdXdXdXdXdXdX",
"dXdXdXdXdXdXdXdXdXdXdXdXdXdXdXdXdXO O *.'.].).'.].oX'.{.t.>         .   9 ) ^ ^ k.<X-XX.~ ) U       O .     . dXdXdXdXdXdXdXdXdX",
"dXdXdXdXdXdXdXdXdXdXdXdXdXdXdXdX    . *.OX'.'.'.~.~.^.L.x .     ; n _ k.&X7X7X9X3X9X9XqX0X9X9X*X*X$X' ` a O       dXdXdXdXdXdXdX",
"dXdXdXdXdXdXdXdXdXdXdXdXdXdXdXdX    0 b.!.OX_.]._.|.OX*.$     > Y o.5X2X,X2X>X-XrXsXsXuXuXsXtXsXaXaXtXaXwXI     O   dXdXdXdXdXdX",
"dXdXdXdXdXdXdXdXdXdXdXdXdXdXdX  O   s ].'.).'.`.XX Xv.d .   @ c E / 6X<X5X;X3X=X0XpXpXiXiXiXtXtXaXaXaXyXrX-Xk.v   . . dXdXdXdXdX",
"dXdXdXdXdXdXdXdXdXdXdXdXdXdXdX      r.).'.].'.'.'.'.x.      ; Q E X.2X4X2X3X2X4X>X>X,XeXpXsXsXsXaXiXiX0X=X2X6X-X;       dXdXdXdX",
"dXdXdXdXdXdXdXdXdXdXdXdXdXdXdX  . . K.|.(.^.'.(.'.'.x.    O c T W _ 8X=X2X2X2X2X2X5X>X,X8X;X:X,X,X:X8X-X5X2X1X5Xh.      dXdXdXdX",
"dXdXdXdXdXdXdXdXdXdX        .   % $ 5.XX].'.'.(.].'.x.    @ U M E ( -X5X2X2X3X3X3X>X3X3X2X2X1X1X4X1X2X4X6X2X4X,X$X      dXdXdXdX",
"dXdXdXdXdXdX+ .     % . $   o o   P 2.L.'.(.].'.].'.x.      c Q E E ! k.6X5X3X2X2X2X3X3X3X3X;X;X3X5X3X6X2X8Xj.! I       dXdXdXdX",
"dXdXdXdXdXO O   o ; 0 c.b.v..   . +.Z.J.].(.].].].'.x.      O p ~ E ! ! o.%X,X2X2X2X2X2X4X2X3X2X4X4X2X%Xg.o.W n         dXdXdXdX",
"dXdXdXdXdX    $ -.^._.W.f.y.      | Z.J.).].].(.'._.I.K   $   3 Q S H E Q m ~ j.h.h.j.h.h.j.j.j.j.h.! S M S E a       dXdXdXdXdX",
"dXdXdXdX    . -.~.oX_.E.8.y.      | Z.l._.^.'.).(.'.R.R.k X @ X p E E E E E E T E E E M E E T E T Q S H ! U v < O @   dXdXdXdXdX",
"dXdXdXdX  O 0 t.(.Q.}.e.0.2.      | C.6.E.}.'.].oX].{.R.{ &   $ # n m ! E S E S E W E S E M E R ~ Q Y U i @     O O dXdXdXdXdXdX",
"dXdXdXdXO   ] /.Q.}.+Xi.Z.2.      | y.A.P.].!.].!.OXQ.|.E.r.X   O # : > 3 p U U n v E Q U U p 9 : < >   .       dXdXdXdXdXdXdXdX",
"dXdXdXdXX . [ .XJ.f.,.0.0.y.       .i.0.a.'.).].'.).(.'.].].K   X   $ o             < i         X             > dXdXdXdXdXdXdXdX",
"dXdXdX    & N f.7.0.C.a.i.2.       .p.0.a.'.'.'.'.'.'.'.'.].Y.x.J         .       o . .       $ .         . O O dXdXdXdXdXdXdXdX",
"dXdXdX    ; } 2.i.C.M.i.i.y.      | p.q.a.'.).'.'.'.'.'.).'.~.'.oX^.oXt.*.#.#.{ u   + O O K *.*..XOX!.].].s     dXdXdXdXdXdXdXdX",
"dXdXdX  . q <.S.C.C.i.a.i.y.       .i.0.p.}.'.].'.'.'.'.'.'.`.OX|.`.OXQ._.R.`.]./.)._.`./.OX'.U.@X!.|.].].s @ # dXdXdXdXdXdXdXdX",
"dXdXdX  . q :.0.a.a.0.C.0.2.       .y.0.a.'.(.'.'.'.'.).'.(.(.(.].].(.(.(.).^.'.OX/.].^.'.].).).).).)./.~.s     dXdXdXdXdXdXdXdX",
"dXdXdX  X q <.M.0.i.i.i.i.8.. X   $.M.p.7.K.}.`.).'.'.'.'.'.(.'.'.'.'.'.'.'.).'.'.'.'.'.'.'.'.'.'.'.'.'.'.s     dXdXdXdXdXdXdXdX",
"dXdXdX    q :.A.i.i.i.i.0.2.      | 0.C.Z.e.I.(.'.'.'.'.'.(.'.'.'.).'.).'.'.'.(.'.'.).'.'.'.'.'.'.'.'.(.'.s     dXdXdXdXdXdXdXdX",
"dXdXdX    q <.0.i.i.i.i.6.F.      %.7.C.D.3.K.'.'.'.'.'.'.'.'.'.'.'.'.'.'.'.'.'.'.'.'.'.'.(.'.'.(.'.'.'.(.s     dXdXdXdXdXdXdXdX",
"dXdXdX    q <.0.0.p.0.a.u.G   .   | Z.9.M.i.a.P.(.^.(.'.'.'.'.(.'.'.'.'.'.'.'.'.'.).'.).'.'.).'.'.'.'.(.'.s   O dXdXdXdXdXdXdXdX",
"dXdXdX    q <.0.C.0.S.0.8.r   .   @.i.a.i.i.i.0.J.{.).(.).].!.'.(.(.).'.(.'.'.).'.'.'.'.'.'.'.'.'.'.|.'.'.t     dXdXdXdXdXdXdXdX",
"dXdXdX  O q <.9.a.i.A.i.G.e   .   } i.i.i.i.a.i.3.f.l./.'.~.'.(.'.'.|.'.'.'.(.'.'.'.'.'.'.'.'.).'.'.'._.'.s     dXdXdXdXdXdXdXdX",
"dXdXdX  O 7 <.A.9.i.i.i.C.l   O   $.a.i.i.i.M.i.s.i.0.G.J.W._.'.'.'.(.(.'.'.(.'.'.'.].'.'.'.'.'.'.^.(.'.'.s   O dXdXdXdXdXdXdXdX",
"dXdXdX  X ; G i.i.0.i.i.2.2.  +   &.0.i.a.i.0.C.8.q.C.C.>.8.l.P.W._.|.].(.'.'.'.'.).'.'.'.'.'.(.'.|.{.W.J.t     dXdXdXdXdXdXdXdX",
"dXdXdX    $ V y.i.0.0.C.Z.9.  -   | a.i.i.i.i.i.Z.C.7.a.q.C.Z.C.0.e.J.K.(.'.].].'.'.'.'.].'.'.'.`.K.e.i.Z.q     dXdXdXdXdXdXdXdX",
"dXdXdXdX    t :.N.i.5.S.0.2.      | i.i.i.i.i.i.a.i.i.a.0.i.C.a.0.0.0.7.q.q.e.a.a.q.q.q.a.q.q.8.a.3.q.y.C.q @ O dXdXdXdXdXdXdXdX",
"dXdXdXdX@ O   b p.A.a.i.Z.2.      | i.i.i.i.i.i.i.0.C.i.a.i.a.i.i.i.i.i.i.i.i.i.i.a.i.a.i.i.a.S.i.D.9.q.1.2     dXdXdXdXdXdXdXdX",
"dXdXdXdX. #   ; %.B.B.D.i.2.      | i.i.a.0.i.i.i.i.0.a.i.i.0.i.i.i.i.i.0.0.i.0.i.M.i.0.0.0.0.M.q.B.,.a.Z .   . dXdXdXdXdXdXdXdX",
"dXdXdXdXdXdXX   3 P d.d.0.2.      | 0.i.i.C.i.a.a.i.C.i.i.i.A.i.a.i.i.i.i.i.0.i.0.i.i.i.i.i.i.M.7.a.F.6.N   # ' dXdXdXdXdXdXdXdX",
"dXdXdXdXdXdX    .   = y D 4.  *   =.8.A.a.7.D.7.i.i.C.i.0.i.0.F.,.M.D.m.2.,.i.H.S.G.e.e.A.C.a.C.p.i.C.7.0     I dXdXdXdXdXdXdXdX",
"dXdXdXdXdXdXdX  O O O O   * % .     1.C.7.S.C.u.a.i.a.i.i.0.q.<.} +.] @.O.$.L X   + + . l 1.p.A.7.i.C.$.    O . dXdXdXdXdXdXdXdX",
"dXdXdXdXdXdXdXdXdXdXdX  .     O .   t i.i.9.D.Z.i.i.i.a.i.i.4.e . . X . X     .   + o o   %.G.i.i.3.q.=.      dXdXdXdXdXdXdXdXdX",
"dXdXdXdXdXdXdXdXdXdXdXdXdXdXdXdXO   w a.Z.8.0.0.0.i.a.i.i.i.5.7 $         O + . # h j u ..q.N.B.i.Z.8.4       dXdXdXdXdXdXdXdXdX",
"dXdXdXdXdXdXdXdXdXdXdXdXdXdXdXdX    w e.m.7.0.a.i.i.a.i.i.i.>.t %   dXdXdXdX  @ u 4.i.q.9.A.u.0.D.3.w.  . O dXdXdXdXdXdXdXdXdXdX",
"dXdXdXdXdXdXdXdXdXdXdXdXdXdXdXdXO   q C.p.i.a.i.i.i.i.i.i.0.:.q     dXdXdXdX  # t >.M.i.i.S.0.C.8.m.d.  O   dXdXdXdXdXdXdXdXdXdX",
"dXdXdXdXdXdXdXdXdXdXdXdXdXdXdXdXO   q A.a.0.a.i.a.i.i.A.i.i.>.w     dXdXdXdX    y 2.A.0.i.i.i.y.A.B.g + O O dXdXdXdXdXdXdXdXdXdX",
"dXdXdXdXdXdXdXdXdXdXdXdXdXdXdXdX    q A.i.i.a.i.i.0.i.i.i.0.>.w     dXdXdXdX  X 1 | p.i.C.i.i.s.M.u.h O   dXdXdXdXdXdXdXdXdXdXdX",
"dXdXdXdXdXdXdXdXdXdXdXdXdXdXdXdX+   q A.i.M.A.i.A.i.i.a.i.0.:.q     dXdXdXdX    . V y.p.A.A.0.q.D.} *     dXdXdXdXdXdXdXdXdXdXdX",
"dXdXdXdXdXdXdXdXdXdXdXdXdXdXdXdX    e s.0.V.2.i.C.9.S.2.i.V.G ;     dXdXdXdXdX+   C d.V.N.D.A.B.2.A @     dXdXdXdXdXdXdXdXdXdXdX",
"dXdXdXdXdXdXdXdXdXdXdXdXdXdXdXdX    ; +.i.3.p.8.u.a.i.C.F.;.5 O     dXdXdXdXdX= O + h G G C Z A   .       dXdXdXdXdXdXdXdXdXdXdX",
"dXdXdXdXdXdXdXdXdXdXdXdXdXdXdXdX    + L Z.i.Z.i.Z.,.N.V.1.j     O dXdXdXdXdXdX+ =   @   O     O   + #   dXdXdXdXdXdXdXdXdXdXdXdX",
"dXdXdXdXdXdXdXdXdXdXdXdXdXdXdXdXdX    j 5.8.B.B.q.H.u.G y . O + dXdXdXdXdXdXdXdXdXo X   o *   @ #   dXdXdXdXdXdXdXdXdXdXdXdXdXdX",
"dXdXdXdXdXdXdXdXdXdXdXdXdXdXdXdXdXO   % 9 y G } y 8 , O # X   dXdXdXdXdXdXdXdXdXdXdXdXdXdXdXdXdXdXdXdXdXdXdXdXdXdXdXdXdXdXdXdXdX",
"dXdXdXdXdXdXdXdXdXdXdXdXdXdXdXdXdX                O         dXdXdXdXdXdXdXdXdXdXdXdXdXdXdXdXdXdXdXdXdXdXdXdXdXdXdXdXdXdXdXdXdXdX",
"dXdXdXdXdXdXdXdXdXdXdXdXdXdXdXdXdXdXdXdXdX    @   dXdXdXdXdXdXdXdXdXdXdXdXdXdXdXdXdXdXdXdXdXdXdXdXdXdXdXdXdXdXdXdXdXdXdXdXdXdXdX",
"dXdXdXdXdXdXdXdXdXdXdXdXdXdXdXdXdXdXdXdXdXdXdXdXdXdXdXdXdXdXdXdXdXdXdXdXdXdXdXdXdXdXdXdXdXdXdXdXdXdXdXdXdXdXdXdXdXdXdXdXdXdXdXdX",
"dXdXdXdXdXdXdXdXdXdXdXdXdXdXdXdXdXdXdXdXdXdXdXdXdXdXdXdXdXdXdXdXdXdXdXdXdXdXdXdXdXdXdXdXdXdXdXdXdXdXdXdXdXdXdXdXdXdXdXdXdXdXdXdX",
"dXdXdXdXdXdXdXdXdXdXdXdXdXdXdXdXdXdXdXdXdXdXdXdXdXdXdXdXdXdXdXdXdXdXdXdXdXdXdXdXdXdXdXdXdXdXdXdXdXdXdXdXdXdXdXdXdXdXdXdXdXdXdXdX",
"dXdXdXdXdXdXdXdXdXdXdXdXdXdXdXdXdXdXdXdXdXdXdXdXdXdXdXdXdXdXdXdXdXdXdXdXdXdXdXdXdXdXdXdXdXdXdXdXdXdXdXdXdXdXdXdXdXdXdXdXdXdXdXdX"
};
