/* XPM */
static char *result[] = {
/* columns rows colors chars-per-pixel */
"64 64 200 2 ",
"   c #020203",
".  c #0A0403",
"X  c #040804",
"o  c #0D0A05",
"O  c #03040A",
"+  c #0A0409",
"@  c #04090B",
"#  c #0C0C0C",
"$  c #100201",
"%  c #120B05",
"&  c #140D0A",
"*  c #1B0E0C",
"=  c #15120B",
"-  c #1B150B",
";  c #1D150D",
":  c #0C0E12",
">  c #0F1B1A",
",  c #1D1512",
"<  c #191817",
"1  c #131C1C",
"2  c #241513",
"3  c #261B14",
"4  c #2A1B16",
"5  c #261B19",
"6  c #2A1C1A",
"7  c #311E1A",
"8  c #2B2115",
"9  c #27221C",
"0  c #2D241C",
"q  c #372917",
"w  c #32251D",
"e  c #342A1E",
"r  c #141E21",
"t  c #1B1C22",
"y  c #162023",
"u  c #1D2623",
"i  c #1E282B",
"p  c #1E2E31",
"a  c #222C2E",
"s  c #312621",
"d  c #342D24",
"f  c #392A2A",
"g  c #3B2D2D",
"h  c #3C3123",
"j  c #3E302A",
"k  c #263636",
"l  c #393638",
"z  c #452E2B",
"x  c #45302C",
"c  c #463928",
"v  c #57382E",
"b  c #4B2F32",
"n  c #4A3432",
"m  c #463C34",
"M  c #4C3C35",
"N  c #573F33",
"B  c #563F3C",
"V  c #5A3D3A",
"C  c #4E412E",
"Z  c #4D4233",
"A  c #524332",
"S  c #5C4B35",
"D  c #53433C",
"F  c #5B433E",
"G  c #54483B",
"H  c #5C4D3C",
"J  c #6C4E3E",
"K  c #625039",
"L  c #2D3E42",
"P  c #5A3F40",
"I  c #334445",
"U  c #37494B",
"Y  c #3B4B4C",
"T  c #3C5356",
"R  c #35535C",
"E  c #3B575E",
"W  c #3C5B5D",
"Q  c #3D5B62",
"!  c #554144",
"~  c #5A4642",
"^  c #5A4C42",
"/  c #425255",
"(  c #45555A",
")  c #435B5F",
"_  c #4A5C5E",
"`  c #634643",
"'  c #6A4646",
"]  c #624C45",
"[  c #6D4C44",
"{  c #654D49",
"}  c #6F4E4A",
"|  c #744644",
" . c #724D46",
".. c #7A4E46",
"X. c #724E49",
"o. c #6E5247",
"O. c #64544C",
"+. c #6B5448",
"@. c #6D5B4D",
"#. c #725146",
"$. c #785147",
"%. c #735947",
"&. c #74514A",
"*. c #7A534D",
"=. c #775A4B",
"-. c #795C4C",
";. c #6E4A55",
":. c #735551",
">. c #795351",
",. c #755853",
"<. c #7B5A52",
"1. c #7B5B58",
"2. c #40605F",
"3. c #6F604D",
"4. c #796545",
"5. c #74634B",
"6. c #7C654C",
"7. c #7E6A4E",
"8. c #746451",
"9. c #7C6651",
"0. c #766C55",
"q. c #7E6B51",
"w. c #7D6C5B",
"e. c #7E725E",
"r. c #435D62",
"t. c #4C5E63",
"y. c #425E68",
"u. c #436165",
"i. c #4A6466",
"p. c #46636B",
"a. c #49666C",
"s. c #516769",
"d. c #576870",
"f. c #546B71",
"g. c #57737A",
"h. c #676B6D",
"j. c #6C6D70",
"k. c #826748",
"l. c #816B4E",
"z. c #816552",
"x. c #816B51",
"c. c #886E53",
"v. c #846C58",
"b. c #857155",
"n. c #897255",
"m. c #84715A",
"M. c #89755C",
"N. c #897662",
"B. c #8B7A64",
"V. c #5C7D86",
"C. c #667E87",
"Z. c #648B92",
"A. c #6E949B",
"S. c #71949D",
"D. c #759AA1",
"F. c #7EA5B1",
"G. c #99A5AB",
"H. c #86ACB6",
"J. c #87B2BC",
"K. c #8EB1BE",
"L. c #9CB4BD",
"P. c #8DB4C2",
"I. c #8BBCC8",
"U. c #96BBC5",
"Y. c #92BEC9",
"T. c #9CBFCD",
"R. c #90BFD1",
"E. c #A5B8C0",
"W. c #8FC3CF",
"Q. c #93C3CE",
"!. c #9BC3CB",
"~. c #94C4D3",
"^. c #9BC4D2",
"/. c #93C9D4",
"(. c #95C6D8",
"). c #9FC6D8",
"_. c #9BCBDA",
"`. c #A2C6CF",
"'. c #A8C6CF",
"]. c #A6CAD3",
"[. c #A5CAD6",
"{. c #AFD7DC",
"}. c #B4D7DD",
"|. c #A6D3E1",
" X c #BDDAE3",
".X c #D4D4D5",
"XX c #CAE1E7",
"oX c #D1E3ED",
"OX c #DDEAF4",
"+X c #EBECEE",
"@X c #EFEEF0",
"#X c #F4EDF4",
"$X c #E2F0F8",
"%X c #ECF6FA",
"&X c #EEF9FA",
"*X c #F4F4F6",
"=X c #F5F4FA",
"-X c #FAF2F9",
";X c #F4FAFE",
":X c none",
/* pixels */
":X:X:X:X:X:X:X:X:X:X:X:X:X:X:X:X:X:X:X:X:X:X:X:X:X:X:X:X:X:X:X:X:X:X:X:X:X:X:X:X:X:X:X:X:X:X:X:X:X:X:X:X:X:X:X:X:X:X:X:X:X:X:X:X",
":X:X:X:X:X:X:X:X:X:X:X:X:X:X:X:X:X:X:X:X:X:X:X:X:X:X:X:X:X:X:X:X:X:X:X:X:X:X:X:X:X:X:X:X:X:X:X:X:X:X:X:X:X:X:X:X:X:X:X:X:X:X:X:X",
":X:X:X:X:X:X:X:X:X:X:X:X:X:X:X:X:X:X:X:X:X:X:X:X:X:X:X:X:X:X:X:X:X:X:X:X:X:X:X:X:X:X:X:X:X:X:X:X:X:X:X:X:X:X:X:X:X:X:X:X:X:X:X:X",
":X:X:X:X:X:X:X:X:X:X:X:X:X:X:X:X:X:X:X:X:X:X:X:X:X:X:X:X:X:X:X:X:X:X:X:X:X:X:X:X:X:X:X:X:X:X:X:X:X:X:X:X:X:X:X:X:X:X:X:X:X:X:X:X",
":X:X:X:X:X:X:X:X:X:X:X:X:X:X:X:X:X:X:X:X:X:X          . X             o       :X:X:X:X:X:X:X:X:X:X:X:X:X:X:X:X:X:X:X:X:X:X:X:X:X",
":X:X:X:X:X:X:X:X:X:X:X:X:X:X:X:X:X:X:X:X:X:XO     o % % o % = % % o & #   X       o   :X:X:X:X:X:X:X:X:X:X:X:X:X:X:X:X:X:X:X:X:X",
":X:X:X:X:X:X:X:X:X:X:X:X:X:X:X:X:X:X:X@       - c 8.B.M.M.M.M.M.M.M.B.5.C h % = .   O : . :X:X:X:X:X:X:X:X:X:X:X:X:X:X:X:X:X:X:X",
":X:X:X:X:X:X:X:X:X:X:X:X:X:X:X:X:X:X:X  X 4 S v.M.7.7.l.l.l.x.l.l.l.x.l.x.b.9.m.H h     # :X:X:X:X:X:X:X:X:X:X:X:X:X:X:X:X:X:X:X",
":X:X:X:X:X:X:X:X:X:X:X:X:X:X:X:X:X      0 b.x.l.7.7.7.7.q.7.q.q.7.7.0.b.b.7.l.k.n.9.G X   O # :X:X:X:X:X:X:X:X:X:X:X:X:X:X:X:X:X",
":X:X:X:X:X:X:X:X:X:X:X:X:X:X:X:X:XX   . 5.l.l.7.7.x.x.7.l.l.l.6.q.l.7.n.l.b.b.M.l.l.x.H o     :X:X:X:X:X:X:X:X:X:X:X:X:X:X:X:X:X",
":X:X:X:X:X:X:X:X:X:X:X:X:X:X:X:X@   X Z w.k.l.x.q.7.7.7.l.7.x.m.q.m.7.h w e w w q 3.v.m.8.9 @ X   :X:X:X:X:X:X:X:X:X:X:X:X:X:X:X",
":X:X:X:X:X:X:X:X:X:X:X:X:X:X:X      8 6.x.l.x.x.7.x.b.M.e.A h d % o o X           o o . d 0   X   :X:X:X:X:X:X:X:X:X:X:X:X:X:X:X",
":X:X:X:X:X:X:X:X:X:X:X:X:X:X:X  . . e.7.x.q.7.x.x.q.4.K &   X       X X X O o   @   + + O         :X:X:X:X:X:X:X:X:X:X:X:X:X:X:X",
":X:X:X:X:X:X:X:X:X:X:X:X:X:X:X  X % b.k.q.x.b.l.l.q.m             t d.f.d.H.I.J.a.g.s.@     X X   .   :X:X:X:X:X:X:X:X:X:X:X:X:X",
":X:X:X:X:X:X:X:X:X:X:X:X:X:X:X  . % M.6.q.7.4.7.v.8.o   X O L f.S.P._./.[.^.].].}.{.}.L.E.G.h.j.l   @     :X:X:X:X:X:X:X:X:X:X:X",
":X:X:X:X:X:X:X:X:X:X:X:X:X:X:X@   G 6.l.v.l.n.4.B.4     O L p.P./.T.~.Q.Y.$X-X-X*X*X#X-X&X*X*X-X.Xl     X . :X:X:X:X:X:X:X:X:X:X",
":X:X:X:X:X:X:X:X:X:X:X:X:X:X:XO . @.6.l.v.l.k.b.H %     a r.E J._./.).^.Y.XX%X%X*X=X+X*X@X-X*X%XoXT.C.i   # :X:X:X:X:X:X:X:X:X:X",
":X:X:X:X:X:X:X:X:X:X:X:X:X:X    3 6.l.x.q.l.l.c.Z       p i.E U.~.(.~.R.~.Y.Q.'.OX;X&X&X=X%X%X XR.I.|.Z.  o   :X:X:X:X:X:X:X:X:X",
":X:X:X:X:X:X:X:X:X:X:X:X:X:X    w c.k.l.7.x.7.c.A     t t.u.Q K.~.W./.).~.~././.^.T.!.`.!.T.].Y.R._.R.!.(     :X:X:X:X:X:X:X:X:X",
":X:X:X:X:X:X:X  & . @   X     X 9 z.z.l.7.x.7.c.A     1 t.Q R H.~.).^.~.~.~.W.~.~.^.(./.Q.~.~.^.).R.Q.`.t.#   :X:X:X:X:X:X:X:X:X",
":X:X:X:X:X      @       +     % O.=.l.7.7.x.x.c.A     > _ W a.Q D.!.^.Q.Q.^.^.^.^.^.^.R.^.).~._.^.).Z.i.a .   :X:X:X:X:X:X:X:X:X",
":X:X:X:X:XO O   o   O.5.G       <.X.x.7.k.x.7.c.A       1 T r.r.2.V.F.!.~.~.(.R.(.~.R.^.Q././.H.Z.g.u.I   X   :X:X:X:X:X:X:X:X:X",
":X:X:X:X#     m v.c.9.=.F     . :.X.z.c.7.l.7.v.8.3 X   O U i.W r.W Q a.S.D.A.D.S.A.S.S.A.A.g.y.E Q r.a X + :X:X:X:X:X:X:X:X:X:X",
":X:X:X  O O d w.6.k.z. .F     $ :. .z.x.l.q.c.7.4.0.= O X > Y i.y.r.u.r.r.r.r.r.r.) ) ) r.p.Q W 2._ I :     :X:X:X:X:X:X:X:X:X:X",
":X:X:X  O   m q.q.v.J &.F     $ :.X.=.l.q.7.z.m.4.7.8       p i.r.y.y.i.p.r.r.r.r.r.r.y.u.i._ Y i #       :X:X:X:X:X:X:X:X:X:X:X",
":X:X:X  O   q.q.6.v.&.*.F     . :.[ =.6.x.x.q.q.c.7.e.q   +   > y r k ( / ( T r.T ( Y r 1 r 1     X   . :X:X:X:X:X:X:X:X:X:X:X:X",
":X:X:X      z.-.=.#.#.&.F     $ :.X.[ 6.7.x.q.x.q.x.7.5.=                     u 1       O             :X:X:X:X:X:X:X:X:X:X:X:X:X",
":X:X:X  @   =.#.#.&.&.&.F     $ :.X.[ z.x.q.q.7.q.l.x.q.5.^                 O O       X . X         X :X:X:X:X:X:X:X:X:X:X:X:X:X",
":X:X:X    0 #.X.#.&.&.&.F     . :.X.X.6.x.q.q.x.l.q.x.7.x.6.m.B.+.C C G m =   .   - Z A +.N.M.N.9.3   :X:X:X:X:X:X:X:X:X:X:X:X:X",
":X:X:X    G &.X.&.&.X.*.F     $ :.X.[ 6.l.q.7.x.x.l.x.7.c.k.k.7.b.l.l.7.q.v.m.q.v.c.l.l.5.4.b.b.6., O :X:X:X:X:X:X:X:X:X:X:X:X:X",
":X:X:X    A  .&.&.&.X.X.F     $ :.X.[ 9.q.q.7.q.q.q.l.x.v.9.l.7.7.q.q.7.l.7.l.l.l.b.x.7.7.7.x.b.6.; @ :X:X:X:X:X:X:X:X:X:X:X:X:X",
":X:X:X    N X.X.&.X.&.>.D       :.} &.*.c.7.q.7.l.x.x.q.x.q.l.x.x.7.7.x.x.x.7.l.l.q.x.l.7.x.q.q.6.;   :X:X:X:X:X:X:X:X:X:X:X:X:X",
":X:X:X    N &.&.X.&.X.$.]     X X.X.*.&.6.q.x.q.l.q.q.l.l.q.x.x.x.q.q.l.x.x.q.l.l.q.x.x.7.x.x.9.6.,   :X:X:X:X:X:X:X:X:X:X:X:X:X",
":X:X:X    N X.X.&.X.X.*.^     X >.X.&.X.=.z.x.x.q.x.l.l.x.x.7.l.x.l.x.l.q.l.q.x.x.q.7.x.7.x.x.9.6.,   :X:X:X:X:X:X:X:X:X:X:X:X:X",
":X:X:X    N &.&.&.X.#.&.e       >. .&.X.#.-.x.x.x.l.7.7.q.l.x.x.7.x.x.q.x.l.l.q.x.l.q.l.7.l.q.q.6.;   :X:X:X:X:X:X:X:X:X:X:X:X:X",
":X:X:X    V #.X.&.&.&.} *       :. .X.&.X.&.-.9.c.l.7.7.z.x.x.x.x.x.7.x.q.q.x.l.q.l.x.x.l.c.x.x.7.;   :X:X:X:X:X:X:X:X:X:X:X:X:X",
":X:X:X    V X.#.&.&.&.} &     X >.X.&.&.X.&.&.#.=.z.v.x.x.l.l.7.l.x.7.7.7.l.q.7.q.7.7.q.7.7.7.q.5.-   :X:X:X:X:X:X:X:X:X:X:X:X:X",
":X:X:X    ! X.X.X.&.&.' 3     . &.X.&.&.X.&.} } +.=.-.9.q.x.7.7.7.x.x.q.x.x.x.x.l.q.x.l.7.7.7.b.7.,   :X:X:X:X:X:X:X:X:X:X:X:X:X",
":X:X:X    6 X.X.X.X.&.*.B     X >.X.&.&.X.&.&.*.&.X.X.#.-.6.q.v.x.7.7.7.7.7.7.7.7.7.7.7.7.l.v.9.+.=   :X:X:X:X:X:X:X:X:X:X:X:X:X",
":X:X:X      X.X.X.X.X.$.H     . >.X.&.&.X.#.&.X.&.&.*.#. .X.o.%.5.q.x.x.x.x.b.x.x.b.x.b.x.7.&.#.[ *   :X:X:X:X:X:X:X:X:X:X:X:X:X",
":X:X:X  @   V } [ #.#. .F     . :.[ &.&.&.&.&.X.&.&.X.X.&.&.} &.&.&.#.&.&.&.#.&.#.$.&.&.*.#.X.$.o.- O :X:X:X:X:X:X:X:X:X:X:X:X:X",
":X:X:X  O   5 { <...X.&.F     $ :.X.&.&.X.&.&.&.X.&.&.&.&.X.&.&.&.#.#.#.&.&.#.#.#.#.#.#.&.#.X.&.F &   :X:X:X:X:X:X:X:X:X:X:X:X:X",
":X:X:X:X      M ,. .&.*.F     $ :.} &.&.X.&.X.&.&.X.&.X.&.&.X.X.&.&.&.&.&.X.&.X.&.&.&.&.&.X.*.>.f     :X:X:X:X:X:X:X:X:X:X:X:X:X",
":X:X:X:X:X  @   j :.,.X.F     . } } &.&.X.&.} &.&.X.&.&.X.&.&.&.X.&.&.&.&.&.&.&.&.&.&.&.&.#. .&.g .   :X:X:X:X:X:X:X:X:X:X:X:X:X",
":X:X:X:X:X      @ . * z ~   X + ,.X.X.&.[ &.&.X.&.&.&.&. .} X. .X. . .X.X.>.>.:.,.&.&.X.$.X.$.{ ,     :X:X:X:X:X:X:X:X:X:X:X:X:X",
":X:X:X:X:X:X  #   O     . @     7 >.X.X.&.&.&.&.X.&.X.X.&.B M B M N D n .         D X.&.#.*.&.!     :X:X:X:X:X:X:X:X:X:X:X:X:X:X",
":X:X:X:X:X:X:X:X:X:X:X      O   $ V &.&.X.&.&.X.&.&.X.&.b   O       O O O       X 6 ,.&.#.&.&.!     :X:X:X:X:X:X:X:X:X:X:X:X:X:X",
":X:X:X:X:X:X:X:X:X:X:X:X:X:X:X  . F } X.&.&.&.&.&.&.#.&.z     X   .   .   % 5 6 4 { ' *.#.*.} 5   O :X:X:X:X:X:X:X:X:X:X:X:X:X:X",
":X:X:X:X:X:X:X:X:X:X:X:X:X:X:X  . G [ *.X.&.&.&.&.&.&.&.z     :X:X:X:X  . s >.*.&.[ &. .>.[ } ;   :X:X:X:X:X:X:X:X:X:X:X:X:X:X:X",
":X:X:X:X:X:X:X:X:X:X:X:X:X:X:XO   F  . .X.&.&.X.X.&.X.&.z   + :X:X:X:XO X 7 X.#.&.X.&.X. .*.` &   :X:X:X:X:X:X:X:X:X:X:X:X:X:X:X",
":X:X:X:X:X:X:X:X:X:X:X:X:X:X:XO . F X.X.o.&.&.&.&.&.&.>.z   + :X:X:X:XO   w #.#.X.&.X.:.X. .x   X :X:X:X:X:X:X:X:X:X:X:X:X:X:X:X",
":X:X:X:X:X:X:X:X:X:X:X:X:X:X:XO   ! | ..} &.&.&.X.&.X.&.z   + :X:X:X:X    < ' &.X.&.X.X. .:.n     :X:X:X:X:X:X:X:X:X:X:X:X:X:X:X",
":X:X:X:X:X:X:X:X:X:X:X:X:X:X:XO   F  .$.o.&.&.#.&.&.X.*.z   + :X:X:X:X      V X.&.#.&.X.*.~ o     :X:X:X:X:X:X:X:X:X:X:X:X:X:X:X",
":X:X:X:X:X:X:X:X:X:X:X:X:X:X:X    ` X.X.#.>.X.>.&.>.X.X.2     :X:X:X:X:X    v *.......*.;.!   X O :X:X:X:X:X:X:X:X:X:X:X:X:X:X:X",
":X:X:X:X:X:X:X:X:X:X:X:X:X:X:X  . w >. .[ &.&.&.>.} :.z   X @ :X:X:X:X:XO O   9 l l g g 2       :X:X:X:X:X:X:X:X:X:X:X:X:X:X:X:X",
":X:X:X:X:X:X:X:X:X:X:X:X:X:X:X    X 1. .&.#.#.X.| >.~ o       :X:X:X:X:X:X:X    . .   .   O O :X:X:X:X:X:X:X:X:X:X:X:X:X:X:X:X:X",
":X:X:X:X:X:X:X:X:X:X:X:X:X:X:X    $ P >.&.#.X.>.' b &       :X:X:X:X:X:X:X:X:X:X:X:X:X:X:X:X:X:X:X:X:X:X:X:X:X:X:X:X:X:X:X:X:X:X",
":X:X:X:X:X:X:X:X:X:X:X:X:X:X:X    O + 5 0 ~ 2 , &   @     :X:X:X:X:X:X:X:X:X:X:X:X:X:X:X:X:X:X:X:X:X:X:X:X:X:X:X:X:X:X:X:X:X:X:X",
":X:X:X:X:X:X:X:X:X:X:X:X:X:X:X:X                        :X:X:X:X:X:X:X:X:X:X:X:X:X:X:X:X:X:X:X:X:X:X:X:X:X:X:X:X:X:X:X:X:X:X:X:X",
":X:X:X:X:X:X:X:X:X:X:X:X:X:X:X:X:X:X:X        . :X:X:X:X:X:X:X:X:X:X:X:X:X:X:X:X:X:X:X:X:X:X:X:X:X:X:X:X:X:X:X:X:X:X:X:X:X:X:X:X",
":X:X:X:X:X:X:X:X:X:X:X:X:X:X:X:X:X:X:X:X:X:X:X:X:X:X:X:X:X:X:X:X:X:X:X:X:X:X:X:X:X:X:X:X:X:X:X:X:X:X:X:X:X:X:X:X:X:X:X:X:X:X:X:X",
":X:X:X:X:X:X:X:X:X:X:X:X:X:X:X:X:X:X:X:X:X:X:X:X:X:X:X:X:X:X:X:X:X:X:X:X:X:X:X:X:X:X:X:X:X:X:X:X:X:X:X:X:X:X:X:X:X:X:X:X:X:X:X:X",
":X:X:X:X:X:X:X:X:X:X:X:X:X:X:X:X:X:X:X:X:X:X:X:X:X:X:X:X:X:X:X:X:X:X:X:X:X:X:X:X:X:X:X:X:X:X:X:X:X:X:X:X:X:X:X:X:X:X:X:X:X:X:X:X",
":X:X:X:X:X:X:X:X:X:X:X:X:X:X:X:X:X:X:X:X:X:X:X:X:X:X:X:X:X:X:X:X:X:X:X:X:X:X:X:X:X:X:X:X:X:X:X:X:X:X:X:X:X:X:X:X:X:X:X:X:X:X:X:X"
};
