/* XPM */
static char *result[] = {
/* columns rows colors chars-per-pixel */
"64 64 228 2 ",
"   c #020203",
".  c #0B0303",
"X  c #030A02",
"o  c #0D0903",
"O  c #04040A",
"+  c #0B040A",
"@  c #030B0B",
"#  c #0A0A0B",
"$  c #120203",
"%  c #130809",
"&  c #040412",
"*  c #0A0313",
"=  c #080914",
"-  c #140314",
";  c #190716",
":  c #1B041B",
">  c #0A1112",
",  c #15191A",
"<  c #121B1D",
"1  c #260916",
"2  c #23071A",
"3  c #050624",
"4  c #160623",
"5  c #1D0B21",
"6  c #151D22",
"7  c #290826",
"8  c #310D2B",
"9  c #2B1228",
"0  c #3C162F",
"q  c #2B0834",
"w  c #380A39",
"e  c #3A1436",
"r  c #192326",
"t  c #2B2B2E",
"y  c #2B373A",
"u  c #41152E",
"i  c #460D3B",
"p  c #471837",
"a  c #43123A",
"s  c #492A3D",
"d  c #313F43",
"f  c #440744",
"g  c #4C0E4A",
"h  c #491744",
"j  c #4C124B",
"k  c #5A1848",
"l  c #4E0B51",
"z  c #4F1E57",
"x  c #551E56",
"c  c #5B165C",
"v  c #611E4E",
"b  c #55234B",
"n  c #622A48",
"m  c #682553",
"M  c #75295A",
"N  c #5A1763",
"B  c #6B1362",
"V  c #661865",
"C  c #691966",
"Z  c #691A69",
"A  c #71176F",
"S  c #7A1B74",
"D  c #692C6B",
"F  c #772575",
"G  c #354A4C",
"H  c #3B4B4E",
"J  c #384D50",
"K  c #3C5659",
"L  c #3D5C63",
"P  c #444E50",
"I  c #405252",
"U  c #44545B",
"Y  c #425B5D",
"T  c #435D62",
"R  c #495D62",
"E  c #435E6B",
"W  c #456166",
"Q  c #4A6164",
"!  c #446169",
"~  c #4B646A",
"^  c #466A72",
"/  c #536A73",
"(  c #517178",
")  c #706E73",
"_  c #811E75",
"`  c #8D2D68",
"'  c #8A3268",
"]  c #8A2778",
"[  c #952A78",
"{  c #8E3771",
"}  c #963675",
"|  c #97427A",
" . c #7F2783",
".. c #567982",
"X. c #617E87",
"o. c #841E88",
"O. c #931F92",
"+. c #892886",
"@. c #8F248E",
"#. c #91238E",
"$. c #8D3686",
"%. c #8F2491",
"&. c #9A2597",
"*. c #9A3498",
"=. c #AA3D88",
"-. c #B33B82",
";. c #B73B89",
":. c #A42999",
">. c #AA309F",
",. c #BF1FB5",
"<. c #9E2DA5",
"1. c #9E2EAF",
"2. c #A327A1",
"3. c #AB26A5",
"4. c #A52BA5",
"5. c #AB2BA5",
"6. c #A726AD",
"7. c #AC25AA",
"8. c #A62CAA",
"9. c #AB2BAC",
"0. c #B12CA7",
"q. c #B226AB",
"w. c #B32AAB",
"e. c #BA2AA9",
"r. c #A633A7",
"t. c #AC30AB",
"y. c #B834A7",
"u. c #B332AE",
"i. c #AC23B2",
"p. c #A52CB1",
"a. c #AB2BB3",
"s. c #AE28BC",
"d. c #B325B2",
"f. c #B32AB3",
"g. c #BB2BB3",
"h. c #B525B9",
"j. c #BA26B9",
"k. c #B52BBA",
"l. c #AA32B5",
"z. c #B333B3",
"x. c #B635B6",
"c. c #BC34B1",
"v. c #C63BAC",
"b. c #C326BA",
"n. c #C537B2",
"m. c #A94685",
"M. c #B64E8D",
"N. c #C64C97",
"B. c #D74B9F",
"V. c #C5539B",
"C. c #C74BA4",
"Z. c #D749AC",
"A. c #CB56A2",
"S. c #D955AA",
"D. c #CD43B9",
"F. c #D848B7",
"G. c #D957B2",
"H. c #E84FAD",
"J. c #E557AC",
"K. c #EA53AE",
"L. c #E24DB4",
"P. c #ED4DB5",
"I. c #E74DB8",
"U. c #EB4EBA",
"Y. c #F74BB5",
"T. c #F34DBB",
"R. c #E554B5",
"E. c #EA53B5",
"W. c #E759B6",
"Q. c #E653BB",
"!. c #EB53B9",
"~. c #E359BC",
"^. c #EB5ABB",
"/. c #F254B5",
"(. c #F457B6",
"). c #F353BB",
"_. c #F559BC",
"`. c #DC67BA",
"'. c #E662B8",
"]. c #F363BC",
"[. c #D051C4",
"{. c #EF4DC2",
"}. c #E655C0",
"|. c #EA55C2",
" X c #EE59C1",
".X c #F655C3",
"XX c #F956C6",
"oX c #F35BC2",
"OX c #F663C6",
"+X c #5E848B",
"@X c #608084",
"#X c #6E939D",
"$X c #72939E",
"%X c #6F93A0",
"&X c #779BA6",
"*X c #879196",
"=X c #83A9B4",
"-X c #8AA9B0",
";X c #95B2B9",
":X c #8BB8C4",
">X c #8DBBCB",
",X c #93BECC",
"<X c #99BDC8",
"1X c #9FBFD4",
"2X c #8DC1CF",
"3X c #94C3CD",
"4X c #9BC4CE",
"5X c #95C4D3",
"6X c #9AC5D4",
"7X c #93C8D6",
"8X c #9CC8D4",
"9X c #9AC9DB",
"0X c #A8C0C9",
"qX c #A6CAD6",
"wX c #A4D1DB",
"eX c #A3CFE1",
"rX c #A7D2E2",
"tX c #B4D8E4",
"yX c #C8DBE5",
"uX c #D0E4ED",
"iX c #E9E9EA",
"pX c #EAEFF1",
"aX c #F4EEF5",
"sX c #ECF6F9",
"dX c #F3F3F5",
"fX c #F8F5FA",
"gX c #F6FAFA",
"hX c none",
/* pixels */
"hXhXhXhXhXhXhXhXhXhXhXhXhXhXhXhXhXhXhXhXhXhXhXhXhXhXhXhXhXhXhXhXhXhXhXhXhXhXhXhXhXhXhXhXhXhXhXhXhXhXhXhXhXhXhXhXhXhXhXhXhXhXhXhX",
"hXhXhXhXhXhXhXhXhXhXhXhXhXhXhXhXhXhXhXhXhXhXhXhXhXhXhXhXhXhXhXhXhXhXhXhXhXhXhXhXhXhXhXhXhXhXhXhXhXhXhXhXhXhXhXhXhXhXhXhXhXhXhXhX",
"hXhXhXhXhXhXhXhXhXhXhXhXhXhXhXhXhXhXhXhXhXhXhXhXhXhXhXhXhXhXhXhXhXhXhXhXhXhXhXhXhXhXhXhXhXhXhXhXhXhXhXhXhXhXhXhXhXhXhXhXhXhXhXhX",
"hXhXhXhXhXhXhXhXhXhXhXhXhXhXhXhXhXhXhXhXhXhXhXhXhXhXhXhXhXhXhXhXhXhXhXhXhXhXhXhXhXhXhXhXhXhXhXhXhXhXhXhXhXhXhXhXhXhXhXhXhXhXhXhX",
"hXhXhXhXhXhXhXhXhXhXhXhXhXhXhXhXhXhXhXhXhXhXhXhX    + . X X X   X X   X X   . o .     hXhXhXhXhXhXhXhXhXhXhXhXhXhXhXhXhXhXhXhXhX",
"hXhXhXhXhXhXhXhXhXhXhXhXhXhXhXhXhXhXhXhXhXhX  X   X X 2 2 2 5 7 2 : : 7 2 8 ;     $   X .   hXhXhXhXhXhXhXhXhXhXhXhXhXhXhXhXhXhX",
"hXhXhXhXhXhXhXhXhXhXhXhXhXhXhXhXhXhXhXhX    O O ; u ' A.OX.X_._._._._.OX_.^.N.{ M 8 : 2       hXhXhXhXhXhXhXhXhXhXhXhXhXhXhXhXhX",
"hXhXhXhXhXhXhXhXhXhXhXhXhXhXhXhXhXhXhX      8 m V.W.P.I.|.!.Q.!.|.!.Q.~.W.Q.I.L.P.S.`.V.M 8 #   O o hXhXhXhXhXhXhXhXhXhXhXhXhXhX",
"hXhXhXhXhXhXhXhXhXhXhXhXhXhXhXhXhXhX      O ;. X!.).!.R.R.P.).).~.!.P.P.E.!.!..XI. XU.|..XC.m % @ O hXhXhXhXhXhXhXhXhXhXhXhXhXhX",
"hXhXhXhXhXhXhXhXhXhXhXhXhXhXhXhXhXhX      ` R.E.!.!.!.!.E.^.R.E.T.E.W.|.R.R.!.oX!..X)._.P._.R.{   $ . hXhXhXhXhXhXhXhXhXhXhXhXhX",
"hXhXhXhXhXhXhXhXhXhXhXhXhXhXhXhXhX    X p B.I.!.!.E.E.!.!.!.!.E.P.!.^.R.K.B.` k b b b v } `.G.R.m.u @ - hXhXhXhXhXhXhXhXhXhXhXhX",
"hXhXhXhXhXhXhXhXhXhXhXhXhXhXhXhXhX. . 7 =.R.).!.!.!.!.!.I.T.^.A.M D k ; ; ; . + $ . . o o ; ; 1 M p o o # hXhXhXhXhXhXhXhXhXhXhX",
"hXhXhXhXhXhXhXhXhXhXhXhXhXhXhXhXhX    M.{..XK.!.E.E.E.!.'.M.h - X       X X   O   @   . O X + + X   +   O hXhXhXhXhXhXhXhXhXhXhX",
"hXhXhXhXhXhXhXhXhXhXhXhXhXhXhXhXhX    | XXU.(.!.E.E.!.Y.}   +           6 / ~ Q =X:X;XX.~ ( J       # # # # # hXhXhXhXhXhXhXhXhX",
"hXhXhXhXhXhXhXhXhXhXhXhXhXhXhXhX# X   m..XQ.E.P.^.!.E.V.O   .   < T ( =X:XeX9XeX5XrXqXrXtXtXqX;X0X*X) ) t # O     hXhXhXhXhXhXhX",
"hXhXhXhXhXhXhXhXhXhXhXhXhXhXhXhX    M Z.!.E.).R.!.Q.oXm X X   t U ..8X3X6X5X5X2XuXiXfXfXaXaXgXgXpXgXgXgXiXP     X O hXhXhXhXhXhX",
"hXhXhXhXhXhXhXhXhXhXhXhXhXhXhX  X   [ T.^.R.P.Q.E.(.;.9 .   > H T ..qX,X:X7X8X>XtXsXgXpXiXdXdXfXaXdXpXdXuX<X-XH O   O hXhXhXhXhX",
"hXhXhXhXhXhXhXhXhXhXhXhXhXhXhX  + a C.T.R.R.).).R.T.-.      < Q ! ( 8X6X8X6X6X6X3X7X4XyXsXfXsXsXgXpXsXyX3X6X>XwXO .     hXhXhXhX",
"hXhXhXhXhXhXhXhXhXhXhXhXhXhXhX  . h Z.P.^.!.P.E.R.).|   O   I R T ..6X5X5X,X6X7X5X5X3X,X8X4X4X<XqX1X6X5X5X5X9X>X;X      hXhXhXhX",
"hXhXhXhXhXhXhXhX% .   X     X X   w D./.H.U.R.U./.T.;.      I Y L ( ,X9X>X9X6X,X6X6X6X7X7X7X7X7X5X,X9X7X7X5X>X>X;X      hXhXhXhX",
"hXhXhXhXhX# #         O O       - F c.F./.).R.U.^.!.-.      H Q R L ^ &XwX8X7X5X5X6X5X6X6X6X6X,X6X6X7X8X3X4X&XL K       hXhXhXhX",
"hXhXhXhXhX  O   + 2 s S.N.M %   : %.h.F.W.).!.E.R.!.-.    X > y R T W ^ @X=X4X7X5X5X7X3X3X3X3XqX1X5X9X&X+X@XT R @ .     hXhXhXhX",
"hXhXhXhX  X $ 0 V.).Q.F.n.B O . : @.0.[./.K.!.R.~.).A.p . O O y Y K R T Y K ^ $X&X$X$X$X&X#X#X%X%X#X( L Q Y W G @   O hXhXhXhXhX",
"hXhXhX.   $ 9 V._.Z.(.v.d.V O   : +.w.c.T.E.^.Y.!.~.P.J.=     . y ! L K Q Y Y W K Y Y U K K L R T T K R E E P 6   . O hXhXhXhXhX",
"hXhXhX. . X k }.L.oXZ.:.f.Z   + : #.q.8.P.E.!.!.R.).Q.R.m   X X O U R E E ! L T L T T T T L T T R W R J r O O   O hXhXhXhXhXhXhX",
"hXhXhX. X ; ;..XI.!.n.7.k.Z .   : #.d.l.F.E.!.Q.E./.Q.'.J.| -   X > r < 6 y U R R G R Y J U d 6 < 6 < @ X .   # hXhXhXhXhXhXhXhX",
"hXhXhX  O % =.F.y.t.d.9.f.Z   O : @.f.t.n.E.!.I.E.E.!.!./.G.p   X   .       .       , r X               X     hXhXhXhXhXhXhXhXhX",
"hXhXhX    - +.c.<.a.t.9.j.Z   X : @.f.5.c.!.!.!.!.!.!.E.).).J.M.n &     X       X   X X     O   O O     1   O   hXhXhXhXhXhXhXhX",
"hXhXhXX   q O.7.r.9.8.9.f.Z   O : #.f.8.c.(.!.!.E.!.!.E.!.I.!.P._.^.`.=.` { } ' p   *   * n { [ V.]._.^.'.h X @ hXhXhXhXhXhXhXhX",
"hXhXhXO . j x.d.0.d.9.9.j.Z O O : #.w.t.c.(.!.!.E.!.!.R.!..X X).W.!.T.T.!.Q.L.R.^./.(._._.Y.R.G.|.{. XQ..Xe X   hXhXhXhXhXhXhXhX",
"hXhXhXO   j z.6.5.9.t.9.j.Z   O : #.d.5.c./.Q.!.!.!.E.!.E.R._.P.!.R.!.^.^.!.U.T.Q.!.).P.^. XE.E.R.R.R.H.XXe   . hXhXhXhXhXhXhXhX",
"hXhXhXO   g k.8.f.8.a.r.k.C     ; #.f.t.0.D.(.!.!.!.!.).E.!.!.E.!.!.!.!.!.E.!.E.E.!.!.!.E.Q.!.!.!.!.!.R.oXa   X hXhXhXhXhXhXhXhX",
"hXhXhXO   j k.4.f.8.9.f.f.Z   + : #.f.5.3.u.P.E.K.E.E.R.!.!.!.E.!.R.!.E.!.!.!.E.!.!.E.E.!.!.!.R.E.^.R.E.oXa     hXhXhXhXhXhXhXhX",
"hXhXhXO   l k.8.f.9.9.9.x.Z   O : #.9.5.w.8.F.^.E.E.E.R.Q.E.!.!.!.!.!.E.!.E.!.!.E.!.!.!.!.E.!.R.!.E.!.E.oXa   X hXhXhXhXhXhXhXhX",
"hXhXhXO   g h.4.a.9.9.5.1.g   . : @.d.t.9.p.e.F. XE.E.).!.!.!.!.E.E.!.!.E.!.E.!.!.E.E.!.!.!.E.!.R.!.!.E._.a     hXhXhXhXhXhXhXhX",
"hXhXhX    g g.6.3.8.w.8.&.4   O : %.d.p.8.9.9.0.D.}.!.E.P.!.!.R.E.E.E.!.).!.E.E.R.!.!.E.E.!.!.E.!.!.!.R..Xa   X hXhXhXhXhXhXhXhX",
"hXhXhXO   g g.p.u.9.7.9.O.4   O : %.d.a.8.3.a.9.0.y.v.!.Q.K.E.(.!.!.!.!.P.E.!.!.!.!.).!.!.!.R.!.!.E.!.E.XXp     hXhXhXhXhXhXhXhX",
"hXhXhXO   j z.i.w.p.9.9.&.w   O : %.w.9.5.q.l.8.9.9.3.c.v.I.R.!.!.P.).E.!.Q.!.!.!.!.!.!.).!.!.E.E.P.!.E. Xp   X hXhXhXhXhXhXhXhX",
"hXhXhXO   7 O.9.w.a.9.w.a.V X . : %.d.a.8.q.a.8.8.f.7.6.6.q.c.F.L.Q._..X!.R.P.!.!.R.!.!.R.E.R.E.!.|.}.F.D.8   X hXhXhXhXhXhXhXhX",
"hXhXhXO   + ] t.8.a.9.3.k.A   . 4 %.w.9.8.7.8.9.9.9.9.z.8.9.8.w.3.w.n.v.!..X(.E.!.).!.^.!._.(._.U.Z.e.:.g.q + X hXhXhXhXhXhXhXhX",
"hXhXhX  . o B 9.4.5.f.3.k.C   O : #.q.a.9.7.l.9.9.9.9.9.9.9.9.9.9.9.9.9.w.u.t.9.w.w.0.w.w.w.5.0.9.9.9.4.g.q . hXhXhXhXhXhXhXhXhX",
"hXhXhX  # # * $.9.9.4.3.k.C     : #.w.a.8.q.9.9.9.9.w.9.9.9.9.9.9.w.9.9.7.7.9.9.9.9.9.8.9.9.9.9.9.9.9.9.*.5 . hXhXhXhXhXhXhXhXhX",
"hXhXhXhX  %   7 r.k.h.9.d.C O   : @.w.a.9.q.r.a.a.9.9.9.9.w.9.9.9.9.9.a.p.a.p.9.9.8.8.9.8.8.9.6.9.9.7.k.N O O hXhXhXhXhXhXhXhXhX",
"hXhXhXhXhX@     w $.*.:.x.C   O : #.q.a.4.9.a.9.9.9.w.9.a.9.9.9.9.9.9.9.9.9.9.a.9.3.9.9.9.9.9.8.w.9.6.k.c .   hXhXhXhXhXhXhXhXhX",
"hXhXhXhXhXhX$   @   + l F x *   ; +.g.1.w.5.9.9.9.9.9.9.t.4.f.q.7.s.d.4.9.a.a.x.a.b.j.l.z.i.9.k.4.9.f.&.w   O hXhXhXhXhXhXhXhXhX",
"hXhXhXhXhXhXhX  @ O O   - +       f 2.p.9.9.6.9.9.w.9.9.3.d.k.+.F A S o.o.F c $ X X X   i &.3.a.8.9.d.#.* O O hXhXhXhXhXhXhXhXhX",
"hXhXhXhXhXhXhXhXhXhX        X   # . V f.9.9.a.9.9.9.9.9.8.9.%.: O   X X X       % = O o -  .w.p.7.p.d.+.- O   hXhXhXhXhXhXhXhXhX",
"hXhXhXhXhXhXhXhXhXhXhXhXhXhXhX% & X V n.2.9.a.9.9.9.9.9.8.5.*.  . + X       . + ; e i w c t.q.p.g.6.7.g       hXhXhXhXhXhXhXhXhX",
"hXhXhXhXhXhXhXhXhXhXhXhXhXhXhXhX@ . N g.8.5.w.9.9.9.9.9.9.j.:.  . . hXhXhXhX  O q 5.j.f.0.0.5.1.q.<.u.5     hXhXhXhXhXhXhXhXhXhX",
"hXhXhXhXhXhXhXhXhXhXhXhXhXhXhXhX    B f.9.a.5.9.9.9.9.9.9.9.:.    O hXhXhXhX    3 e.p.0.8.a.w.1.q.,.*.7     hXhXhXhXhXhXhXhXhXhX",
"hXhXhXhXhXhXhXhXhXhXhXhXhXhXhXhX    V k.9.s.5.9.9.9.9.w.9.9.&.      hXhXhXhX    4 g.i.9.8.a.3.9.t.9.l       hXhXhXhXhXhXhXhXhXhX",
"hXhXhXhXhXhXhXhXhXhXhXhXhXhXhXhX    B f.4.a.5.9.9.a.9.9.9.9.2.  . O hXhXhXhX    + +.d.9.a.9.w.d.6.y.g     hXhXhXhXhXhXhXhXhXhXhX",
"hXhXhXhXhXhXhXhXhXhXhXhXhXhXhXhX    B f.9.a.r.9.9.9.9.9.9.9.&.    O hXhXhXhX      f x.8.d.p.3.8.k.S -   * hXhXhXhXhXhXhXhXhXhXhX",
"hXhXhXhXhXhXhXhXhXhXhXhXhXhXhXhXO   V h.p.d.h.a.9.k.a.f.g.a.c X O * hXhXhXhXhX#   w r.f.,.g.b.h.<.V -   hXhXhXhXhXhXhXhXhXhXhXhX",
"hXhXhXhXhXhXhXhXhXhXhXhXhXhXhXhX* O 8 &.a.>.r.p.y.:.9.8.r. .: X O . hXhXhXhXhXO O O w N N z x z :   X X hXhXhXhXhXhXhXhXhXhXhXhX",
"hXhXhXhXhXhXhXhXhXhXhXhXhXhXhXhX  + X _ j.j.8.8.p.l.h.w.:.e O X   hXhXhXhXhXhX  O + O         X X   .   hXhXhXhXhXhXhXhXhXhXhXhX",
"hXhXhXhXhXhXhXhXhXhXhXhXhXhXhXhXhXO X c 9.l.j.0.x.h.&.D -         hXhXhXhXhXhXhXhXX X X X $ + hXhXhXhXhXhXhXhXhXhXhXhXhXhXhXhXhX",
"hXhXhXhXhXhXhXhXhXhXhXhXhXhXhXhXhX  . * 7 7 S A q 9 : $       hXhXhXhXhXhXhXhXhXhXhXhXhXhXhXhXhXhXhXhXhXhXhXhXhXhXhXhXhXhXhXhXhX",
"hXhXhXhXhXhXhXhXhXhXhXhXhXhXhXhXhXhX      O     #     O   O hXhXhXhXhXhXhXhXhXhXhXhXhXhXhXhXhXhXhXhXhXhXhXhXhXhXhXhXhXhXhXhXhXhX",
"hXhXhXhXhXhXhXhXhXhXhXhXhXhXhXhXhXhXhXhX          hXhXhXhXhXhXhXhXhXhXhXhXhXhXhXhXhXhXhXhXhXhXhXhXhXhXhXhXhXhXhXhXhXhXhXhXhXhXhX",
"hXhXhXhXhXhXhXhXhXhXhXhXhXhXhXhXhXhXhXhXhXhXhXhXhXhXhXhXhXhXhXhXhXhXhXhXhXhXhXhXhXhXhXhXhXhXhXhXhXhXhXhXhXhXhXhXhXhXhXhXhXhXhXhX",
"hXhXhXhXhXhXhXhXhXhXhXhXhXhXhXhXhXhXhXhXhXhXhXhXhXhXhXhXhXhXhXhXhXhXhXhXhXhXhXhXhXhXhXhXhXhXhXhXhXhXhXhXhXhXhXhXhXhXhXhXhXhXhXhX",
"hXhXhXhXhXhXhXhXhXhXhXhXhXhXhXhXhXhXhXhXhXhXhXhXhXhXhXhXhXhXhXhXhXhXhXhXhXhXhXhXhXhXhXhXhXhXhXhXhXhXhXhXhXhXhXhXhXhXhXhXhXhXhXhX",
"hXhXhXhXhXhXhXhXhXhXhXhXhXhXhXhXhXhXhXhXhXhXhXhXhXhXhXhXhXhXhXhXhXhXhXhXhXhXhXhXhXhXhXhXhXhXhXhXhXhXhXhXhXhXhXhXhXhXhXhXhXhXhXhX"
};
