/* XPM */
static char *result[] = {
/* columns rows colors chars-per-pixel */
"64 64 3 1 ",
"  c #2A1429",
". c #2B162A",
"X c None",
/* pixels */
"XXXXXXXXXXXXXXXXXXXXXXXXXXXXXXXXXXXXXXXXXXXXXXXXXXXXXXXXXXXXXXXX",
"XXXXXXXXXXXXXXXXXXXXXXXXXXXXXXXXXXXXXXXXXXXXXXXXXXXXXXXXXXXXXXXX",
"XXXXXXXXXXXXXXXXXXXXXXXXXXXXXXXXXXXXXXXXXXXXXXXXXXXXXXXXXXXXXXXX",
"XXXXXXXXXXXXXXXXXXX ........................ XXXXXXXXXXXXXXXXXXX",
"XXXXXXXXXXXXXXXXXXX ........................ XXXXXXXXXXXXXXXXXXX",
"XXXXXXXXXXXXXXXXXXX ........................ XXXXXXXXXXXXXXXXXXX",
"XXXXXXXXXXXXXXXXXXX ........................ XXXXXXXXXXXXXXXXXXX",
"XXXXXXXXXXXXXXXXXXX ........................ XXXXXXXXXXXXXXXXXXX",
"XXXXXXXXXXXXXXXXXXX ........................ XXXXXXXXXXXXXXXXXXX",
"XXXXXXXXXXXXXXXXXXX ........................ XXXXXXXXXXXXXXXXXXX",
"XXXXXXXXXXXXXXXXXXX ........................ XXXXXXXXXXXXXXXXXXX",
"XXXXXXXXXXXXXXXXXXX ........................ XXXXXXXXXXXXXXXXXXX",
"XXXXXXXXXXXXXXXXXXX ........................ XXXXXXXXXXXXXXXXXXX",
"XXXXXXXXXXXXXXXXXXX ........................ XXXXXXXXXXXXXXXXXXX",
"XXXX...............XXXXXXXXXXXXXXXXXXXXXXXXXX...............XXXX",
"XXXX...............XXXXXXXXXXXXXXXXXXXXXXXXXX...............XXXX",
"XXXX...............XXXXXXXXXXXXXXXXXXXXXXXXXX...............XXXX",
"XXXX...............XXXXXXXXXXXXXXXXXXXXXXXXXX...............XXXX",
"XXXX...............XXXXXXXXXXXXXXXXXXXXXXXXXX...............XXXX",
"XXXX...............XXXXXXXXXXXXXXXXXXXXXXXXXX...............XXXX",
"XXXX...............XXXXXXXXXXXXXXXXXXXXXXXXXX...............XXXX",
"XXXX...............XXXXXXXXXXXXXXXXXXXXXXXXXX...............XXXX",
"XXXX...............XXXXXXXXXXXXXXXXXXXXXXXXXX...............XXXX",
"XXXX...............XXXXXXXXXXXXXXXXXXXXXXXXXX...............XXXX",
"XXXX...............XXXXXXXXXXXXXXXXXXXXXXXXXX...............XXXX",
"XXXX...............XXXXXXXXXXXXXXXXXXXXXXXXXX...............XXXX",
"XXXX...............XXXXXXXXXXXXXXXXXXXXXXXXXX...............XXXX",
"XXXX...............XXXXXXXXXXXXXXXXXXXXXXXXXX...............XXXX",
"XXXX...............XXXXXXXXXXXXXXXXXXXXXXXXXX...............XXXX",
"XXXX...............XXXXXXXXXXXXXXXXXXXXXXXXXX...............XXXX",
"XXXX...............XXXXXXXXXXXXXXXXXXXXXXXXXX...............XXXX",
"XXXX...............XXXXXXXXXXXXXXXXXXXXXXXXXX...............XXXX",
"XXXX...............XXXXXXXXXXXXXXXXXXXXXXXXXX...............XXXX",
"XXXX...............XXXXXXXXXXXXXXXXXXXXXXXXXX...............XXXX",
"XXXX...............XXXXXXXXXXXXXXXXXXXXXXXXXX...............XXXX",
"XXXX...............XXXXXXXXXXXXXXXXXXXXXXXXXX...............XXXX",
"XXXX...............XXXXXXXXXXXXXXXXXXXXXXXXXX...............XXXX",
"XXXX...............XXXXXXXXXXXXXXXXXXXXXXXXXX...............XXXX",
"XXXX...............XXXXXXXXXXXXXXXXXXXXXXXXXX...............XXXX",
"XXXX...............XXXXXXXXXXXXXXXXXXXXXXXXXX...............XXXX",
"XXXX...............XXXXXXXXXXXXXXXXXXXXXXXXXX...............XXXX",
"XXXX...............XXXXXXXXXXXXXXXXXXXXXXXXXX...............XXXX",
"XXXX...............XXXXXXXXXXXXXXXXXXXXXXXXXX...............XXXX",
"XXXX...............XXXXXXXXXXXXXXXXXXXXXXXXXX...............XXXX",
"XXXX...............XXXXXXXXXXXXXXXXXXXXXXXXXX...............XXXX",
"XXXX...............XXXXXXXXXXXXXXXXXXXXXXXXXX...............XXXX",
"XXXX...............XXXXXXXXXXXXXXXXXXXXXXXXXX...............XXXX",
"XXXX...............XXXXXXXXXXXXXXXXXXXXXXXXXX...............XXXX",
"XXXX...............XXXXXXXXXXXXXXXXXXXXXXXXXX...............XXXX",
"XXXX...............XXXXXXXXXXXXXXXXXXXXXXXXXX...............XXXX",
"XXXXXXXXXXXXXXXXXXX ........................ XXXXXXXXXXXXXXXXXXX",
"XXXXXXXXXXXXXXXXXXX ........................ XXXXXXXXXXXXXXXXXXX",
"XXXXXXXXXXXXXXXXXXX ........................ XXXXXXXXXXXXXXXXXXX",
"XXXXXXXXXXXXXXXXXXX ........................ XXXXXXXXXXXXXXXXXXX",
"XXXXXXXXXXXXXXXXXXX ........................ XXXXXXXXXXXXXXXXXXX",
"XXXXXXXXXXXXXXXXXXX ........................ XXXXXXXXXXXXXXXXXXX",
"XXXXXXXXXXXXXXXXXXX ........................ XXXXXXXXXXXXXXXXXXX",
"XXXXXXXXXXXXXXXXXXX ........................ XXXXXXXXXXXXXXXXXXX",
"XXXXXXXXXXXXXXXXXXX ........................ XXXXXXXXXXXXXXXXXXX",
"XXXXXXXXXXXXXXXXXXX ........................ XXXXXXXXXXXXXXXXXXX",
"XXXXXXXXXXXXXXXXXXX ........................ XXXXXXXXXXXXXXXXXXX",
"XXXXXXXXXXXXXXXXXXXXXXXXXXXXXXXXXXXXXXXXXXXXXXXXXXXXXXXXXXXXXXXX",
"XXXXXXXXXXXXXXXXXXXXXXXXXXXXXXXXXXXXXXXXXXXXXXXXXXXXXXXXXXXXXXXX",
"XXXXXXXXXXXXXXXXXXXXXXXXXXXXXXXXXXXXXXXXXXXXXXXXXXXXXXXXXXXXXXXX"
};
