/* XPM */
static char *result[] = {
/* columns rows colors chars-per-pixel */
"64 64 82 1 ",
"  c #2A1429",
". c #2B162A",
"X c #391539",
"o c #3A153A",
"O c #3C153C",
"+ c #3F153F",
"@ c #421542",
"# c #441545",
"$ c #471648",
"% c #49164A",
"& c #4C134D",
"* c #4D124E",
"= c #4D134E",
"- c #4B164C",
"; c #4D164F",
": c #501651",
"> c #521653",
", c #531354",
"< c #531655",
"1 c #541655",
"2 c #640E67",
"3 c #650E68",
"4 c #660E68",
"5 c #660E69",
"6 c #670E6A",
"7 c #680E6B",
"8 c #631465",
"9 c #661568",
"0 c #6C156F",
"q c #6E0F71",
"w c #6F0F72",
"e c #710F74",
"r c #6F1572",
"t c #761079",
"y c #77107A",
"u c #78107B",
"i c #7B177E",
"p c #7D1180",
"a c #7F1682",
"s c #7E1782",
"d c #7F1782",
"f c #801183",
"g c #801184",
"h c #831287",
"j c #87128B",
"k c #88128B",
"l c #88128C",
"z c #89128D",
"x c #8B138F",
"c c #8C1390",
"v c #8D1391",
"b c #8E1392",
"n c #8F1393",
"m c #901394",
"M c #911395",
"N c #921496",
"B c #921497",
"V c #931498",
"C c #941498",
"Z c #941499",
"A c #951499",
"S c #96149A",
"D c #97149B",
"F c #98159D",
"G c #99159D",
"H c #9A159E",
"J c #9A159F",
"K c #9B159F",
"L c #9D15A2",
"P c #A016A4",
"I c #A016A5",
"U c #A216A7",
"Y c #A616AB",
"T c #A617AB",
"R c #A717AC",
"E c #AA17AF",
"W c #AB17B0",
"Q c #AC17B1",
"! c #AF18B4",
"~ c #B018B5",
"^ c #B118B6",
"/ c None",
/* pixels */
"////////////////////////////////////////////////////////////////",
"////////////////////////////////////////////////////////////////",
"////////////////////////////////////////////////////////////////",
"/////////////////// ........................ ///////////////////",
"/////////////////// ........................ ///////////////////",
"/////////////////// ........................ ///////////////////",
"/////////////////// ........................ ///////////////////",
"/////////////////// ........................ ///////////////////",
"/////////////////// ........................ ///////////////////",
"/////////////////// ........................ ///////////////////",
"/////////////////// ........................ ///////////////////",
"/////////////////// ........................ ///////////////////",
"/////////////////// ........................ ///////////////////",
"/////////////////// ........................ ///////////////////",
"////...............*==9sss8==&issi&==8sss9==*...............////",
"////..............X555c~~~k553W~~W355k~~~c555X..............////",
"////..............X555c~~~k553W~~W355k~~~c555X..............////",
"////..............%AZZNbbbNZZZbbbbZZZNbbbNZZA%..............////",
"////..............1^~~S555H~~^w55w^~~H555S~~^1..............////",
"////..............1^~~S555H~~^w55w^~~H555S~~^1..............////",
"////..............#jjjmJJJnjjjGJJGjjjnJJJmjjj#..............////",
"////..............X555c~~~k553W~~W355k~~~c555X..............////",
"////..............X555c~~~k553W~~W355k~~~c555X..............////",
"////..............;IPPVgggAPPIhgghIPPAgggVPPI;..............////",
"////..............1^~~S555H~~^w55w^~~H555S~~^1..............////",
"////..............1^~~S444H~~^w44w^~~H444S~~^1..............////",
"////..............+uuubYYYxuuyUYYUyuuxYYYbuuu+..............////",
"////..............X555c~~~k553W~~W355k~~~c555X..............////",
"////..............X533c~~~j332W~~W233j~~~c335X..............////",
"////..............>QWWAwwwFWWQtwwtQWWFwwwAWWQ>..............////",
"////..............1^~~S555H~~^w55w^~~H555S~~^1..............////",
"////..............<~!!S777H!!~e77e~!!H777S!!~<..............////",
"////..............o777c!!!l776E!!E677l!!!c777o..............////",
"////..............X555c~~~k553W~~W355k~~~c555X..............////",
"////..............OwwwvWWWzwwqRWWRqwwzWWWvwwwO..............////",
"////..............1^~~S333H~~^w33w^~~H333S~~^1..............////",
"////..............1^~~S555H~~^w55w^~~H555S~~^1..............////",
"////..............:TYYCuuuDYYTpuupTYYDuuuCYYT:..............////",
"////..............X544c~~~j442W~~W244j~~~c445X..............////",
"////..............X555c~~~k553W~~W355k~~~c555X..............////",
"////..............@gggnPPPvggfLPPLfggvPPPnggg@..............////",
"////..............1^~~S555H~~^w55w^~~H555S~~^1..............////",
"////..............1^~~S555H~~^w55w^~~H555S~~^1..............////",
"////..............-KJJBjjjCJJKzjjzKJJCjjjBJJK-..............////",
"////..............X555c~~~k553W~~W355k~~~c555X..............////",
"////..............X555c~~~k553W~~W355k~~~c555X..............////",
"////..............$bbbMZZZmbbbCZZCbbbmZZZMbbb$..............////",
"////..............1^~~S555H~~^w55w^~~H555S~~^1..............////",
"////..............1^~~S555H~~^w55w^~~H555S~~^1..............////",
"////...............ass0===rssd,==,dssr===0ssa...............////",
"/////////////////// ........................ ///////////////////",
"/////////////////// ........................ ///////////////////",
"/////////////////// ........................ ///////////////////",
"/////////////////// ........................ ///////////////////",
"/////////////////// ........................ ///////////////////",
"/////////////////// ........................ ///////////////////",
"/////////////////// ........................ ///////////////////",
"/////////////////// ........................ ///////////////////",
"/////////////////// ........................ ///////////////////",
"/////////////////// ........................ ///////////////////",
"/////////////////// ........................ ///////////////////",
"////////////////////////////////////////////////////////////////",
"////////////////////////////////////////////////////////////////",
"////////////////////////////////////////////////////////////////"
};
