/* XPM */
static char *result[] = {
/* columns rows colors chars-per-pixel */
"64 64 190 2 ",
"   c #020102",
".  c #0A0103",
"X  c #010902",
"o  c #0A0800",
"O  c #010309",
"+  c #0D000A",
"@  c #000A0B",
"#  c #130102",
"$  c #1C0301",
"%  c #140B00",
"&  c #1B0E00",
"*  c #15000C",
"=  c #1B000C",
"-  c #00130F",
";  c #1C1100",
":  c #121500",
">  c #000E13",
",  c #1C0011",
"<  c #170012",
"1  c #001213",
"2  c #00141B",
"3  c #00181C",
"4  c #001914",
"5  c #250103",
"6  c #2B0101",
"7  c #210E00",
"8  c #25000E",
"9  c #340003",
"0  c #3C0003",
"q  c #231300",
"w  c #2A1700",
"e  c #251800",
"r  c #291800",
"t  c #321C00",
"y  c #230013",
"u  c #2A0014",
"i  c #33001B",
"p  c #39001E",
"a  c #3A2900",
"s  c #001C24",
"d  c #001A28",
"f  c #3C0022",
"g  c #390029",
"h  c #280036",
"j  c #360036",
"k  c #002225",
"l  c #00242B",
"z  c #00282C",
"x  c #002631",
"c  c #002B32",
"v  c #002E3A",
"b  c #00393F",
"n  c #00343B",
"m  c #440002",
"M  c #4D0002",
"N  c #480008",
"B  c #41000B",
"V  c #5D0006",
"C  c #5F000A",
"Z  c #510007",
"A  c #461D00",
"S  c #4C0018",
"D  c #630007",
"F  c #6C0004",
"G  c #630009",
"H  c #6C0008",
"J  c #74000B",
"K  c #7C000B",
"L  c #740014",
"P  c #70001E",
"I  c #432700",
"U  c #440025",
"Y  c #4A0025",
"T  c #4D002A",
"R  c #55002D",
"E  c #5B002E",
"W  c #4B0036",
"Q  c #560033",
"!  c #5B0033",
"~  c #500038",
"^  c #5D003A",
"/  c #63002E",
"(  c #6B002D",
")  c #7D0024",
"_  c #7C002B",
"`  c #72002B",
"'  c #640036",
"]  c #6A0035",
"[  c #64003A",
"{  c #6B003B",
"}  c #710033",
"|  c #73003C",
" . c #78003B",
".. c #004B3C",
"X. c #1E005A",
"o. c #2D005A",
"O. c #360051",
"+. c #002346",
"@. c #003443",
"#. c #003B4A",
"$. c #003A44",
"%. c #003B52",
"&. c #10007F",
"*. c #00157F",
"=. c #33007F",
"-. c #5B0042",
";. c #530046",
":. c #49005B",
">. c #650043",
",. c #710040",
"<. c #004444",
"1. c #005544",
"2. c #004356",
"3. c #00465C",
"4. c #00485E",
"5. c #005555",
"6. c #006050",
"7. c #005468",
"8. c #005778",
"9. c #006370",
"0. c #00647B",
"q. c #006D7F",
"w. c #8C0004",
"e. c #82000D",
"r. c #8A000C",
"t. c #950203",
"y. c #9D0002",
"u. c #93000D",
"i. c #810013",
"p. c #8C0011",
"a. c #8B001F",
"s. c #960014",
"d. c #9E0014",
"f. c #94001A",
"g. c #9D001A",
"h. c #A40003",
"j. c #AB0004",
"k. c #A4000B",
"l. c #AB000A",
"z. c #B20005",
"x. c #B2000B",
"c. c #BA000C",
"v. c #B80100",
"b. c #A50013",
"n. c #AC0011",
"m. c #AA001A",
"M. c #B40012",
"N. c #BB0013",
"B. c #BD001D",
"V. c #840025",
"C. c #8A0021",
"Z. c #83002E",
"A. c #9B0020",
"S. c #8F0031",
"D. c #AB0022",
"F. c #C6001B",
"G. c #C20013",
"H. c #1E0096",
"J. c #2E008B",
"K. c #30009F",
"L. c #1600A6",
"P. c #6A00BF",
"I. c #7F00BF",
"U. c #005C85",
"Y. c #005E8A",
"T. c #00559E",
"R. c #006385",
"E. c #006A83",
"W. c #006589",
"Q. c #006C8D",
"!. c #00758B",
"~. c #007B8D",
"^. c #007087",
"/. c #006D92",
"(. c #00669A",
"). c #006D9B",
"_. c #007294",
"`. c #007C93",
"'. c #00749A",
"]. c #007E9B",
"[. c #0058A7",
"{. c #006BA1",
"}. c #007DA5",
"|. c #0078A8",
" X c #920092",
".X c #00849C",
"XX c #0084AB",
"oX c #0086B6",
"OX c #0086D7",
"+X c None",
/* pixels */
"+X+X+X+X+X+X+X+X+X+X+X+X+X+X+X+X+X+X+X+X+X+X+X+X+X+X+X+X+X+X+X+X+X+X+X+X+X+X+X+X+X+X+X+X+X+X+X+X+X+X+X+X+X+X+X+X+X+X+X+X+X+X+X+X",
"+X+X+X+X+X+X+X+X+X+X+X+X+X+X+X+X+X+X+X+X+X+X+X+X+X+X+X+X+X+X+X+X+X+X+X+X+X+X+X+X+X+X+X+X+X+X+X+X+X+X+X+X+X+X+X+X+X+X+X+X+X+X+X+X",
"+X+X+X+X+X+X+X+X+X+X+X+X+X+X+X+X+X+X+X+X+X+X+X+X+X+X+X+X+X+X+X+X+X+X+X+X+X+X+X+X+X+X+X+X+X+X+X+X+X+X+X+X+X+X+X+X+X+X+X+X+X+X+X+X",
"+X+X+X+X+X+X+X+X+X+X+X+X+X+X+X+X+X+X+X+X+X+X+X+X;                     .       % q +X+X+X+X+X+X+X+X+X+X+X+X+X+X+X+X+X+X+X+X+X+X+X",
"+X+X+X+X+X+X+X+X+X+X+X+X+X+X+X+X+X+X+X+X+X+X:   . . . . .   X       X       . . O   % +X+X+X+X+X+X+X+X+X+X+X+X+X+X+X+X+X+X+X+X+X",
"+X+X+X+X+X+X+X+X+X+X+X+X+X+X+X+X+X+X+X+Xr   . .   . 9 G i.r.e.s.p.p.p.r.J 0 o   X         7 +X+X+X+X+X+X+X+X+X+X+X+X+X+X+X+X+X+X",
"+X+X+X+X+X+X+X+X+X+X+X+X+X+X+X+X+X+X+X+X  . . % M r.x.c.x.h.h.h.h.h.j.j.z.x.l.e.p.m 5       +X+X+X+X+X+X+X+X+X+X+X+X+X+X+X+X+X+X",
"+X+X+X+X+X+X+X+X+X+X+X+X+X+X+X+X+X+X+Xo O   9 d.x.z.l.h.j.M.x.l.x.x.x.x.l.l.l.k.u.z.K 6 .     & +X+X+X+X+X+X+X+X+X+X+X+X+X+X+X+X",
"+X+X+X+X+X+X+X+X+X+X+X+X+X+X+X+X+X+X+X  O # K x.y.N.l.l.l.h.l.k.c.y.y.l.k.x.l.l.l.x.x.c.0 X X   +X+X+X+X+X+X+X+X+X+X+X+X+X+X+X+X",
"+X+X+X+X+X+X+X+X+X+X+X+X+X+X+X+X+Xt       N k.h.l.n.k.l.h.h.h.y.l.n.N.F.e.J H H K F l.G.M.M .     +X+X+X+X+X+X+X+X+X+X+X+X+X+X+X",
"+X+X+X+X+X+X+X+X+X+X+X+X+X+X+X+X+X%     $ u.l.h.c.k.l.l.x.c.b.s.K m & % #           # 6 5 L $   O & +X+X+X+X+X+X+X+X+X+X+X+X+X+X",
"+X+X+X+X+X+X+X+X+X+X+X+X+X+X+X+X+X%   # K x.h.j.n.y.M.x.k.Z 5   .     . X         . . X           . +X+X+X+X+X+X+X+X+X+X+X+X+X+X",
"+X+X+X+X+X+X+X+X+X+X+X+X+X+X+X+X+X.   = w.l.l.l.k.x.k.l.B     .   o   @ > 2 n %.%.3 2 1   .   .     . ; +X+X+X+X+X+X+X+X+X+X+X+X",
"+X+X+X+X+X+X+X+X+X+X+X+X+X+X+X+Xe .   $ w.j.l.l.l.l.t.J .     @ 1 s #.U.XX'.Q.U.8.^.q.9.b b 1     X     o ; +X+X+X+X+X+X+X+X+X+X",
"+X+X+X+X+X+X+X+X+X+X+X+X+X+X+X+X& . . 0 l.l.l.l.k.h.B.#     @ s @._.).|.}.E..XoXo.H.L.K.P. X+.X.j           % +X+X+X+X+X+X+X+X+X",
"+X+X+X+X+X+X+X+X+X+X+X+X+X+X+X+X      G v.l.l.l.l.l.i.    . 3 k #._._.).Q.W.E.OXJ.....5.1.6.:. X[.0.@.2 o     +X+X+X+X+X+X+X+X+X",
"+X+X+X+X+X+X+X+X+X+X+X+X+X+X+X+X    $ K x.l.l.l.l.x.m O     z l #.Q./.R.`._.!.W.U.O.J.X.H.L.H.[.8.!..X|.      q +X+X+X+X+X+X+X+X",
"+X+X+X+X+X+X+X+X+X+X+X+X+X+X+X+XX   6 n.x.l.l.l.l.x.m     1 z l @.)./.)._._.).Q.!.0.^.q.q.q.5.0.Q._.R.'.c     q +X+X+X+X+X+X+X+X",
"+X+X+X+X+X+X+X+X+Xa % o @   O       8 p.l.l.l.l.l.l.m   X 4 c l @.W.'.}./._._./.).).(.(.'.).~..X}./.Y.E.n   O q +X+X+X+X+X+X+X+X",
"+X+X+X+X+X+X+X;   O .     . o   .   f P k.l.l.l.l.x.m O   - z z l n E.'././._.).).~.`..X~.~./.R./..X9.@.>   @ q +X+X+X+X+X+X+X+X",
"+X+X+X+X+X+XI .         9 e.K 6 . . ~ / b.l.l.l.l.l.m     . 2 x l k c <._._._._././.Q./.Q./._.'.3.@.l d   . O q +X+X+X+X+X+X+X+X",
"+X+X+X+X+X+X6 X + . H h.x.a.' , .   E ( g.l.l.l.h.x.K   O   @ l l x l s l #.3.3.2.2.2.3.4.3.$.z x x x x       +X+X+X+X+X+X+X+X+X",
"+X+X+X+X+X+X      V l.j.n.) E < .   E / f.l.l.l.l.l.M.C .     > s x v c k z l l k l l z l z v c x s 3 @ .     +X+X+X+X+X+X+X+X+X",
"+X+X+X+X+X+X  . o r.z.l.g./ ' ,   . Q Q C.l.j.h.l.k.j.r.$       1 d l z c z l x x v c l l l k s 3 @         q +X+X+X+X+X+X+X+X+X",
"+X+X+X+X+X+X    5 k.l.g.Z.^ ' y   . R Q _ g.l.z.z.h.h.l.b.#     @ @ @ @ s 2 2 d l s d 1 > @ @           o q +X+X+X+X+X+X+X+X+X+X",
"+X+X+X+X+XA   . 5 D._ ] ] [ Q y   . T [ [ f.l.l.z.l.l.z.n.C .         o         @         . .         o +X+X+X+X+X+X+X+X+X+X+X+X",
"+X+X+X+X+X;     = S.' [ ' ] Q y   . Y ] ^ s.z.b.z.k.k.h.c.k.G 9   X       .         .     X     # o     +X+X+X+X+X+X+X+X+X+X+X+X",
"+X+X+X+X+X%   @ f ] ' [ ' ] R y   . Y { ^ s.z.b.z.l.l.h.z.x.c.N.N.s.J i.i.L 0   X X 6 D J m.N.M.M.G .   +X+X+X+X+X+X+X+X+X+X+X+X",
"+X+X+X+X+X% .   ] [ [ [ ' ] R y   . Y ' ^ s.j.n.z.l.x.l.h.y.h.h.l.c.l.t.t.h.k.M.F.M.x.l.h.z.h.h.M.G .   +X+X+X+X+X+X+X+X+X+X+X+X",
"+X+X+X+X+X#     ( Q [ [ ' ] R y   O Y { ^ s.x.n.j.h.l.x.n.l.M.l.M.x.h.y.x.c.x.j.z.t.x.x.h.y.c.x.c.V   O +X+X+X+X+X+X+X+X+X+X+X+X",
"+X+X+X+X+X% .   ' ' ] ' [ ' R y   . Y ' ' _ s.j.j.k.l.l.l.l.l.l.l.l.l.l.l.l.l.l.l.l.l.l.l.l.l.x.l.G   O +X+X+X+X+X+X+X+X+X+X+X+X",
"+X+X+X+X+X% .   / ' ' ' >.| E y   . Y { -.{ f.l.l.b.l.l.l.l.l.l.l.l.l.l.l.l.l.l.l.l.l.l.l.k.l.l.l.G     +X+X+X+X+X+X+X+X+X+X+X+X",
"+X+X+X+X+X% o   / ' ' ' { { R ,   . Y { [ ] C.l.z.x.l.l.l.l.j.l.l.l.l.l.l.l.l.l.l.l.l.l.l.l.n.x.l.G     +X+X+X+X+X+X+X+X+X+X+X+X",
"+X+X+X+X+X% .   ' ' ' ' [ [ f #   . Y ] [ ' ] ) k.j.l.l.l.l.l.l.l.l.l.j.k.j.l.l.l.l.l.l.l.l.l.z.l.D     +X+X+X+X+X+X+X+X+X+X+X+X",
"+X+X+X+X+X%   . E ' ! { [ ] u .   . Y ' ' { [ { _ g.z.l.b.j.z.l.l.h.h.h.x.l.l.l.l.l.l.l.h.h.x.h.l.G     +X+X+X+X+X+X+X+X+X+X+X+X",
"+X+X+X+X+X%     E ] / { ' { i     . Y { ] ' [ [ ] } _ l.v.j.b.y.h.l.M.M.l.l.l.l.l.k.j.l.l.l.l.h.x.C   O +X+X+X+X+X+X+X+X+X+X+X+X",
"+X+X+X+X+X%     R } ' ] ^ { U .   + Y ' ' ] [ ^ [ [ [ } C.b.j.x.x.j.l.l.l.l.l.l.j.l.l.l.l.l.x.j.z.D     +X+X+X+X+X+X+X+X+X+X+X+X",
"+X+X+X+X+X% .   i ' ' ] Q | ! *   . Y [ { ' [ [ ' ] ] ^ ^ ` a.g.g.k.j.j.l.x.l.l.x.l.l.l.l.l.l.p.C.S     +X+X+X+X+X+X+X+X+X+X+X+X",
"+X+X+X+X+Xr     = ' / ] ~ { ' =   . Y ] [ ' ' ] ] ' [ ] ] -.;.! ( V.f.g.b.b.b.b.b.d.d.d.b.g.V.' >.g O O +X+X+X+X+X+X+X+X+X+X+X+X",
"+X+X+X+X+X+X    # T Q ] ! { E =   + Y ] ' ' ' ' ' ' ' ' ' ' ' ' ' ' ' ' ] ] ] ] ] / ] ] ] ] [ ! ,.i     +X+X+X+X+X+X+X+X+X+X+X+X",
"+X+X+X+X+X+X      < ~ | [ ,.' =   O Y { ' ' ' ' ' ' ' ' ' ' ' ' ' ' ' ' ' ^ [ ' ^ ' ^ ^ ' [ [ ^ ] y     +X+X+X+X+X+X+X+X+X+X+X+X",
"+X+X+X+X+X+Xr       Y { ^ { E <   . Y ] ' ' ' ' ' ' ' ' ' ' ' ' ' ' ' ' ] ] ] ] ] ] ( ] ] ] ] ' ' *   . +X+X+X+X+X+X+X+X+X+X+X+X",
"+X+X+X+X+X+X+X; O     y i ' ! ,   . Y ' ' ' [ ' ' ' ' ' ' ' ' [ ' ' ' ' ' ' ' ' ' [ ' ' ' ' ] ' E +   % +X+X+X+X+X+X+X+X+X+X+X+X",
"+X+X+X+X+X+X+X+X%         . y * o . g  .' ' ' ' ' ' ' { ^ | ] [ [ [ { { ' Y T E Q U { { [ ] Q  .y   . % +X+X+X+X+X+X+X+X+X+X+X+X",
"+X+X+X+X+X+X+X+X+X+X      X         , ! ' ' ' ' ' ! ] { ! ] p * * = * * *           p ] [ ' ' { y     & +X+X+X+X+X+X+X+X+X+X+X+X",
"+X+X+X+X+X+X+X+X+X+X+X+X& .         X f >.' ' ' ' ^ { [ [ ! *   o       .           u ' [ ' ] / +     +X+X+X+X+X+X+X+X+X+X+X+X+X",
"+X+X+X+X+X+X+X+X+X+X+X+X+X+X+X+X+X.   i ,.' ' ' ' ' { [ { ' + @   X o o X X + p Y f ! ' [ { ] Y   .   +X+X+X+X+X+X+X+X+X+X+X+X+X",
"+X+X+X+X+X+X+X+X+X+X+X+X+X+X+X+X+X+   i | ' ' ' ' [ [ ] ' ' + .   +X+X+X  . * ' ^ ' ] [ [ ] ] i     % +X+X+X+X+X+X+X+X+X+X+X+X+X",
"+X+X+X+X+X+X+X+X+X+X+X+X+X+X+X+X+X    i { [ ' ' ' ' ! ] ^ { . O   +X+X+X    . / [ [ ' ' ' ' | y .   & +X+X+X+X+X+X+X+X+X+X+X+X+X",
"+X+X+X+X+X+X+X+X+X+X+X+X+X+X+X+X+X    i | ' ' [ ' [ ! } ^ ' . O   +X+X+X  . . E { ' ' ' ' ' { , .   r +X+X+X+X+X+X+X+X+X+X+X+X+X",
"+X+X+X+X+X+X+X+X+X+X+X+X+X+X+X+X+X    i ,.' ' ' ' ' E } ^ ] +     +X+X+X  .   U ] ' ' ' ' ' R O   o +X+X+X+X+X+X+X+X+X+X+X+X+X+X",
"+X+X+X+X+X+X+X+X+X+X+X+X+X+X+X+X+X    i { [ ' ' ' ' E { ^ [ . O   +X+X+X  . @ i [ ' ' ' ' { i @   o +X+X+X+X+X+X+X+X+X+X+X+X+X+X",
"+X+X+X+X+X+X+X+X+X+X+X+X+X+X+X+X+X    i ' ] { ] { ] ' { ' i       +X+X+X+X    = W T R Q T f #     +X+X+X+X+X+X+X+X+X+X+X+X+X+X+X",
"+X+X+X+X+X+X+X+X+X+X+X+X+X+X+X+X+X@   * R ' ! Q ' { {  .U       & +X+X+X+X    X             @ O o +X+X+X+X+X+X+X+X+X+X+X+X+X+X+X",
"+X+X+X+X+X+X+X+X+X+X+X+X+X+X+X+X+Xo   . Y ] ' ' ] ' ' T *       +X+X+X+X+X+X    O               +X+X+X+X+X+X+X+X+X+X+X+X+X+X+X+X",
"+X+X+X+X+X+X+X+X+X+X+X+X+X+X+X+X+X%     y U R E U i , .       ; +X+X+X+X+X+X+X+X+X+X+X+X+X+X+X+X+X+X+X+X+X+X+X+X+X+X+X+X+X+X+X+X",
"+X+X+X+X+X+X+X+X+X+X+X+X+X+X+X+X+X& . O     + *     . @     +X+X+X+X+X+X+X+X+X+X+X+X+X+X+X+X+X+X+X+X+X+X+X+X+X+X+X+X+X+X+X+X+X+X",
"+X+X+X+X+X+X+X+X+X+X+X+X+X+X+X+X+X+X+X.                 ; +X+X+X+X+X+X+X+X+X+X+X+X+X+X+X+X+X+X+X+X+X+X+X+X+X+X+X+X+X+X+X+X+X+X+X",
"+X+X+X+X+X+X+X+X+X+X+X+X+X+X+X+X+X+X+X+X+Xq q 7 q +X+X+X+X+X+X+X+X+X+X+X+X+X+X+X+X+X+X+X+X+X+X+X+X+X+X+X+X+X+X+X+X+X+X+X+X+X+X+X",
"+X+X+X+X+X+X+X+X+X+X+X+X+X+X+X+X+X+X+X+X+X+X+X+X+X+X+X+X+X+X+X+X+X+X+X+X+X+X+X+X+X+X+X+X+X+X+X+X+X+X+X+X+X+X+X+X+X+X+X+X+X+X+X+X",
"+X+X+X+X+X+X+X+X+X+X+X+X+X+X+X+X+X+X+X+X+X+X+X+X+X+X+X+X+X+X+X+X+X+X+X+X+X+X+X+X+X+X+X+X+X+X+X+X+X+X+X+X+X+X+X+X+X+X+X+X+X+X+X+X",
"+X+X+X+X+X+X+X+X+X+X+X+X+X+X+X+X+X+X+X+X+X+X+X+X+X+X+X+X+X+X+X+X+X+X+X+X+X+X+X+X+X+X+X+X+X+X+X+X+X+X+X+X+X+X+X+X+X+X+X+X+X+X+X+X",
"+X+X+X+X+X+X+X+X+X+X+X+X+X+X+X+X+X+X+X+X+X+X+X+X+X+X+X+X+X+X+X+X+X+X+X+X+X+X+X+X+X+X+X+X+X+X+X+X+X+X+X+X+X+X+X+X+X+X+X+X+X+X+X+X",
"+X+X+X+X+X+X+X+X+X+X+X+X+X+X+X+X+X+X+X+X+X+X+X+X+X+X+X+X+X+X+X+X+X+X+X+X+X+X+X+X+X+X+X+X+X+X+X+X+X+X+X+X+X+X+X+X+X+X+X+X+X+X+X+X"
};
