/* XPM */
static char *result[] = {
/* columns rows colors chars-per-pixel */
"64 64 206 2 ",
"   c #020203",
".  c #090503",
"X  c #050903",
"o  c #0F0907",
"O  c #03030A",
"+  c #0A050B",
"@  c #05090B",
"#  c #0B0B0D",
"$  c #110607",
"%  c #120B0B",
"&  c #050313",
"*  c #060717",
"=  c #0B0515",
"-  c #0D0914",
";  c #0B041B",
":  c #0E081B",
">  c #110B11",
",  c #130718",
"<  c #130B1C",
"1  c #0F1B1D",
"2  c #121B1B",
"3  c #0E0722",
"4  c #100627",
"5  c #130B23",
"6  c #170B2C",
"7  c #1A0D2E",
"8  c #131E21",
"9  c #191329",
"0  c #1B122C",
"q  c #1A0B33",
"w  c #1A0B38",
"e  c #1C1534",
"r  c #23153D",
"t  c #241A3C",
"y  c #152224",
"u  c #1B2324",
"i  c #1C2729",
"p  c #212F2F",
"a  c #292836",
"s  c #2C3537",
"d  c #2E3D3F",
"f  c #323536",
"g  c #303E3F",
"h  c #251D42",
"j  c #26164A",
"k  c #2A1C4B",
"l  c #2F1E54",
"z  c #2B2344",
"x  c #292146",
"c  c #33274A",
"v  c #2C3D41",
"b  c #2D2155",
"n  c #332453",
"m  c #362A54",
"M  c #332659",
"N  c #35295E",
"B  c #393054",
"V  c #3E276F",
"C  c #3F2E6A",
"Z  c #3D3362",
"A  c #433563",
"S  c #43356C",
"D  c #46386B",
"F  c #493D6D",
"G  c #443674",
"H  c #4A3375",
"J  c #453973",
"K  c #4C3B74",
"L  c #45367B",
"P  c #483378",
"I  c #473A79",
"U  c #4B3C7C",
"Y  c #513B74",
"T  c #513C7B",
"R  c #364549",
"E  c #3A4D53",
"W  c #3D565B",
"Q  c #3E585D",
"!  c #3C5B62",
"~  c #3D6161",
"^  c #434E53",
"/  c #445356",
"(  c #44565A",
")  c #49565B",
"_  c #445A5C",
"`  c #4D4269",
"'  c #435764",
"]  c #445D63",
"[  c #4A5E63",
"{  c #4B417C",
"}  c #55497D",
"|  c #446165",
" . c #4B6264",
".. c #456269",
"X. c #4C636B",
"o. c #4A6971",
"O. c #556570",
"+. c #536F75",
"@. c #596E72",
"#. c #57747B",
"$. c #68696C",
"%. c #493783",
"&. c #4B3C83",
"*. c #523C83",
"=. c #543D8B",
"-. c #543C93",
";. c #543E99",
":. c #534284",
">. c #5A4A87",
",. c #55438C",
"<. c #59458D",
"1. c #564393",
"2. c #594496",
"3. c #5C4A95",
"4. c #56429B",
"5. c #5B459B",
"6. c #5C499C",
"7. c #5F5199",
"8. c #644F95",
"9. c #604F9C",
"0. c #68539D",
"q. c #5C7D87",
"w. c #667F88",
"e. c #5741A6",
"r. c #5C44A1",
"t. c #5D48A1",
"y. c #664AA3",
"u. c #644BA5",
"i. c #654BAB",
"p. c #6A4DAD",
"a. c #6B52A4",
"s. c #7257AC",
"d. c #6E4EB2",
"f. c #714EB3",
"g. c #6E51B4",
"h. c #7353B3",
"j. c #765CB3",
"k. c #7B5AB6",
"l. c #7454BB",
"z. c #7956BC",
"x. c #775ABD",
"c. c #7C5ABC",
"v. c #7B61B4",
"b. c #724CC7",
"n. c #7654C3",
"m. c #7B56C5",
"M. c #775AC4",
"N. c #7C59C5",
"B. c #7551CC",
"V. c #7B55CB",
"C. c #7D59CA",
"Z. c #764DD0",
"A. c #7A53D3",
"S. c #7E5CD3",
"D. c #7E5CD9",
"F. c #805CC5",
"G. c #815BCC",
"H. c #835BD3",
"J. c #825BDA",
"K. c #8466C4",
"L. c #8464CB",
"P. c #8362D2",
"I. c #8866D6",
"U. c #8662D9",
"Y. c #8860D8",
"T. c #5B848C",
"R. c #6E929C",
"E. c #73969C",
"W. c #7395A2",
"Q. c #7EA4AE",
"!. c #8EA9AF",
"~. c #84ADB7",
"^. c #8DAEB8",
"/. c #8CB4C1",
"(. c #8EBEC9",
"). c #93BBC7",
"_. c #9CBECC",
"`. c #8EBED0",
"'. c #90BDD1",
"]. c #A8BCC1",
"[. c #8FC2CD",
"{. c #94C2CE",
"}. c #9AC2CC",
"|. c #95C4D3",
" X c #9BC4D4",
".X c #94CAD4",
"XX c #9DC8D3",
"oX c #99C6DA",
"OX c #95CED8",
"+X c #9AC9D9",
"@X c #A8C6CE",
"#X c #A3C8D4",
"$X c #AAD4DB",
"%X c #B5D7DD",
"&X c #BBD7E2",
"*X c #CED0D2",
"=X c #C8DDE4",
"-X c #DAE9F2",
";X c #EBECEE",
":X c #F4EDF3",
">X c #E9F5F8",
",X c #EBF5F9",
"<X c #F4F4F6",
"1X c #F6F4FC",
"2X c #F9F6FA",
"3X c none",
/* pixels */
"3X3X3X3X3X3X3X3X3X3X3X3X3X3X3X3X3X3X3X3X3X3X3X3X3X3X3X3X3X3X3X3X3X3X3X3X3X3X3X3X3X3X3X3X3X3X3X3X3X3X3X3X3X3X3X3X3X3X3X3X3X3X3X3X",
"3X3X3X3X3X3X3X3X3X3X3X3X3X3X3X3X3X3X3X3X3X3X3X3X3X3X3X3X3X3X3X3X3X3X3X3X3X3X3X3X3X3X3X3X3X3X3X3X3X3X3X3X3X3X3X3X3X3X3X3X3X3X3X3X",
"3X3X3X3X3X3X3X3X3X3X3X3X3X3X3X3X3X3X3X3X3X3X3X3X3X3X3X3X3X3X3X3X3X3X3X3X3X3X3X3X3X3X3X3X3X3X3X3X3X3X3X3X3X3X3X3X3X3X3X3X3X3X3X3X",
"3X3X3X3X3X3X3X3X3X3X3X3X3X3X3X3X3X3X3X3X3X3X3X3X3X3X3X3X3X3X3X3X3X3X3X3X3X3X3X3X3X3X3X3X3X3X3X3X3X3X3X3X3X3X3X3X3X3X3X3X3X3X3X3X",
"3X3X3X3X3X3X3X3X3X3X3X3X3X3X3X3X3X3X3X3X3X3X  O O   .   . . . . O       O     3X3X3X3X3X3X3X3X3X3X3X3X3X3X3X3X3X3X3X3X3X3X3X3X3X",
"3X3X3X3X3X3X3X3X3X3X3X3X3X3X3X3X3X3X3X3Xo +   . O - < , : ; < < < 6 q :         O .   3X3X3X3X3X3X3X3X3X3X3X3X3X3X3X3X3X3X3X3X3X",
"3X3X3X3X3X3X3X3X3X3X3X3X3X3X3X3X3X3X3X@     O 0 A s.I.H.Y.Y.Y.J.Y.G.L.a.I n 4 5 #     X . 3X3X3X3X3X3X3X3X3X3X3X3X3X3X3X3X3X3X3X",
"3X3X3X3X3X3X3X3X3X3X3X3X3X3X3X3X3X3X+   O j y.l.G.G.N.z.N.c.c.c.c.c.m.n.N.N.N.c.T c O O   % 3X3X3X3X3X3X3X3X3X3X3X3X3X3X3X3X3X3X",
"3X3X3X3X3X3X3X3X3X3X3X3X3X3X3X3X3X    . l L.m.m.V.V.N.N.S.z.C.m.N.V.N.G.N.z.n.G.J.V.J . O     3X3X3X3X3X3X3X3X3X3X3X3X3X3X3X3X3X",
"3X3X3X3X3X3X3X3X3X3X3X3X3X3X3X3X3XO   4 s.m.m.m.N.N.m.N.M.C.A.A.N.m.m.N.V.D.H.c.G.A.H.=.+ .   3X3X3X3X3X3X3X3X3X3X3X3X3X3X3X3X3X",
"3X3X3X3X3X3X3X3X3X3X3X3X3X3X3X3X@ . X K S.m.m.N.N.N.m.V.V.z.z.N.x.G.h.V l c k n l j.N.F.s.r *   X 3X3X3X3X3X3X3X3X3X3X3X3X3X3X3X",
"3X3X3X3X3X3X3X3X3X3X3X3X3X3X3X  O + k h.B.F.m.N.N.n.N.L.c.P S x : ; - .           - = ; c a   @   3X3X3X3X3X3X3X3X3X3X3X3X3X3X3X",
"3X3X3X3X3X3X3X3X3X3X3X3X3X3X3X    6 x.V.z.N.N.m.n.N.l.;.5         & O @   O X + & O + . O &   .   3X3X3X3X3X3X3X3X3X3X3X3X3X3X3X",
"3X3X3X3X3X3X3X3X3X3X3X3X3X3X3X  O < U.x.V.F.x.A.m.l.S   O   O     i @.@.O.^.).~.o.@. .O     o .   O   3X3X3X3X3X3X3X3X3X3X3X3X3X",
"3X3X3X3X3X3X3X3X3X3X3X3X3X3X3XO . q S.z.G.m.m.z.F.0.=     @ v +.E./.OXOX$X_.#X$X%X$X%X].].!.$.$.f     O   3X3X3X3X3X3X3X3X3X3X3X",
"3X3X3X3X3X3X3X3X3X3X3X3X3X3X3XO + T m.m.N.m.H.N.L.w   O   R ] ).|._.'.|.{.-X2X2X:X<X:X:X>X;X2X2X*Xf       . 3X3X3X3X3X3X3X3X3X3X",
"3X3X3X3X3X3X3X3X3X3X3X3X3X3X# O + y.m.m.c.V.m.G.=.;     s _ ! /.+X.X X X(.=X>X>X,X2X;X<X<X:X:X,X-X/.w.y   + 3X3X3X3X3X3X3X3X3X3X",
"3X3X3X3X3X3X3X3X3X3X3X3X3X3X    h n.V.m.F.m.m.H.H   O   g  .! ). X|.|.|.|._.{.@X-X1X,X,X1X1X>X&X`.oX#XT.      3X3X3X3X3X3X3X3X3X",
"3X3X3X3X3X3X3X3X3X3X3X3X3X3XO   n G.V.N.F.m.m.G.P     y [ ] ] /.|.[.|..X|.|..X|.XX@X_.#X}.}.XX).|.`..X#X/     3X3X3X3X3X3X3X3X3X",
"3X3X3X3X3X3X3X  % + O O   O O X t l.m.m.V.F.m.G.P     y Q X.W ~.|.+X X|. X|.[.|.|.'.+X.X.X{.{.|.+X|.{.}./ +   3X3X3X3X3X3X3X3X3X",
"3X3X3X3X3X  O       O       O 5 ,.p.M.V.G.m.m.G.H     y ( ] ..! Q.|. X|.{.|.XXXX X X}.|. X X+X X|.XXT.X.p     3X3X3X3X3X3X3X3X3X",
"3X3X3X3X. O & . = 3 0.p.Y O   = 9.5.x.V.V.m.m.G.H       u W ~ | / q.Q. X|.|.|.|.oX|.{. X|..XOX~.q.#.| d   .   3X3X3X3X3X3X3X3X3X",
"3X3X3X3XX     A H.c.n.u.G   O + 6.u.m.m.m.F.V.A.j.& O   O E X.] _ ! ! o.R.W.R.E.R.W.R.W.E.E.+.Q _ ! ] i .   3X3X3X3X3X3X3X3X3X3X",
"3X3X3X    O B N.k.B.x.2.G   O + 5.5.f.m.G.m.F.c.b.v.: O   1 R ....] ] _ _ [ | _ ] W ] ] ' ] ! ] | ( R #   3X3X3X3X3X3X3X3X3X3X3X",
"3X3X3X  O   P N.n.S.<.6.G     & 6.-.p.N.G.m.k.H.b.s.r       p ] ..! ] | | | [ ! ] ! [ ] | Q ) ) i X       3X3X3X3X3X3X3X3X3X3X3X",
"3X3X3X  O   G.N.B.j.5.t.G   O + t.1.y.c.m.V.G.m.F.m.K.j   .   2 y 8 d / / ( E ] / ( ^ y 2 y 2     O   3X3X3X3X3X3X3X3X3X3X3X3X3X",
"3X3X3X      M.p.u.<.-.6.G   O + 6.1.2.l.m.N.V.F.m.G.m.h.,       O             i 2                     3X3X3X3X3X3X3X3X3X3X3X3X3X",
"3X3X3X      t.5.2.2.2.5.G     + 6.1.-.l.V.m.N.N.V.N.m.N.i.*.=               & O O   O =         .   O 3X3X3X3X3X3X3X3X3X3X3X3X3X",
"3X3X3XO   h 1.2.5.5.1.6.P     + t.1.2.h.V.m.N.m.m.N.N.N.F.c.G.P.9.S P U S 7       r Y *.p.P.U.N.s.7 . 3X3X3X3X3X3X3X3X3X3X3X3X3X",
"3X3X3XO   :.1.2.-.1.2.6.G     + 6.1.1.l.V.m.N.N.m.N.V.C.G.F.A.Z.z.H.V.B.V.N.U.S.N.N.z.z.V.Z.J.G.f.q O 3X3X3X3X3X3X3X3X3X3X3X3X3X",
"3X3X3X    G 2.5.1.2.2.2.G     + t.1.2.l.V.m.m.m.N.N.V.N.N.k.N.V.m.m.m.z.m.m.V.N.N.F.F.N.V.G.m.L.f.q @ 3X3X3X3X3X3X3X3X3X3X3X3X3X",
"3X3X3X    I 1.2.5.2.2.6.S     + 6.1.;.y.c.m.F.V.N.N.N.N.N.N.N.N.m.m.N.N.m.N.N.N.m.m.m.N.N.N.C.V.f.7   3X3X3X3X3X3X3X3X3X3X3X3X3X",
"3X3X3X    I 2.2.2.3.1.4.U   O > 6.=.2.2.d.F.V.m.N.N.N.N.m.N.m.N.G.m.N.N.V.N.N.m.N.N.N.V.N.N.C.V.h.7   3X3X3X3X3X3X3X3X3X3X3X3X3X",
"3X3X3X    I 2.2.2.1.2.5.J   & > 6.<.9.-.i.N.m.F.N.V.N.N.N.N.N.N.m.m.N.N.N.N.N.N.V.N.N.N.N.m.N.V.h.q   3X3X3X3X3X3X3X3X3X3X3X3X3X",
"3X3X3X    I 2.5.2.2.1.3.k   O # 6.<.1.2.u.i.m.m.N.N.N.m.N.N.N.N.m.G.m.m.N.N.N.N.N.N.N.N.N.N.N.V.h.7 O 3X3X3X3X3X3X3X3X3X3X3X3X3X",
"3X3X3X    L -.2.1.2.3.:.5     : 9.1.2.2.1.1.p.n.C.V.m.N.N.N.m.M.N.m.N.N.m.N.N.V.N.V.N.N.C.M.V.N.h.q   3X3X3X3X3X3X3X3X3X3X3X3X3X",
"3X3X3X    %.1.1.2.5.5.:.:     : 2.2.2.9.-.9.-.9.p.N.N.m.N.N.C.N.N.V.N.N.m.m.N.m.N.N.m.N.n.N.V.C.f.6 O 3X3X3X3X3X3X3X3X3X3X3X3X3X",
"3X3X3X    I 1.1.2.2.5.*.e     ; 5.-.8.;.2.2.8.-.5.t.p.M.C.N.m.V.V.N.N.N.G.N.N.N.N.N.N.N.M.N.N.N.h.7   3X3X3X3X3X3X3X3X3X3X3X3X3X",
"3X3X3X  . r 2.2.1.2.1.6.A     : 9.-.;.9.2.2.1.2.2.5.2.5.i.h.M.M.N.m.m.m.N.V.m.m.m.m.m.m.N.F.M.g.8.5 . 3X3X3X3X3X3X3X3X3X3X3X3X3X",
"3X3X3X  .   2.1.5.2.2.2.F     ; 2.-.8.-.1.1.t.5.2.,.1.2.2.2.6.u.p.N.N.N.N.N.N.N.N.N.N.N.n.h.t.4.{ < O 3X3X3X3X3X3X3X3X3X3X3X3X3X",
"3X3X3X  *   L 2.1.3.2.5.P   O + u.-.9.-.2.;.2.1.5.1.3.2.2.2.3.4.2.5.5.6.5.5.5.9.2.5.2.9.5.1.1.e.:.< O 3X3X3X3X3X3X3X3X3X3X3X3X3X",
"3X3X3X      0 :.t.5.,.6.G     + u.1.2.5.2.8.2.2.1.2.1.2.2.4.2.1.2.2.2.2.5.2.2.2.2.2.2.;.4.1.<.4.D -   3X3X3X3X3X3X3X3X3X3X3X3X3X",
"3X3X3X3X    X Z t.6.5.6.G     + 6.1.5.2.2.2.5.1.2.2.2.2.2.4.3.3.1.9.2.2.2.2.5.2.9.2.9.-.6.1.3.6.x     3X3X3X3X3X3X3X3X3X3X3X3X3X",
"3X3X3X3X3X    & B } 3.t.G     + 6.-.8.-.2.2.5.1.2.2.2.2.2.1.1.4.1.2.2.2.2.2.2.2.-.-.8.2.1.2.1.5.n O   3X3X3X3X3X3X3X3X3X3X3X3X3X",
"3X3X3X3X3X        . 6 N `     3 7.1.5.5.=.1.2.2.2.2.2.1.1.2.6.;.r.<.2.5.3.6.3.>.8.2.1.,.3.1.5.*.5     3X3X3X3X3X3X3X3X3X3X3X3X3X",
"3X3X3X3X3X3XO #     @   & O     h 3.;.1.9.1.2.2.2.2.2.5.3.S A Z A S S m     O & & H 1.5.2.2.5.C       3X3X3X3X3X3X3X3X3X3X3X3X3X",
"3X3X3X3X3X3X3X3X3X3X        O   : I 5.5.2.2.2.2.5.2.1.2.M O               . O X   t 3.5.2.;.u.Z     3X3X3X3X3X3X3X3X3X3X3X3X3X3X",
"3X3X3X3X3X3X3X3X3X3X3X3X3X3X$ O O K 1.5.6.2.2.2.2.5.1.3.n     @   O . #   - e e e { ,.6.1.t.:.e   O 3X3X3X3X3X3X3X3X3X3X3X3X3X3X",
"3X3X3X3X3X3X3X3X3X3X3X3X3X3X3XO O K 1.6.4.1.5.2.2.2.1.6.M     3X3X3X3X  * x 3.6.3.4.5.,.1.5.:.<   3X3X3X3X3X3X3X3X3X3X3X3X3X3X3X",
"3X3X3X3X3X3X3X3X3X3X3X3X3X3X3X  O %.1.1.2.2.3.1.2.5.1.5.M   O 3X3X3X3X    x 1.2.2.4.1.2.3.1.,.:   3X3X3X3X3X3X3X3X3X3X3X3X3X3X3X",
"3X3X3X3X3X3X3X3X3X3X3X3X3X3X3XO O %.1.1.3.2.2.3.2.2.2.6.M   O 3X3X3X3X    x 4.3.1.4.2.2.2.3.n     3X3X3X3X3X3X3X3X3X3X3X3X3X3X3X",
"3X3X3X3X3X3X3X3X3X3X3X3X3X3X3XO   %.1.2.2.1.2.2.2.2.2.6.M     3X3X3X3X    9 &.2.1.3.2.2.2.3.z O   3X3X3X3X3X3X3X3X3X3X3X3X3X3X3X",
"3X3X3X3X3X3X3X3X3X3X3X3X3X3X3XO . %.1.2.2.1.2.1.2.9.1.6.M     3X3X3X3X  O   L 2.4.2.3.1.5.%.O   O 3X3X3X3X3X3X3X3X3X3X3X3X3X3X3X",
"3X3X3X3X3X3X3X3X3X3X3X3X3X3X3X  O G 1.5.2.5.2.5.-.5.-.<.6     3X3X3X3X3X    C 3.3.e.t.3.1.Z     3X3X3X3X3X3X3X3X3X3X3X3X3X3X3X3X",
"3X3X3X3X3X3X3X3X3X3X3X3X3X3X3X  + c <.-.2.<.<.1.9.-.2.N O   X 3X3X3X3X3X  @ * t m M b m 9 . . . 3X3X3X3X3X3X3X3X3X3X3X3X3X3X3X3X",
"3X3X3X3X3X3X3X3X3X3X3X3X3X3X3XO   5 8.;.u.2.5.r.;.2.F =   O . 3X3X3X3X3X  O O O O O O @ O   O 3X3X3X3X3X3X3X3X3X3X3X3X3X3X3X3X3X",
"3X3X3X3X3X3X3X3X3X3X3X3X3X3X3X    = G 3.1.6.1.3.&.m *       3X3X3X3X3X3X3X3X3X3X  $ $ o $ $ 3X3X3X3X3X3X3X3X3X3X3X3X3X3X3X3X3X3X",
"3X3X3X3X3X3X3X3X3X3X3X3X3X3X3X      & 0 z Z 7 9 >   .   . 3X3X3X3X3X3X3X3X3X3X3X3X3X3X3X3X3X3X3X3X3X3X3X3X3X3X3X3X3X3X3X3X3X3X3X",
"3X3X3X3X3X3X3X3X3X3X3X3X3X3X3X3X          , O     ,     3X3X3X3X3X3X3X3X3X3X3X3X3X3X3X3X3X3X3X3X3X3X3X3X3X3X3X3X3X3X3X3X3X3X3X3X",
"3X3X3X3X3X3X3X3X3X3X3X3X3X3X3X3X3X3X3X      . 3X3X3X3X3X3X3X3X3X3X3X3X3X3X3X3X3X3X3X3X3X3X3X3X3X3X3X3X3X3X3X3X3X3X3X3X3X3X3X3X3X",
"3X3X3X3X3X3X3X3X3X3X3X3X3X3X3X3X3X3X3X3X3X3X3X3X3X3X3X3X3X3X3X3X3X3X3X3X3X3X3X3X3X3X3X3X3X3X3X3X3X3X3X3X3X3X3X3X3X3X3X3X3X3X3X3X",
"3X3X3X3X3X3X3X3X3X3X3X3X3X3X3X3X3X3X3X3X3X3X3X3X3X3X3X3X3X3X3X3X3X3X3X3X3X3X3X3X3X3X3X3X3X3X3X3X3X3X3X3X3X3X3X3X3X3X3X3X3X3X3X3X",
"3X3X3X3X3X3X3X3X3X3X3X3X3X3X3X3X3X3X3X3X3X3X3X3X3X3X3X3X3X3X3X3X3X3X3X3X3X3X3X3X3X3X3X3X3X3X3X3X3X3X3X3X3X3X3X3X3X3X3X3X3X3X3X3X",
"3X3X3X3X3X3X3X3X3X3X3X3X3X3X3X3X3X3X3X3X3X3X3X3X3X3X3X3X3X3X3X3X3X3X3X3X3X3X3X3X3X3X3X3X3X3X3X3X3X3X3X3X3X3X3X3X3X3X3X3X3X3X3X3X"
};
